%TF.GenerationSoftware,KiCad,Pcbnew,9.0.3*%
%TF.CreationDate,2025-10-16T19:58:58+02:00*%
%TF.ProjectId,ledkiv3,6c65646b-6976-4332-9e6b-696361645f70,rev?*%
%TF.SameCoordinates,Original*%
%TF.FileFunction,Copper,L1,Top*%
%TF.FilePolarity,Positive*%
%FSLAX46Y46*%
G04 Gerber Fmt 4.6, Leading zero omitted, Abs format (unit mm)*
G04 Created by KiCad (PCBNEW 9.0.3) date 2025-10-16 19:58:58*
%MOMM*%
%LPD*%
G01*
G04 APERTURE LIST*
G04 Aperture macros list*
%AMRoundRect*
0 Rectangle with rounded corners*
0 $1 Rounding radius*
0 $2 $3 $4 $5 $6 $7 $8 $9 X,Y pos of 4 corners*
0 Add a 4 corners polygon primitive as box body*
4,1,4,$2,$3,$4,$5,$6,$7,$8,$9,$2,$3,0*
0 Add four circle primitives for the rounded corners*
1,1,$1+$1,$2,$3*
1,1,$1+$1,$4,$5*
1,1,$1+$1,$6,$7*
1,1,$1+$1,$8,$9*
0 Add four rect primitives between the rounded corners*
20,1,$1+$1,$2,$3,$4,$5,0*
20,1,$1+$1,$4,$5,$6,$7,0*
20,1,$1+$1,$6,$7,$8,$9,0*
20,1,$1+$1,$8,$9,$2,$3,0*%
G04 Aperture macros list end*
%TA.AperFunction,ComponentPad*%
%ADD10R,1.700000X1.700000*%
%TD*%
%TA.AperFunction,ComponentPad*%
%ADD11C,1.700000*%
%TD*%
%TA.AperFunction,SMDPad,CuDef*%
%ADD12RoundRect,0.243750X0.456250X-0.243750X0.456250X0.243750X-0.456250X0.243750X-0.456250X-0.243750X0*%
%TD*%
%TA.AperFunction,ViaPad*%
%ADD13C,0.600000*%
%TD*%
%TA.AperFunction,Conductor*%
%ADD14C,0.250000*%
%TD*%
G04 APERTURE END LIST*
D10*
%TO.P,J3,1,Pin_1*%
%TO.N,VCC*%
X29836000Y-71166000D03*
D11*
%TO.P,J3,2,Pin_2*%
X29836000Y-73706000D03*
%TO.P,J3,3,Pin_3*%
%TO.N,/SDA*%
X29836000Y-76246000D03*
%TO.P,J3,4,Pin_4*%
%TO.N,/SCL*%
X29836000Y-78786000D03*
%TO.P,J3,5,Pin_5*%
%TO.N,/URX*%
X29836000Y-81326000D03*
%TO.P,J3,6,Pin_6*%
%TO.N,GND*%
X29836000Y-83866000D03*
%TO.P,J3,7,Pin_7*%
X29836000Y-86406000D03*
%TD*%
D10*
%TO.P,J1,1,Pin_1*%
%TO.N,VCC*%
X70476000Y-71166000D03*
D11*
%TO.P,J1,2,Pin_2*%
X70476000Y-73706000D03*
%TO.P,J1,3,Pin_3*%
%TO.N,/SDA*%
X70476000Y-76246000D03*
%TO.P,J1,4,Pin_4*%
%TO.N,/SCL*%
X70476000Y-78786000D03*
%TO.P,J1,5,Pin_5*%
%TO.N,/UTX*%
X70476000Y-81326000D03*
%TO.P,J1,6,Pin_6*%
%TO.N,GND*%
X70476000Y-83866000D03*
%TO.P,J1,7,Pin_7*%
X70476000Y-86406000D03*
%TD*%
D10*
%TO.P,J2,1,Pin_1*%
%TO.N,VCC*%
X52315000Y-100503000D03*
D11*
%TO.P,J2,2,Pin_2*%
%TO.N,/SWDIO*%
X49775000Y-100503000D03*
%TO.P,J2,3,Pin_3*%
%TO.N,GND*%
X47235000Y-100503000D03*
%TD*%
D12*
%TO.P,D7,1,K*%
%TO.N,/S7*%
X62856000Y-97171000D03*
%TO.P,D7,2,A*%
%TO.N,Net-(D1-A)*%
X62856000Y-95296000D03*
%TD*%
%TO.P,D55,1,K*%
%TO.N,/S7*%
X62856000Y-66691000D03*
%TO.P,D55,2,A*%
%TO.N,Net-(D49-A)*%
X62856000Y-64816000D03*
%TD*%
%TO.P,D32,1,K*%
%TO.N,/S8*%
X67936000Y-81931000D03*
%TO.P,D32,2,A*%
%TO.N,Net-(D25-A)*%
X67936000Y-80056000D03*
%TD*%
%TO.P,D33,1,K*%
%TO.N,/S1*%
X32376000Y-76851000D03*
%TO.P,D33,2,A*%
%TO.N,Net-(D33-A)*%
X32376000Y-74976000D03*
%TD*%
%TO.P,D34,1,K*%
%TO.N,/S2*%
X37456000Y-76851000D03*
%TO.P,D34,2,A*%
%TO.N,Net-(D33-A)*%
X37456000Y-74976000D03*
%TD*%
%TO.P,D17,1,K*%
%TO.N,/S1*%
X32376000Y-87011000D03*
%TO.P,D17,2,A*%
%TO.N,Net-(D17-A)*%
X32376000Y-85136000D03*
%TD*%
%TO.P,D59,1,K*%
%TO.N,/S3*%
X42536000Y-61611000D03*
%TO.P,D59,2,A*%
%TO.N,Net-(D57-A)*%
X42536000Y-59736000D03*
%TD*%
%TO.P,D53,1,K*%
%TO.N,/S5*%
X52696000Y-66691000D03*
%TO.P,D53,2,A*%
%TO.N,Net-(D49-A)*%
X52696000Y-64816000D03*
%TD*%
%TO.P,D13,1,K*%
%TO.N,/S5*%
X52696000Y-92091000D03*
%TO.P,D13,2,A*%
%TO.N,Net-(D10-A)*%
X52696000Y-90216000D03*
%TD*%
%TO.P,D3,1,K*%
%TO.N,/S3*%
X42536000Y-97171000D03*
%TO.P,D3,2,A*%
%TO.N,Net-(D1-A)*%
X42536000Y-95296000D03*
%TD*%
%TO.P,D46,1,K*%
%TO.N,/S6*%
X57776000Y-71771000D03*
%TO.P,D46,2,A*%
%TO.N,Net-(D41-A)*%
X57776000Y-69896000D03*
%TD*%
%TO.P,D15,1,K*%
%TO.N,/S7*%
X62856000Y-92091000D03*
%TO.P,D15,2,A*%
%TO.N,Net-(D10-A)*%
X62856000Y-90216000D03*
%TD*%
%TO.P,D19,1,K*%
%TO.N,/S3*%
X42536000Y-87011000D03*
%TO.P,D19,2,A*%
%TO.N,Net-(D17-A)*%
X42536000Y-85136000D03*
%TD*%
%TO.P,D38,1,K*%
%TO.N,/S6*%
X57776000Y-76851000D03*
%TO.P,D38,2,A*%
%TO.N,Net-(D33-A)*%
X57776000Y-74976000D03*
%TD*%
%TO.P,D31,1,K*%
%TO.N,/S7*%
X62856000Y-81931000D03*
%TO.P,D31,2,A*%
%TO.N,Net-(D25-A)*%
X62856000Y-80056000D03*
%TD*%
%TO.P,D10,1,K*%
%TO.N,/S2*%
X37456000Y-92091000D03*
%TO.P,D10,2,A*%
%TO.N,Net-(D10-A)*%
X37456000Y-90216000D03*
%TD*%
%TO.P,D27,1,K*%
%TO.N,/S3*%
X42536000Y-81931000D03*
%TO.P,D27,2,A*%
%TO.N,Net-(D25-A)*%
X42536000Y-80056000D03*
%TD*%
%TO.P,D1,1,K*%
%TO.N,/S1*%
X32336000Y-97171000D03*
%TO.P,D1,2,A*%
%TO.N,Net-(D1-A)*%
X32336000Y-95296000D03*
%TD*%
%TO.P,D40,1,K*%
%TO.N,/S8*%
X67936000Y-76851000D03*
%TO.P,D40,2,A*%
%TO.N,Net-(D33-A)*%
X67936000Y-74976000D03*
%TD*%
%TO.P,D47,1,K*%
%TO.N,/S7*%
X62856000Y-71771000D03*
%TO.P,D47,2,A*%
%TO.N,Net-(D41-A)*%
X62856000Y-69896000D03*
%TD*%
%TO.P,D8,1,K*%
%TO.N,/S8*%
X67936000Y-97171000D03*
%TO.P,D8,2,A*%
%TO.N,Net-(D1-A)*%
X67936000Y-95296000D03*
%TD*%
%TO.P,D14,1,K*%
%TO.N,/S6*%
X57776000Y-92091000D03*
%TO.P,D14,2,A*%
%TO.N,Net-(D10-A)*%
X57776000Y-90216000D03*
%TD*%
%TO.P,D36,1,K*%
%TO.N,/S4*%
X47616000Y-76851000D03*
%TO.P,D36,2,A*%
%TO.N,Net-(D33-A)*%
X47616000Y-74976000D03*
%TD*%
%TO.P,D30,1,K*%
%TO.N,/S6*%
X57776000Y-81931000D03*
%TO.P,D30,2,A*%
%TO.N,Net-(D25-A)*%
X57776000Y-80056000D03*
%TD*%
%TO.P,D18,1,K*%
%TO.N,/S2*%
X37456000Y-87011000D03*
%TO.P,D18,2,A*%
%TO.N,Net-(D17-A)*%
X37456000Y-85136000D03*
%TD*%
%TO.P,D16,1,K*%
%TO.N,/S8*%
X67936000Y-92091000D03*
%TO.P,D16,2,A*%
%TO.N,Net-(D10-A)*%
X67936000Y-90216000D03*
%TD*%
%TO.P,D61,1,K*%
%TO.N,/S5*%
X52696000Y-61611000D03*
%TO.P,D61,2,A*%
%TO.N,Net-(D57-A)*%
X52696000Y-59736000D03*
%TD*%
%TO.P,D29,1,K*%
%TO.N,/S5*%
X52696000Y-81931000D03*
%TO.P,D29,2,A*%
%TO.N,Net-(D25-A)*%
X52696000Y-80056000D03*
%TD*%
%TO.P,D6,1,K*%
%TO.N,/S6*%
X57776000Y-97171000D03*
%TO.P,D6,2,A*%
%TO.N,Net-(D1-A)*%
X57776000Y-95296000D03*
%TD*%
%TO.P,D50,1,K*%
%TO.N,/S2*%
X37456000Y-66691000D03*
%TO.P,D50,2,A*%
%TO.N,Net-(D49-A)*%
X37456000Y-64816000D03*
%TD*%
%TO.P,D54,1,K*%
%TO.N,/S6*%
X57776000Y-66691000D03*
%TO.P,D54,2,A*%
%TO.N,Net-(D49-A)*%
X57776000Y-64816000D03*
%TD*%
%TO.P,D35,1,K*%
%TO.N,/S3*%
X42536000Y-76851000D03*
%TO.P,D35,2,A*%
%TO.N,Net-(D33-A)*%
X42536000Y-74976000D03*
%TD*%
%TO.P,D41,1,K*%
%TO.N,/S1*%
X32376000Y-71771000D03*
%TO.P,D41,2,A*%
%TO.N,Net-(D41-A)*%
X32376000Y-69896000D03*
%TD*%
%TO.P,D42,1,K*%
%TO.N,/S2*%
X37456000Y-71771000D03*
%TO.P,D42,2,A*%
%TO.N,Net-(D41-A)*%
X37456000Y-69896000D03*
%TD*%
%TO.P,D45,1,K*%
%TO.N,/S5*%
X52696000Y-71771000D03*
%TO.P,D45,2,A*%
%TO.N,Net-(D41-A)*%
X52696000Y-69896000D03*
%TD*%
%TO.P,D9,1,K*%
%TO.N,/S1*%
X32376000Y-92091000D03*
%TO.P,D9,2,A*%
%TO.N,Net-(D10-A)*%
X32376000Y-90216000D03*
%TD*%
%TO.P,D57,1,K*%
%TO.N,/S1*%
X32376000Y-61611000D03*
%TO.P,D57,2,A*%
%TO.N,Net-(D57-A)*%
X32376000Y-59736000D03*
%TD*%
%TO.P,D12,1,K*%
%TO.N,/S4*%
X47616000Y-92091000D03*
%TO.P,D12,2,A*%
%TO.N,Net-(D10-A)*%
X47616000Y-90216000D03*
%TD*%
%TO.P,D20,1,K*%
%TO.N,/S4*%
X47616000Y-87011000D03*
%TO.P,D20,2,A*%
%TO.N,Net-(D17-A)*%
X47616000Y-85136000D03*
%TD*%
%TO.P,D24,1,K*%
%TO.N,/S8*%
X67936000Y-87011000D03*
%TO.P,D24,2,A*%
%TO.N,Net-(D17-A)*%
X67936000Y-85136000D03*
%TD*%
%TO.P,D43,1,K*%
%TO.N,/S3*%
X42536000Y-71771000D03*
%TO.P,D43,2,A*%
%TO.N,Net-(D41-A)*%
X42536000Y-69896000D03*
%TD*%
%TO.P,D49,1,K*%
%TO.N,/S1*%
X32376000Y-66691000D03*
%TO.P,D49,2,A*%
%TO.N,Net-(D49-A)*%
X32376000Y-64816000D03*
%TD*%
%TO.P,D28,1,K*%
%TO.N,/S4*%
X47616000Y-81931000D03*
%TO.P,D28,2,A*%
%TO.N,Net-(D25-A)*%
X47616000Y-80056000D03*
%TD*%
%TO.P,D11,1,K*%
%TO.N,/S3*%
X42536000Y-92091000D03*
%TO.P,D11,2,A*%
%TO.N,Net-(D10-A)*%
X42536000Y-90216000D03*
%TD*%
%TO.P,D2,1,K*%
%TO.N,/S2*%
X37416000Y-97171000D03*
%TO.P,D2,2,A*%
%TO.N,Net-(D1-A)*%
X37416000Y-95296000D03*
%TD*%
%TO.P,D44,1,K*%
%TO.N,/S4*%
X47616000Y-71771000D03*
%TO.P,D44,2,A*%
%TO.N,Net-(D41-A)*%
X47616000Y-69896000D03*
%TD*%
%TO.P,D23,1,K*%
%TO.N,/S7*%
X62856000Y-87011000D03*
%TO.P,D23,2,A*%
%TO.N,Net-(D17-A)*%
X62856000Y-85136000D03*
%TD*%
%TO.P,D56,1,K*%
%TO.N,/S8*%
X67936000Y-66691000D03*
%TO.P,D56,2,A*%
%TO.N,Net-(D49-A)*%
X67936000Y-64816000D03*
%TD*%
%TO.P,D37,1,K*%
%TO.N,/S5*%
X52696000Y-76851000D03*
%TO.P,D37,2,A*%
%TO.N,Net-(D33-A)*%
X52696000Y-74976000D03*
%TD*%
%TO.P,D58,1,K*%
%TO.N,/S2*%
X37456000Y-61611000D03*
%TO.P,D58,2,A*%
%TO.N,Net-(D57-A)*%
X37456000Y-59736000D03*
%TD*%
%TO.P,D39,1,K*%
%TO.N,/S7*%
X62856000Y-76851000D03*
%TO.P,D39,2,A*%
%TO.N,Net-(D33-A)*%
X62856000Y-74976000D03*
%TD*%
%TO.P,D26,1,K*%
%TO.N,/S2*%
X37456000Y-81931000D03*
%TO.P,D26,2,A*%
%TO.N,Net-(D25-A)*%
X37456000Y-80056000D03*
%TD*%
%TO.P,D5,1,K*%
%TO.N,/S5*%
X52696000Y-97171000D03*
%TO.P,D5,2,A*%
%TO.N,Net-(D1-A)*%
X52696000Y-95296000D03*
%TD*%
%TO.P,D52,1,K*%
%TO.N,/S4*%
X47616000Y-66691000D03*
%TO.P,D52,2,A*%
%TO.N,Net-(D49-A)*%
X47616000Y-64816000D03*
%TD*%
%TO.P,D60,1,K*%
%TO.N,/S4*%
X47616000Y-61611000D03*
%TO.P,D60,2,A*%
%TO.N,Net-(D57-A)*%
X47616000Y-59736000D03*
%TD*%
%TO.P,D64,1,K*%
%TO.N,/S8*%
X67936000Y-61611000D03*
%TO.P,D64,2,A*%
%TO.N,Net-(D57-A)*%
X67936000Y-59736000D03*
%TD*%
%TO.P,D25,1,K*%
%TO.N,/S1*%
X32376000Y-81931000D03*
%TO.P,D25,2,A*%
%TO.N,Net-(D25-A)*%
X32376000Y-80056000D03*
%TD*%
%TO.P,D4,1,K*%
%TO.N,/S4*%
X47616000Y-97171000D03*
%TO.P,D4,2,A*%
%TO.N,Net-(D1-A)*%
X47616000Y-95296000D03*
%TD*%
%TO.P,D21,1,K*%
%TO.N,/S5*%
X52696000Y-87011000D03*
%TO.P,D21,2,A*%
%TO.N,Net-(D17-A)*%
X52696000Y-85136000D03*
%TD*%
%TO.P,D22,1,K*%
%TO.N,/S6*%
X57776000Y-87011000D03*
%TO.P,D22,2,A*%
%TO.N,Net-(D17-A)*%
X57776000Y-85136000D03*
%TD*%
%TO.P,D51,1,K*%
%TO.N,/S3*%
X42536000Y-66691000D03*
%TO.P,D51,2,A*%
%TO.N,Net-(D49-A)*%
X42536000Y-64816000D03*
%TD*%
%TO.P,D63,1,K*%
%TO.N,/S7*%
X62856000Y-61611000D03*
%TO.P,D63,2,A*%
%TO.N,Net-(D57-A)*%
X62856000Y-59736000D03*
%TD*%
%TO.P,D48,1,K*%
%TO.N,/S8*%
X67936000Y-71771000D03*
%TO.P,D48,2,A*%
%TO.N,Net-(D41-A)*%
X67936000Y-69896000D03*
%TD*%
%TO.P,D62,1,K*%
%TO.N,/S6*%
X57776000Y-61611000D03*
%TO.P,D62,2,A*%
%TO.N,Net-(D57-A)*%
X57776000Y-59736000D03*
%TD*%
D13*
%TO.N,VCC*%
X66825798Y-71006202D03*
%TO.N,GND*%
X48291000Y-68664584D03*
%TO.N,Net-(D1-A)*%
X38726000Y-95296000D03*
%TO.N,VCC*%
X44440000Y-77432352D03*
X44440000Y-72752407D03*
X50802393Y-66760081D03*
X64761000Y-71166000D03*
X65396000Y-82596000D03*
X66031000Y-93391000D03*
%TO.N,Net-(D57-A)*%
X39361000Y-61641000D03*
%TO.N,Net-(D49-A)*%
X39361000Y-64816000D03*
%TO.N,Net-(D41-A)*%
X39361000Y-69896000D03*
%TO.N,Net-(D33-A)*%
X39361000Y-74976000D03*
%TO.N,Net-(D25-A)*%
X39361000Y-80056000D03*
%TO.N,Net-(D17-A)*%
X39361000Y-85176000D03*
%TO.N,Net-(D10-A)*%
X38726000Y-90216000D03*
%TO.N,VCC*%
X34281000Y-92756000D03*
%TO.N,GND*%
X45711000Y-67356000D03*
X49379400Y-73706000D03*
%TO.N,VCC*%
X46066697Y-83826000D03*
%TO.N,GND*%
X49440000Y-88946000D03*
X60951000Y-88946000D03*
X54601000Y-87676000D03*
X44441000Y-87676000D03*
%TO.N,/D8*%
X43806000Y-61006000D03*
X55236000Y-71166000D03*
%TO.N,/D7*%
X43806000Y-66086000D03*
X43806000Y-83826000D03*
%TO.N,/D6*%
X43806000Y-71166000D03*
X53966000Y-73706000D03*
%TO.N,/SWDIO*%
X50574006Y-78988200D03*
%TO.N,/D5*%
X54561000Y-81326000D03*
X55236000Y-73706000D03*
X44441000Y-73706000D03*
%TO.N,/D4*%
X40631000Y-83231000D03*
X49521000Y-78786000D03*
%TO.N,/D3*%
X48571301Y-74026303D03*
X45711000Y-74301000D03*
X46765997Y-83231000D03*
X44441000Y-86406000D03*
%TO.N,/D2*%
X50791000Y-83231000D03*
X44441000Y-91486000D03*
%TO.N,/D1*%
X55236000Y-81961000D03*
X44441000Y-96566000D03*
%TO.N,/SCL*%
X65396000Y-77516000D03*
%TO.N,/SDA*%
X65396000Y-76246000D03*
%TO.N,/S1*%
X32376000Y-88311000D03*
X32376000Y-78151000D03*
X32376000Y-73071000D03*
X32376000Y-93391000D03*
X32376000Y-67991000D03*
X33900000Y-97836000D03*
X32376000Y-83231000D03*
X32376000Y-62911000D03*
%TO.N,/S2*%
X37456000Y-93391000D03*
X37456000Y-88311000D03*
X37456000Y-83231000D03*
X37456000Y-62911000D03*
X37456000Y-73071000D03*
X37456000Y-67991000D03*
X37456000Y-78151000D03*
X38980000Y-97836000D03*
%TO.N,/S3*%
X42536000Y-67991000D03*
X44187000Y-97836000D03*
X42536000Y-73071000D03*
X42536000Y-93391000D03*
X42536000Y-62911000D03*
X42536000Y-83231000D03*
X42536000Y-78151000D03*
X42536000Y-88311000D03*
%TO.N,/S4*%
X47616000Y-83231000D03*
X49267000Y-97836000D03*
X47616000Y-93391000D03*
X47616000Y-78151000D03*
X47616000Y-67991000D03*
X47616000Y-88311000D03*
X47616000Y-62911000D03*
X47616000Y-73071000D03*
%TO.N,/S5*%
X52696000Y-78151000D03*
X52696000Y-88311000D03*
X52696000Y-93391000D03*
X52696000Y-83231000D03*
X52696000Y-73071000D03*
X52696000Y-67991000D03*
X54474000Y-97836000D03*
X52696000Y-62911000D03*
%TO.N,/S6*%
X57776000Y-83231000D03*
X59427000Y-97836000D03*
X57776000Y-73071000D03*
X57776000Y-78151000D03*
X57776000Y-67991000D03*
X57776000Y-62911000D03*
X57776000Y-93391000D03*
X57776000Y-88311000D03*
%TO.N,/S7*%
X62856000Y-88311000D03*
X62856000Y-83231000D03*
X62856000Y-62911000D03*
X62856000Y-78151000D03*
X62856000Y-67991000D03*
X62856000Y-73071000D03*
X64507000Y-97836000D03*
X62856000Y-93391000D03*
%TO.N,/S8*%
X67936000Y-67991000D03*
X67936000Y-93391000D03*
X67936000Y-62911000D03*
X67936000Y-78151000D03*
X66285000Y-97836000D03*
X67936000Y-88311000D03*
X67936000Y-83231000D03*
X67936000Y-73071000D03*
%TO.N,/SDA*%
X46404802Y-77352697D03*
%TO.N,/SCL*%
X48530400Y-78125600D03*
%TO.N,/UTX*%
X53371000Y-78814741D03*
%TO.N,/URX*%
X51527600Y-78989200D03*
%TD*%
D14*
%TO.N,VCC*%
X68571000Y-70907500D02*
X68655712Y-70907500D01*
X68571000Y-70907500D02*
X69850000Y-70907500D01*
X68655712Y-70907500D02*
X69850000Y-72101788D01*
X69850000Y-72101788D02*
X69850000Y-73706000D01*
X66924500Y-70907500D02*
X68571000Y-70907500D01*
X69850000Y-70907500D02*
X69850000Y-71166000D01*
X66825798Y-71006202D02*
X66924500Y-70907500D01*
%TO.N,GND*%
X47022000Y-68667000D02*
X45711000Y-67356000D01*
X48288584Y-68667000D02*
X47022000Y-68667000D01*
X48291000Y-68664584D02*
X48288584Y-68667000D01*
%TO.N,Net-(D1-A)*%
X38726000Y-95296000D02*
X67936000Y-95296000D01*
%TO.N,Net-(D57-A)*%
X38726000Y-59736000D02*
X67936000Y-59736000D01*
X39361000Y-61641000D02*
X39361000Y-60371000D01*
X39361000Y-60371000D02*
X38726000Y-59736000D01*
%TO.N,Net-(D49-A)*%
X39361000Y-64816000D02*
X67936000Y-64816000D01*
%TO.N,Net-(D41-A)*%
X32376000Y-69896000D02*
X39361000Y-69896000D01*
%TO.N,Net-(D33-A)*%
X39361000Y-74976000D02*
X67936000Y-74976000D01*
%TO.N,Net-(D25-A)*%
X39361000Y-80056000D02*
X67936000Y-80056000D01*
%TO.N,Net-(D10-A)*%
X38726000Y-90216000D02*
X67936000Y-90216000D01*
%TO.N,VCC*%
X46066697Y-83826000D02*
X46147697Y-83907000D01*
%TO.N,Net-(D1-A)*%
X32336000Y-95296000D02*
X38726000Y-95296000D01*
%TO.N,Net-(D10-A)*%
X32376000Y-90216000D02*
X38726000Y-90216000D01*
%TO.N,/S1*%
X32376000Y-92091000D02*
X32376000Y-93391000D01*
X32376000Y-81931000D02*
X32376000Y-83231000D01*
X32376000Y-76851000D02*
X32376000Y-78151000D01*
X33001000Y-97836000D02*
X32336000Y-97171000D01*
X32376000Y-87011000D02*
X32376000Y-88311000D01*
X32376000Y-66691000D02*
X32376000Y-67991000D01*
X32376000Y-71771000D02*
X32376000Y-73071000D01*
X33900000Y-97836000D02*
X33001000Y-97836000D01*
X32376000Y-61611000D02*
X32376000Y-62911000D01*
X32376000Y-61611000D02*
X32376000Y-61641000D01*
%TO.N,/S2*%
X37456000Y-81931000D02*
X37456000Y-81961000D01*
X37456000Y-61611000D02*
X37456000Y-62911000D01*
X37456000Y-81931000D02*
X37456000Y-83231000D01*
X37456000Y-87011000D02*
X37456000Y-88311000D01*
X37456000Y-76881000D02*
X37456000Y-78151000D01*
X37456000Y-92091000D02*
X37456000Y-92121000D01*
X37456000Y-66691000D02*
X37456000Y-66721000D01*
X37456000Y-71771000D02*
X37456000Y-71801000D01*
X37456000Y-92091000D02*
X37456000Y-93391000D01*
X37426000Y-97171000D02*
X37416000Y-97171000D01*
X37456000Y-66691000D02*
X37456000Y-67991000D01*
X37456000Y-71771000D02*
X37456000Y-73071000D01*
X37456000Y-76851000D02*
X37456000Y-76881000D01*
X38345000Y-97201000D02*
X37456000Y-97201000D01*
X37456000Y-97201000D02*
X37426000Y-97171000D01*
X38980000Y-97836000D02*
X38345000Y-97201000D01*
%TO.N,/S3*%
X42536000Y-92091000D02*
X42536000Y-92121000D01*
X42536000Y-76851000D02*
X42536000Y-78151000D01*
X42536000Y-87011000D02*
X42536000Y-88311000D01*
X42536000Y-92091000D02*
X42536000Y-93391000D01*
X42536000Y-61641000D02*
X42536000Y-62911000D01*
X42536000Y-97171000D02*
X43522000Y-97171000D01*
X42536000Y-61611000D02*
X42536000Y-61641000D01*
X42536000Y-66691000D02*
X42536000Y-67991000D01*
X42536000Y-81931000D02*
X42536000Y-81961000D01*
X42536000Y-76851000D02*
X42536000Y-76881000D01*
X42536000Y-66691000D02*
X42536000Y-66721000D01*
X43522000Y-97171000D02*
X44187000Y-97836000D01*
X42536000Y-71771000D02*
X42536000Y-71801000D01*
X42536000Y-71771000D02*
X42536000Y-73071000D01*
X42536000Y-81931000D02*
X42536000Y-83231000D01*
%TO.N,/S4*%
X47616000Y-92091000D02*
X47616000Y-93391000D01*
X47616000Y-61611000D02*
X47616000Y-61641000D01*
X47616000Y-97171000D02*
X48602000Y-97171000D01*
X47616000Y-76851000D02*
X47616000Y-76881000D01*
X47616000Y-87011000D02*
X47616000Y-88311000D01*
X47616000Y-66691000D02*
X47616000Y-67991000D01*
X47616000Y-71771000D02*
X47616000Y-73071000D01*
X47616000Y-66691000D02*
X47616000Y-66721000D01*
X47616000Y-87011000D02*
X47616000Y-87041000D01*
X48602000Y-97171000D02*
X49267000Y-97836000D01*
X47616000Y-71771000D02*
X47616000Y-71801000D01*
X47616000Y-81931000D02*
X47616000Y-83231000D01*
X47616000Y-92091000D02*
X47616000Y-92121000D01*
X47616000Y-76851000D02*
X47616000Y-78151000D01*
X47616000Y-61611000D02*
X47616000Y-62911000D01*
%TO.N,/S5*%
X52696000Y-66691000D02*
X52696000Y-66721000D01*
X52696000Y-81931000D02*
X52696000Y-83231000D01*
X52696000Y-92091000D02*
X52696000Y-93391000D01*
X52696000Y-61611000D02*
X52696000Y-62911000D01*
X52696000Y-76851000D02*
X52696000Y-78151000D01*
X52696000Y-92091000D02*
X52696000Y-92121000D01*
X52696000Y-76851000D02*
X52696000Y-76881000D01*
X52696000Y-87011000D02*
X52696000Y-88311000D01*
X53809000Y-97171000D02*
X54474000Y-97836000D01*
X52696000Y-97171000D02*
X53809000Y-97171000D01*
X52696000Y-71771000D02*
X52696000Y-71801000D01*
X52696000Y-66691000D02*
X52696000Y-67991000D01*
X52696000Y-81931000D02*
X52696000Y-81961000D01*
X52696000Y-71801000D02*
X52696000Y-73071000D01*
%TO.N,/S6*%
X57776000Y-76851000D02*
X57776000Y-78151000D01*
X57776000Y-87011000D02*
X57776000Y-87041000D01*
X59427000Y-97836000D02*
X58762000Y-97171000D01*
X57776000Y-66691000D02*
X57776000Y-67991000D01*
X57776000Y-81961000D02*
X57776000Y-83231000D01*
X57776000Y-61611000D02*
X57776000Y-62911000D01*
X57776000Y-92121000D02*
X57776000Y-93391000D01*
X57776000Y-81931000D02*
X57776000Y-81961000D01*
X57776000Y-87041000D02*
X57776000Y-88311000D01*
X57776000Y-92091000D02*
X57776000Y-92121000D01*
X57776000Y-66691000D02*
X57776000Y-66721000D01*
X57776000Y-76851000D02*
X57776000Y-76881000D01*
X57776000Y-71771000D02*
X57776000Y-73071000D01*
X58762000Y-97171000D02*
X57776000Y-97171000D01*
%TO.N,/S7*%
X62856000Y-97171000D02*
X62856000Y-97201000D01*
X62856000Y-76881000D02*
X62856000Y-78151000D01*
X62856000Y-92091000D02*
X62856000Y-93391000D01*
X63842000Y-97171000D02*
X64507000Y-97836000D01*
X62856000Y-76851000D02*
X62856000Y-76881000D01*
X62856000Y-92091000D02*
X62856000Y-92121000D01*
X62856000Y-97171000D02*
X63842000Y-97171000D01*
X62856000Y-87041000D02*
X62856000Y-88311000D01*
X62856000Y-71771000D02*
X62856000Y-73071000D01*
X62856000Y-66691000D02*
X62856000Y-67991000D01*
X62856000Y-61611000D02*
X62856000Y-62911000D01*
X62856000Y-81931000D02*
X62856000Y-83231000D01*
X62856000Y-87011000D02*
X62856000Y-87041000D01*
%TO.N,/S8*%
X67936000Y-87011000D02*
X67936000Y-87041000D01*
X67936000Y-66691000D02*
X67936000Y-67991000D01*
X67936000Y-81931000D02*
X67936000Y-83231000D01*
X67936000Y-87011000D02*
X67936000Y-88311000D01*
X67936000Y-97171000D02*
X66950000Y-97171000D01*
X67936000Y-61611000D02*
X67936000Y-62911000D01*
X66950000Y-97171000D02*
X66285000Y-97836000D01*
X67936000Y-92091000D02*
X67936000Y-92121000D01*
X67936000Y-71771000D02*
X67936000Y-73071000D01*
X67936000Y-76851000D02*
X67936000Y-78151000D01*
X67936000Y-92121000D02*
X67936000Y-93391000D01*
%TO.N,Net-(D17-A)*%
X32376000Y-85136000D02*
X67936000Y-85136000D01*
%TO.N,Net-(D25-A)*%
X32376000Y-80056000D02*
X39361000Y-80056000D01*
%TO.N,Net-(D33-A)*%
X32376000Y-74976000D02*
X39361000Y-74976000D01*
%TO.N,Net-(D41-A)*%
X39361000Y-69896000D02*
X67936000Y-69896000D01*
%TO.N,Net-(D49-A)*%
X32376000Y-64816000D02*
X39361000Y-64816000D01*
%TO.N,Net-(D57-A)*%
X32376000Y-59736000D02*
X38726000Y-59736000D01*
%TD*%
%TA.AperFunction,Conductor*%
%TO.N,GND*%
G36*
X69341703Y-82067864D02*
G01*
X69360816Y-82088689D01*
X69413772Y-82161577D01*
X69445896Y-82205792D01*
X69596213Y-82356109D01*
X69768179Y-82481048D01*
X69768181Y-82481049D01*
X69768184Y-82481051D01*
X69957588Y-82577557D01*
X70159757Y-82643246D01*
X70170895Y-82645010D01*
X70234029Y-82674936D01*
X70270962Y-82734245D01*
X70275500Y-82767483D01*
X70275500Y-102591500D01*
X70255815Y-102658539D01*
X70203011Y-102704294D01*
X70151500Y-102715500D01*
X30160500Y-102715500D01*
X30093461Y-102695815D01*
X30047706Y-102643011D01*
X30036500Y-102591500D01*
X30036500Y-100294592D01*
X34089500Y-100294592D01*
X34089500Y-100457407D01*
X34121259Y-100617073D01*
X34121262Y-100617082D01*
X34183562Y-100767490D01*
X34183563Y-100767492D01*
X34274015Y-100902862D01*
X34274018Y-100902866D01*
X34389133Y-101017981D01*
X34389137Y-101017984D01*
X34524505Y-101108435D01*
X34524506Y-101108435D01*
X34524507Y-101108436D01*
X34524509Y-101108437D01*
X34586012Y-101133912D01*
X34674919Y-101170738D01*
X34674921Y-101170738D01*
X34674926Y-101170740D01*
X34834592Y-101202499D01*
X34834595Y-101202500D01*
X34834597Y-101202500D01*
X34997405Y-101202500D01*
X34997406Y-101202499D01*
X35050629Y-101191912D01*
X35157073Y-101170740D01*
X35157076Y-101170738D01*
X35157081Y-101170738D01*
X35307495Y-101108435D01*
X35442863Y-101017984D01*
X35557984Y-100902863D01*
X35648435Y-100767495D01*
X35710738Y-100617081D01*
X35712289Y-100609287D01*
X35742499Y-100457407D01*
X35742500Y-100457405D01*
X35742500Y-100396753D01*
X45885000Y-100396753D01*
X45885000Y-100609246D01*
X45918242Y-100819127D01*
X45918242Y-100819130D01*
X45983904Y-101021217D01*
X46080375Y-101210550D01*
X46119728Y-101264716D01*
X46752037Y-100632408D01*
X46769075Y-100695993D01*
X46834901Y-100810007D01*
X46927993Y-100903099D01*
X47042007Y-100968925D01*
X47105590Y-100985962D01*
X46473282Y-101618269D01*
X46473282Y-101618270D01*
X46527449Y-101657624D01*
X46716782Y-101754095D01*
X46918870Y-101819757D01*
X47128754Y-101853000D01*
X47341246Y-101853000D01*
X47551127Y-101819757D01*
X47551130Y-101819757D01*
X47753217Y-101754095D01*
X47942554Y-101657622D01*
X47996716Y-101618270D01*
X47996717Y-101618270D01*
X47364408Y-100985962D01*
X47427993Y-100968925D01*
X47542007Y-100903099D01*
X47635099Y-100810007D01*
X47700925Y-100695993D01*
X47717962Y-100632408D01*
X48350270Y-101264717D01*
X48350270Y-101264716D01*
X48389622Y-101210555D01*
X48394232Y-101201507D01*
X48442205Y-101150709D01*
X48510025Y-101133912D01*
X48576161Y-101156447D01*
X48615204Y-101201504D01*
X48619949Y-101210817D01*
X48744890Y-101382786D01*
X48895213Y-101533109D01*
X49067179Y-101658048D01*
X49067181Y-101658049D01*
X49067184Y-101658051D01*
X49256588Y-101754557D01*
X49458757Y-101820246D01*
X49668713Y-101853500D01*
X49668714Y-101853500D01*
X49881286Y-101853500D01*
X49881287Y-101853500D01*
X50091243Y-101820246D01*
X50293412Y-101754557D01*
X50482816Y-101658051D01*
X50654792Y-101533104D01*
X50768329Y-101419566D01*
X50829648Y-101386084D01*
X50899340Y-101391068D01*
X50955274Y-101432939D01*
X50972189Y-101463917D01*
X51021202Y-101595328D01*
X51021206Y-101595335D01*
X51107452Y-101710544D01*
X51107455Y-101710547D01*
X51222664Y-101796793D01*
X51222671Y-101796797D01*
X51357517Y-101847091D01*
X51357516Y-101847091D01*
X51364444Y-101847835D01*
X51417127Y-101853500D01*
X53212872Y-101853499D01*
X53272483Y-101847091D01*
X53407331Y-101796796D01*
X53522546Y-101710546D01*
X53608796Y-101595331D01*
X53659091Y-101460483D01*
X53665500Y-101400873D01*
X53665499Y-100294592D01*
X64569500Y-100294592D01*
X64569500Y-100457407D01*
X64601259Y-100617073D01*
X64601262Y-100617082D01*
X64663562Y-100767490D01*
X64663563Y-100767492D01*
X64754015Y-100902862D01*
X64754018Y-100902866D01*
X64869133Y-101017981D01*
X64869137Y-101017984D01*
X65004505Y-101108435D01*
X65004506Y-101108435D01*
X65004507Y-101108436D01*
X65004509Y-101108437D01*
X65066012Y-101133912D01*
X65154919Y-101170738D01*
X65154921Y-101170738D01*
X65154926Y-101170740D01*
X65314592Y-101202499D01*
X65314595Y-101202500D01*
X65314597Y-101202500D01*
X65477405Y-101202500D01*
X65477406Y-101202499D01*
X65530629Y-101191912D01*
X65637073Y-101170740D01*
X65637076Y-101170738D01*
X65637081Y-101170738D01*
X65787495Y-101108435D01*
X65922863Y-101017984D01*
X66037984Y-100902863D01*
X66128435Y-100767495D01*
X66190738Y-100617081D01*
X66192289Y-100609287D01*
X66222499Y-100457407D01*
X66222500Y-100457405D01*
X66222500Y-100294594D01*
X66222499Y-100294592D01*
X66190740Y-100134926D01*
X66190737Y-100134917D01*
X66128437Y-99984509D01*
X66128436Y-99984507D01*
X66037984Y-99849137D01*
X66037981Y-99849133D01*
X65922866Y-99734018D01*
X65922862Y-99734015D01*
X65787492Y-99643563D01*
X65787490Y-99643562D01*
X65637082Y-99581262D01*
X65637073Y-99581259D01*
X65477406Y-99549500D01*
X65477403Y-99549500D01*
X65314597Y-99549500D01*
X65314594Y-99549500D01*
X65154926Y-99581259D01*
X65154917Y-99581262D01*
X65004509Y-99643562D01*
X65004507Y-99643563D01*
X64869137Y-99734015D01*
X64869133Y-99734018D01*
X64754018Y-99849133D01*
X64754015Y-99849137D01*
X64663563Y-99984507D01*
X64663562Y-99984509D01*
X64601262Y-100134917D01*
X64601259Y-100134926D01*
X64569500Y-100294592D01*
X53665499Y-100294592D01*
X53665499Y-99605128D01*
X53659091Y-99545517D01*
X53657810Y-99542083D01*
X53608797Y-99410671D01*
X53608793Y-99410664D01*
X53522547Y-99295455D01*
X53522544Y-99295452D01*
X53407335Y-99209206D01*
X53407328Y-99209202D01*
X53272482Y-99158908D01*
X53272483Y-99158908D01*
X53212883Y-99152501D01*
X53212881Y-99152500D01*
X53212873Y-99152500D01*
X53212864Y-99152500D01*
X51417129Y-99152500D01*
X51417123Y-99152501D01*
X51357516Y-99158908D01*
X51222671Y-99209202D01*
X51222664Y-99209206D01*
X51107455Y-99295452D01*
X51107452Y-99295455D01*
X51021206Y-99410664D01*
X51021203Y-99410669D01*
X50972189Y-99542083D01*
X50930317Y-99598016D01*
X50864853Y-99622433D01*
X50796580Y-99607581D01*
X50768326Y-99586430D01*
X50654786Y-99472890D01*
X50482820Y-99347951D01*
X50293414Y-99251444D01*
X50293413Y-99251443D01*
X50293412Y-99251443D01*
X50091243Y-99185754D01*
X50091241Y-99185753D01*
X50091240Y-99185753D01*
X49929957Y-99160208D01*
X49881287Y-99152500D01*
X49668713Y-99152500D01*
X49620042Y-99160208D01*
X49458760Y-99185753D01*
X49256585Y-99251444D01*
X49067179Y-99347951D01*
X48895213Y-99472890D01*
X48744890Y-99623213D01*
X48619949Y-99795182D01*
X48615202Y-99804499D01*
X48567227Y-99855293D01*
X48499405Y-99872087D01*
X48433271Y-99849548D01*
X48394234Y-99804495D01*
X48389626Y-99795452D01*
X48350270Y-99741282D01*
X48350269Y-99741282D01*
X47717962Y-100373590D01*
X47700925Y-100310007D01*
X47635099Y-100195993D01*
X47542007Y-100102901D01*
X47427993Y-100037075D01*
X47364409Y-100020037D01*
X47996716Y-99387728D01*
X47942550Y-99348375D01*
X47753217Y-99251904D01*
X47551129Y-99186242D01*
X47341246Y-99153000D01*
X47128754Y-99153000D01*
X46918872Y-99186242D01*
X46918869Y-99186242D01*
X46716782Y-99251904D01*
X46527439Y-99348380D01*
X46473282Y-99387727D01*
X46473282Y-99387728D01*
X47105591Y-100020037D01*
X47042007Y-100037075D01*
X46927993Y-100102901D01*
X46834901Y-100195993D01*
X46769075Y-100310007D01*
X46752037Y-100373591D01*
X46119728Y-99741282D01*
X46119727Y-99741282D01*
X46080380Y-99795439D01*
X45983904Y-99984782D01*
X45918242Y-100186869D01*
X45918242Y-100186872D01*
X45885000Y-100396753D01*
X35742500Y-100396753D01*
X35742500Y-100294594D01*
X35742499Y-100294592D01*
X35710740Y-100134926D01*
X35710737Y-100134917D01*
X35648437Y-99984509D01*
X35648436Y-99984507D01*
X35557984Y-99849137D01*
X35557981Y-99849133D01*
X35442866Y-99734018D01*
X35442862Y-99734015D01*
X35307492Y-99643563D01*
X35307490Y-99643562D01*
X35157082Y-99581262D01*
X35157073Y-99581259D01*
X35033120Y-99556604D01*
X35033119Y-99556604D01*
X34997405Y-99549500D01*
X34997403Y-99549500D01*
X34834597Y-99549500D01*
X34834594Y-99549500D01*
X34674926Y-99581259D01*
X34674917Y-99581262D01*
X34524509Y-99643562D01*
X34524507Y-99643563D01*
X34389137Y-99734015D01*
X34389133Y-99734018D01*
X34274018Y-99849133D01*
X34274015Y-99849137D01*
X34183563Y-99984507D01*
X34183562Y-99984509D01*
X34121262Y-100134917D01*
X34121259Y-100134926D01*
X34089500Y-100294592D01*
X30036500Y-100294592D01*
X30036500Y-82767483D01*
X30056185Y-82700444D01*
X30108989Y-82654689D01*
X30141101Y-82645010D01*
X30152243Y-82643246D01*
X30354412Y-82577557D01*
X30543816Y-82481051D01*
X30571055Y-82461261D01*
X30715786Y-82356109D01*
X30715788Y-82356106D01*
X30715792Y-82356104D01*
X30866104Y-82205792D01*
X30951182Y-82088691D01*
X31006511Y-82046026D01*
X31076124Y-82040047D01*
X31137920Y-82072652D01*
X31172277Y-82133491D01*
X31175500Y-82161577D01*
X31175500Y-82224355D01*
X31185913Y-82326276D01*
X31240637Y-82491422D01*
X31240642Y-82491433D01*
X31331971Y-82639499D01*
X31331974Y-82639503D01*
X31454997Y-82762526D01*
X31563133Y-82829225D01*
X31609855Y-82881171D01*
X31621078Y-82950134D01*
X31612597Y-82982210D01*
X31606263Y-82997502D01*
X31606260Y-82997511D01*
X31575500Y-83152153D01*
X31575500Y-83309846D01*
X31606261Y-83464489D01*
X31606264Y-83464501D01*
X31666602Y-83610172D01*
X31666609Y-83610185D01*
X31754210Y-83741288D01*
X31754213Y-83741292D01*
X31865707Y-83852786D01*
X31865711Y-83852789D01*
X31967642Y-83920898D01*
X32012447Y-83974510D01*
X32021154Y-84043835D01*
X31990999Y-84106863D01*
X31931556Y-84143582D01*
X31898751Y-84148000D01*
X31870144Y-84148000D01*
X31768223Y-84158413D01*
X31603077Y-84213137D01*
X31603066Y-84213142D01*
X31455000Y-84304471D01*
X31454996Y-84304474D01*
X31331974Y-84427496D01*
X31331971Y-84427500D01*
X31240642Y-84575566D01*
X31240637Y-84575577D01*
X31185913Y-84740723D01*
X31175500Y-84842644D01*
X31175500Y-85429355D01*
X31185913Y-85531276D01*
X31240637Y-85696422D01*
X31240642Y-85696433D01*
X31331971Y-85844499D01*
X31331974Y-85844503D01*
X31454996Y-85967525D01*
X31455000Y-85967528D01*
X31455703Y-85967962D01*
X31456083Y-85968385D01*
X31460664Y-85972007D01*
X31460045Y-85972789D01*
X31502428Y-86019910D01*
X31513649Y-86088872D01*
X31485806Y-86152954D01*
X31460544Y-86174842D01*
X31460664Y-86174993D01*
X31457315Y-86177640D01*
X31455703Y-86179038D01*
X31455000Y-86179471D01*
X31454996Y-86179474D01*
X31331974Y-86302496D01*
X31331971Y-86302500D01*
X31240642Y-86450566D01*
X31240637Y-86450577D01*
X31185913Y-86615723D01*
X31175500Y-86717644D01*
X31175500Y-87304355D01*
X31185913Y-87406276D01*
X31240637Y-87571422D01*
X31240642Y-87571433D01*
X31331971Y-87719499D01*
X31331974Y-87719503D01*
X31454997Y-87842526D01*
X31563133Y-87909225D01*
X31609855Y-87961171D01*
X31621078Y-88030134D01*
X31612597Y-88062210D01*
X31606263Y-88077502D01*
X31606260Y-88077511D01*
X31575500Y-88232153D01*
X31575500Y-88389846D01*
X31606261Y-88544489D01*
X31606264Y-88544501D01*
X31666602Y-88690172D01*
X31666609Y-88690185D01*
X31754210Y-88821288D01*
X31754213Y-88821292D01*
X31865707Y-88932786D01*
X31865711Y-88932789D01*
X31967642Y-89000898D01*
X32012447Y-89054510D01*
X32021154Y-89123835D01*
X31990999Y-89186863D01*
X31931556Y-89223582D01*
X31898751Y-89228000D01*
X31870144Y-89228000D01*
X31768223Y-89238413D01*
X31603077Y-89293137D01*
X31603066Y-89293142D01*
X31455000Y-89384471D01*
X31454996Y-89384474D01*
X31331974Y-89507496D01*
X31331971Y-89507500D01*
X31240642Y-89655566D01*
X31240637Y-89655577D01*
X31185913Y-89820723D01*
X31175500Y-89922644D01*
X31175500Y-90509355D01*
X31185913Y-90611276D01*
X31240637Y-90776422D01*
X31240642Y-90776433D01*
X31331971Y-90924499D01*
X31331974Y-90924503D01*
X31454996Y-91047525D01*
X31455000Y-91047528D01*
X31455703Y-91047962D01*
X31456083Y-91048385D01*
X31460664Y-91052007D01*
X31460045Y-91052789D01*
X31502428Y-91099910D01*
X31513649Y-91168872D01*
X31485806Y-91232954D01*
X31460544Y-91254842D01*
X31460664Y-91254993D01*
X31457315Y-91257640D01*
X31455703Y-91259038D01*
X31455000Y-91259471D01*
X31454996Y-91259474D01*
X31331974Y-91382496D01*
X31331971Y-91382500D01*
X31240642Y-91530566D01*
X31240637Y-91530577D01*
X31185913Y-91695723D01*
X31175500Y-91797644D01*
X31175500Y-92384355D01*
X31185913Y-92486276D01*
X31240637Y-92651422D01*
X31240642Y-92651433D01*
X31331971Y-92799499D01*
X31331974Y-92799503D01*
X31454997Y-92922526D01*
X31563133Y-92989225D01*
X31609855Y-93041171D01*
X31621078Y-93110134D01*
X31612597Y-93142210D01*
X31606263Y-93157502D01*
X31606260Y-93157511D01*
X31575500Y-93312153D01*
X31575500Y-93469846D01*
X31606261Y-93624489D01*
X31606264Y-93624501D01*
X31666602Y-93770172D01*
X31666609Y-93770185D01*
X31754210Y-93901288D01*
X31754213Y-93901292D01*
X31865707Y-94012786D01*
X31865711Y-94012789D01*
X31967642Y-94080898D01*
X32012447Y-94134510D01*
X32021154Y-94203835D01*
X31990999Y-94266863D01*
X31931556Y-94303582D01*
X31898751Y-94308000D01*
X31830144Y-94308000D01*
X31728223Y-94318413D01*
X31563077Y-94373137D01*
X31563066Y-94373142D01*
X31415000Y-94464471D01*
X31414996Y-94464474D01*
X31291974Y-94587496D01*
X31291971Y-94587500D01*
X31200642Y-94735566D01*
X31200637Y-94735577D01*
X31145913Y-94900723D01*
X31135500Y-95002644D01*
X31135500Y-95589355D01*
X31145913Y-95691276D01*
X31200637Y-95856422D01*
X31200642Y-95856433D01*
X31291971Y-96004499D01*
X31291974Y-96004503D01*
X31414996Y-96127525D01*
X31415000Y-96127528D01*
X31415703Y-96127962D01*
X31416083Y-96128385D01*
X31420664Y-96132007D01*
X31420045Y-96132789D01*
X31462428Y-96179910D01*
X31473649Y-96248872D01*
X31445806Y-96312954D01*
X31420544Y-96334842D01*
X31420664Y-96334993D01*
X31417315Y-96337640D01*
X31415703Y-96339038D01*
X31415000Y-96339471D01*
X31414996Y-96339474D01*
X31291974Y-96462496D01*
X31291971Y-96462500D01*
X31200642Y-96610566D01*
X31200637Y-96610577D01*
X31145913Y-96775723D01*
X31135500Y-96877644D01*
X31135500Y-97464355D01*
X31145913Y-97566276D01*
X31200637Y-97731422D01*
X31200642Y-97731433D01*
X31291971Y-97879499D01*
X31291974Y-97879503D01*
X31414996Y-98002525D01*
X31415000Y-98002528D01*
X31563066Y-98093857D01*
X31563069Y-98093858D01*
X31563075Y-98093862D01*
X31728225Y-98148587D01*
X31830152Y-98159000D01*
X32388048Y-98159000D01*
X32417488Y-98167644D01*
X32447475Y-98174168D01*
X32452490Y-98177922D01*
X32455087Y-98178685D01*
X32475729Y-98195319D01*
X32512016Y-98231606D01*
X32512045Y-98231637D01*
X32602264Y-98321856D01*
X32602267Y-98321858D01*
X32638831Y-98346289D01*
X32704714Y-98390312D01*
X32785207Y-98423652D01*
X32818548Y-98437463D01*
X32878971Y-98449481D01*
X32939393Y-98461500D01*
X32939394Y-98461500D01*
X33357650Y-98461500D01*
X33424689Y-98481185D01*
X33426541Y-98482398D01*
X33520821Y-98545394D01*
X33520823Y-98545395D01*
X33520827Y-98545397D01*
X33666498Y-98605735D01*
X33666503Y-98605737D01*
X33821153Y-98636499D01*
X33821156Y-98636500D01*
X33821158Y-98636500D01*
X33978844Y-98636500D01*
X33978845Y-98636499D01*
X34133497Y-98605737D01*
X34279179Y-98545394D01*
X34410289Y-98457789D01*
X34521789Y-98346289D01*
X34609394Y-98215179D01*
X34669737Y-98069497D01*
X34700500Y-97914842D01*
X34700500Y-97757158D01*
X34700500Y-97757155D01*
X34700499Y-97757153D01*
X34695381Y-97731422D01*
X34669737Y-97602503D01*
X34669735Y-97602498D01*
X34609397Y-97456827D01*
X34609390Y-97456814D01*
X34521789Y-97325711D01*
X34521786Y-97325707D01*
X34410292Y-97214213D01*
X34410288Y-97214210D01*
X34279185Y-97126609D01*
X34279172Y-97126602D01*
X34133501Y-97066264D01*
X34133489Y-97066261D01*
X33978845Y-97035500D01*
X33978842Y-97035500D01*
X33821158Y-97035500D01*
X33821153Y-97035500D01*
X33684691Y-97062644D01*
X33615099Y-97056417D01*
X33559922Y-97013554D01*
X33536678Y-96947664D01*
X33536500Y-96941027D01*
X33536500Y-96877657D01*
X33536499Y-96877644D01*
X33526087Y-96775725D01*
X33471362Y-96610575D01*
X33471358Y-96610569D01*
X33471357Y-96610566D01*
X33380028Y-96462500D01*
X33380025Y-96462496D01*
X33257004Y-96339475D01*
X33257003Y-96339474D01*
X33256301Y-96339041D01*
X33255921Y-96338618D01*
X33251336Y-96334993D01*
X33251955Y-96334209D01*
X33209575Y-96287098D01*
X33198349Y-96218136D01*
X33226188Y-96154052D01*
X33251455Y-96132157D01*
X33251336Y-96132007D01*
X33254687Y-96129356D01*
X33256299Y-96127959D01*
X33257003Y-96127526D01*
X33380026Y-96004503D01*
X33394891Y-95980403D01*
X33446837Y-95933679D01*
X33500429Y-95921500D01*
X36251571Y-95921500D01*
X36318610Y-95941185D01*
X36357110Y-95980404D01*
X36371973Y-96004502D01*
X36494996Y-96127525D01*
X36495000Y-96127528D01*
X36495703Y-96127962D01*
X36496083Y-96128385D01*
X36500664Y-96132007D01*
X36500045Y-96132789D01*
X36542428Y-96179910D01*
X36553649Y-96248872D01*
X36525806Y-96312954D01*
X36500544Y-96334842D01*
X36500664Y-96334993D01*
X36497315Y-96337640D01*
X36495703Y-96339038D01*
X36495000Y-96339471D01*
X36494996Y-96339474D01*
X36371974Y-96462496D01*
X36371971Y-96462500D01*
X36280642Y-96610566D01*
X36280637Y-96610577D01*
X36225913Y-96775723D01*
X36215500Y-96877644D01*
X36215500Y-97464355D01*
X36225913Y-97566276D01*
X36280637Y-97731422D01*
X36280642Y-97731433D01*
X36371971Y-97879499D01*
X36371974Y-97879503D01*
X36494996Y-98002525D01*
X36495000Y-98002528D01*
X36643066Y-98093857D01*
X36643069Y-98093858D01*
X36643075Y-98093862D01*
X36808225Y-98148587D01*
X36910152Y-98159000D01*
X36910157Y-98159000D01*
X37921843Y-98159000D01*
X37921848Y-98159000D01*
X38023775Y-98148587D01*
X38107118Y-98120969D01*
X38176946Y-98118568D01*
X38236988Y-98154300D01*
X38260683Y-98191224D01*
X38270602Y-98215172D01*
X38270609Y-98215185D01*
X38358210Y-98346288D01*
X38358213Y-98346292D01*
X38469707Y-98457786D01*
X38469711Y-98457789D01*
X38600814Y-98545390D01*
X38600827Y-98545397D01*
X38746498Y-98605735D01*
X38746503Y-98605737D01*
X38901153Y-98636499D01*
X38901156Y-98636500D01*
X38901158Y-98636500D01*
X39058844Y-98636500D01*
X39058845Y-98636499D01*
X39213497Y-98605737D01*
X39359179Y-98545394D01*
X39490289Y-98457789D01*
X39601789Y-98346289D01*
X39689394Y-98215179D01*
X39749737Y-98069497D01*
X39780500Y-97914842D01*
X39780500Y-97757158D01*
X39780500Y-97757155D01*
X39780499Y-97757153D01*
X39775381Y-97731422D01*
X39749737Y-97602503D01*
X39749735Y-97602498D01*
X39689397Y-97456827D01*
X39689390Y-97456814D01*
X39601789Y-97325711D01*
X39601786Y-97325707D01*
X39490292Y-97214213D01*
X39490288Y-97214210D01*
X39359185Y-97126609D01*
X39359172Y-97126602D01*
X39213501Y-97066264D01*
X39213489Y-97066261D01*
X39102285Y-97044141D01*
X39040374Y-97011756D01*
X39038795Y-97010205D01*
X38840822Y-96812232D01*
X38830859Y-96802269D01*
X38830858Y-96802267D01*
X38743733Y-96715142D01*
X38692509Y-96680915D01*
X38641286Y-96646688D01*
X38587459Y-96624392D01*
X38533057Y-96580553D01*
X38529394Y-96574960D01*
X38460026Y-96462497D01*
X38337003Y-96339474D01*
X38336301Y-96339041D01*
X38335921Y-96338618D01*
X38331336Y-96334993D01*
X38331955Y-96334209D01*
X38289575Y-96287098D01*
X38278349Y-96218136D01*
X38306188Y-96154052D01*
X38318035Y-96141699D01*
X38326527Y-96133987D01*
X38337003Y-96127526D01*
X38370170Y-96094358D01*
X38372371Y-96092360D01*
X38401228Y-96078361D01*
X38429368Y-96062996D01*
X38432634Y-96063127D01*
X38435235Y-96061866D01*
X38452321Y-96063918D01*
X38486381Y-96065287D01*
X38486528Y-96064549D01*
X38491220Y-96065482D01*
X38491732Y-96065503D01*
X38492498Y-96065735D01*
X38492503Y-96065737D01*
X38492507Y-96065737D01*
X38492508Y-96065738D01*
X38647153Y-96096499D01*
X38647156Y-96096500D01*
X38647158Y-96096500D01*
X38804844Y-96096500D01*
X38804845Y-96096499D01*
X38959497Y-96065737D01*
X39105179Y-96005394D01*
X39199459Y-95942398D01*
X39266136Y-95921520D01*
X39268350Y-95921500D01*
X41371571Y-95921500D01*
X41438610Y-95941185D01*
X41477110Y-95980404D01*
X41491973Y-96004502D01*
X41614996Y-96127525D01*
X41615000Y-96127528D01*
X41615703Y-96127962D01*
X41616083Y-96128385D01*
X41620664Y-96132007D01*
X41620045Y-96132789D01*
X41662428Y-96179910D01*
X41673649Y-96248872D01*
X41645806Y-96312954D01*
X41620544Y-96334842D01*
X41620664Y-96334993D01*
X41617315Y-96337640D01*
X41615703Y-96339038D01*
X41615000Y-96339471D01*
X41614996Y-96339474D01*
X41491974Y-96462496D01*
X41491971Y-96462500D01*
X41400642Y-96610566D01*
X41400637Y-96610577D01*
X41345913Y-96775723D01*
X41335500Y-96877644D01*
X41335500Y-97464355D01*
X41345913Y-97566276D01*
X41400637Y-97731422D01*
X41400642Y-97731433D01*
X41491971Y-97879499D01*
X41491974Y-97879503D01*
X41614996Y-98002525D01*
X41615000Y-98002528D01*
X41763066Y-98093857D01*
X41763069Y-98093858D01*
X41763075Y-98093862D01*
X41928225Y-98148587D01*
X42030152Y-98159000D01*
X42030157Y-98159000D01*
X43041843Y-98159000D01*
X43041848Y-98159000D01*
X43143775Y-98148587D01*
X43303619Y-98095619D01*
X43373445Y-98093218D01*
X43433487Y-98128950D01*
X43457182Y-98165872D01*
X43462490Y-98178685D01*
X43477603Y-98215172D01*
X43477606Y-98215178D01*
X43477609Y-98215185D01*
X43565210Y-98346288D01*
X43565213Y-98346292D01*
X43676707Y-98457786D01*
X43676711Y-98457789D01*
X43807814Y-98545390D01*
X43807827Y-98545397D01*
X43953498Y-98605735D01*
X43953503Y-98605737D01*
X44108153Y-98636499D01*
X44108156Y-98636500D01*
X44108158Y-98636500D01*
X44265844Y-98636500D01*
X44265845Y-98636499D01*
X44420497Y-98605737D01*
X44566179Y-98545394D01*
X44697289Y-98457789D01*
X44808789Y-98346289D01*
X44896394Y-98215179D01*
X44956737Y-98069497D01*
X44987500Y-97914842D01*
X44987500Y-97757158D01*
X44987500Y-97757155D01*
X44987499Y-97757153D01*
X44982381Y-97731422D01*
X44956737Y-97602503D01*
X44956735Y-97602498D01*
X44896397Y-97456827D01*
X44896390Y-97456814D01*
X44857952Y-97399288D01*
X44837074Y-97332611D01*
X44855558Y-97265231D01*
X44892160Y-97227297D01*
X44951289Y-97187789D01*
X45062789Y-97076289D01*
X45150394Y-96945179D01*
X45210737Y-96799497D01*
X45241500Y-96644842D01*
X45241500Y-96487158D01*
X45241500Y-96487155D01*
X45241499Y-96487153D01*
X45236594Y-96462495D01*
X45210737Y-96332503D01*
X45163365Y-96218136D01*
X45150397Y-96186827D01*
X45150390Y-96186814D01*
X45101998Y-96114391D01*
X45081120Y-96047714D01*
X45099604Y-95980334D01*
X45151583Y-95933643D01*
X45205100Y-95921500D01*
X46451571Y-95921500D01*
X46518610Y-95941185D01*
X46557110Y-95980404D01*
X46571973Y-96004502D01*
X46694996Y-96127525D01*
X46695000Y-96127528D01*
X46695703Y-96127962D01*
X46696083Y-96128385D01*
X46700664Y-96132007D01*
X46700045Y-96132789D01*
X46742428Y-96179910D01*
X46753649Y-96248872D01*
X46725806Y-96312954D01*
X46700544Y-96334842D01*
X46700664Y-96334993D01*
X46697315Y-96337640D01*
X46695703Y-96339038D01*
X46695000Y-96339471D01*
X46694996Y-96339474D01*
X46571974Y-96462496D01*
X46571971Y-96462500D01*
X46480642Y-96610566D01*
X46480637Y-96610577D01*
X46425913Y-96775723D01*
X46415500Y-96877644D01*
X46415500Y-97464355D01*
X46425913Y-97566276D01*
X46480637Y-97731422D01*
X46480642Y-97731433D01*
X46571971Y-97879499D01*
X46571974Y-97879503D01*
X46694996Y-98002525D01*
X46695000Y-98002528D01*
X46843066Y-98093857D01*
X46843069Y-98093858D01*
X46843075Y-98093862D01*
X47008225Y-98148587D01*
X47110152Y-98159000D01*
X47110157Y-98159000D01*
X48121843Y-98159000D01*
X48121848Y-98159000D01*
X48223775Y-98148587D01*
X48383619Y-98095619D01*
X48453445Y-98093218D01*
X48513487Y-98128950D01*
X48537182Y-98165872D01*
X48542490Y-98178685D01*
X48557603Y-98215172D01*
X48557606Y-98215178D01*
X48557609Y-98215185D01*
X48645210Y-98346288D01*
X48645213Y-98346292D01*
X48756707Y-98457786D01*
X48756711Y-98457789D01*
X48887814Y-98545390D01*
X48887827Y-98545397D01*
X49033498Y-98605735D01*
X49033503Y-98605737D01*
X49188153Y-98636499D01*
X49188156Y-98636500D01*
X49188158Y-98636500D01*
X49345844Y-98636500D01*
X49345845Y-98636499D01*
X49500497Y-98605737D01*
X49646179Y-98545394D01*
X49777289Y-98457789D01*
X49888789Y-98346289D01*
X49976394Y-98215179D01*
X50036737Y-98069497D01*
X50067500Y-97914842D01*
X50067500Y-97757158D01*
X50067500Y-97757155D01*
X50067499Y-97757153D01*
X50062381Y-97731422D01*
X50036737Y-97602503D01*
X50036735Y-97602498D01*
X49976397Y-97456827D01*
X49976390Y-97456814D01*
X49888789Y-97325711D01*
X49888786Y-97325707D01*
X49777292Y-97214213D01*
X49777288Y-97214210D01*
X49646185Y-97126609D01*
X49646172Y-97126602D01*
X49500501Y-97066264D01*
X49500489Y-97066261D01*
X49389285Y-97044141D01*
X49327374Y-97011756D01*
X49325795Y-97010205D01*
X49092198Y-96776608D01*
X49092178Y-96776586D01*
X49000736Y-96685144D01*
X49000728Y-96685138D01*
X48925748Y-96635038D01*
X48925746Y-96635037D01*
X48918311Y-96630069D01*
X48898286Y-96616688D01*
X48817792Y-96583347D01*
X48814786Y-96582101D01*
X48814780Y-96582099D01*
X48784452Y-96569537D01*
X48784449Y-96569536D01*
X48770865Y-96566834D01*
X48708955Y-96534447D01*
X48689521Y-96510315D01*
X48660026Y-96462497D01*
X48537004Y-96339475D01*
X48537003Y-96339474D01*
X48536301Y-96339041D01*
X48535921Y-96338618D01*
X48531336Y-96334993D01*
X48531955Y-96334209D01*
X48489575Y-96287098D01*
X48478349Y-96218136D01*
X48506188Y-96154052D01*
X48531455Y-96132157D01*
X48531336Y-96132007D01*
X48534687Y-96129356D01*
X48536299Y-96127959D01*
X48537003Y-96127526D01*
X48660026Y-96004503D01*
X48674891Y-95980403D01*
X48726837Y-95933679D01*
X48780429Y-95921500D01*
X51531571Y-95921500D01*
X51598610Y-95941185D01*
X51637110Y-95980404D01*
X51651973Y-96004502D01*
X51774996Y-96127525D01*
X51775000Y-96127528D01*
X51775703Y-96127962D01*
X51776083Y-96128385D01*
X51780664Y-96132007D01*
X51780045Y-96132789D01*
X51822428Y-96179910D01*
X51833649Y-96248872D01*
X51805806Y-96312954D01*
X51780544Y-96334842D01*
X51780664Y-96334993D01*
X51777315Y-96337640D01*
X51775703Y-96339038D01*
X51775000Y-96339471D01*
X51774996Y-96339474D01*
X51651974Y-96462496D01*
X51651971Y-96462500D01*
X51560642Y-96610566D01*
X51560637Y-96610577D01*
X51505913Y-96775723D01*
X51495500Y-96877644D01*
X51495500Y-97464355D01*
X51505913Y-97566276D01*
X51560637Y-97731422D01*
X51560642Y-97731433D01*
X51651971Y-97879499D01*
X51651974Y-97879503D01*
X51774996Y-98002525D01*
X51775000Y-98002528D01*
X51923066Y-98093857D01*
X51923069Y-98093858D01*
X51923075Y-98093862D01*
X52088225Y-98148587D01*
X52190152Y-98159000D01*
X52190157Y-98159000D01*
X53201843Y-98159000D01*
X53201848Y-98159000D01*
X53303775Y-98148587D01*
X53468925Y-98093862D01*
X53540478Y-98049727D01*
X53607867Y-98031287D01*
X53674531Y-98052209D01*
X53719301Y-98105850D01*
X53720134Y-98107814D01*
X53764602Y-98215172D01*
X53764609Y-98215185D01*
X53852210Y-98346288D01*
X53852213Y-98346292D01*
X53963707Y-98457786D01*
X53963711Y-98457789D01*
X54094814Y-98545390D01*
X54094827Y-98545397D01*
X54240498Y-98605735D01*
X54240503Y-98605737D01*
X54395153Y-98636499D01*
X54395156Y-98636500D01*
X54395158Y-98636500D01*
X54552844Y-98636500D01*
X54552845Y-98636499D01*
X54707497Y-98605737D01*
X54853179Y-98545394D01*
X54984289Y-98457789D01*
X55095789Y-98346289D01*
X55183394Y-98215179D01*
X55243737Y-98069497D01*
X55274500Y-97914842D01*
X55274500Y-97757158D01*
X55274500Y-97757155D01*
X55274499Y-97757153D01*
X55269381Y-97731422D01*
X55243737Y-97602503D01*
X55243735Y-97602498D01*
X55183397Y-97456827D01*
X55183390Y-97456814D01*
X55095789Y-97325711D01*
X55095786Y-97325707D01*
X54984292Y-97214213D01*
X54984288Y-97214210D01*
X54853185Y-97126609D01*
X54853172Y-97126602D01*
X54707501Y-97066264D01*
X54707489Y-97066261D01*
X54596285Y-97044141D01*
X54534374Y-97011756D01*
X54532795Y-97010205D01*
X54299198Y-96776608D01*
X54299178Y-96776586D01*
X54207736Y-96685144D01*
X54207728Y-96685138D01*
X54132748Y-96635038D01*
X54132746Y-96635037D01*
X54125311Y-96630069D01*
X54105286Y-96616688D01*
X54024792Y-96583347D01*
X54021786Y-96582101D01*
X54021780Y-96582099D01*
X53991453Y-96569537D01*
X53961954Y-96563669D01*
X53931029Y-96557518D01*
X53870607Y-96545500D01*
X53870606Y-96545500D01*
X53851066Y-96545500D01*
X53841804Y-96544093D01*
X53818285Y-96533125D01*
X53793390Y-96525815D01*
X53785605Y-96517884D01*
X53778482Y-96514563D01*
X53771518Y-96503534D01*
X53754890Y-96486596D01*
X53740026Y-96462497D01*
X53617004Y-96339475D01*
X53617003Y-96339474D01*
X53616301Y-96339041D01*
X53615921Y-96338618D01*
X53611336Y-96334993D01*
X53611955Y-96334209D01*
X53569575Y-96287098D01*
X53558349Y-96218136D01*
X53586188Y-96154052D01*
X53611455Y-96132157D01*
X53611336Y-96132007D01*
X53614687Y-96129356D01*
X53616299Y-96127959D01*
X53617003Y-96127526D01*
X53740026Y-96004503D01*
X53754891Y-95980403D01*
X53806837Y-95933679D01*
X53860429Y-95921500D01*
X56611571Y-95921500D01*
X56678610Y-95941185D01*
X56717110Y-95980404D01*
X56731973Y-96004502D01*
X56854996Y-96127525D01*
X56855000Y-96127528D01*
X56855703Y-96127962D01*
X56856083Y-96128385D01*
X56860664Y-96132007D01*
X56860045Y-96132789D01*
X56902428Y-96179910D01*
X56913649Y-96248872D01*
X56885806Y-96312954D01*
X56860544Y-96334842D01*
X56860664Y-96334993D01*
X56857315Y-96337640D01*
X56855703Y-96339038D01*
X56855000Y-96339471D01*
X56854996Y-96339474D01*
X56731974Y-96462496D01*
X56731971Y-96462500D01*
X56640642Y-96610566D01*
X56640637Y-96610577D01*
X56585913Y-96775723D01*
X56575500Y-96877644D01*
X56575500Y-97464355D01*
X56585913Y-97566276D01*
X56640637Y-97731422D01*
X56640642Y-97731433D01*
X56731971Y-97879499D01*
X56731974Y-97879503D01*
X56854996Y-98002525D01*
X56855000Y-98002528D01*
X57003066Y-98093857D01*
X57003069Y-98093858D01*
X57003075Y-98093862D01*
X57168225Y-98148587D01*
X57270152Y-98159000D01*
X57270157Y-98159000D01*
X58281843Y-98159000D01*
X58281848Y-98159000D01*
X58383775Y-98148587D01*
X58543619Y-98095619D01*
X58613445Y-98093218D01*
X58673487Y-98128950D01*
X58697182Y-98165872D01*
X58702490Y-98178685D01*
X58717603Y-98215172D01*
X58717606Y-98215178D01*
X58717609Y-98215185D01*
X58805210Y-98346288D01*
X58805213Y-98346292D01*
X58916707Y-98457786D01*
X58916711Y-98457789D01*
X59047814Y-98545390D01*
X59047827Y-98545397D01*
X59193498Y-98605735D01*
X59193503Y-98605737D01*
X59348153Y-98636499D01*
X59348156Y-98636500D01*
X59348158Y-98636500D01*
X59505844Y-98636500D01*
X59505845Y-98636499D01*
X59660497Y-98605737D01*
X59806179Y-98545394D01*
X59937289Y-98457789D01*
X60048789Y-98346289D01*
X60136394Y-98215179D01*
X60196737Y-98069497D01*
X60227500Y-97914842D01*
X60227500Y-97757158D01*
X60227500Y-97757155D01*
X60227499Y-97757153D01*
X60222381Y-97731422D01*
X60196737Y-97602503D01*
X60196735Y-97602498D01*
X60136397Y-97456827D01*
X60136390Y-97456814D01*
X60048789Y-97325711D01*
X60048786Y-97325707D01*
X59937292Y-97214213D01*
X59937288Y-97214210D01*
X59806185Y-97126609D01*
X59806172Y-97126602D01*
X59660501Y-97066264D01*
X59660489Y-97066261D01*
X59549285Y-97044141D01*
X59487374Y-97011756D01*
X59485795Y-97010205D01*
X59252198Y-96776608D01*
X59252178Y-96776586D01*
X59160736Y-96685144D01*
X59160728Y-96685138D01*
X59085748Y-96635038D01*
X59085746Y-96635037D01*
X59078311Y-96630069D01*
X59058286Y-96616688D01*
X58977792Y-96583347D01*
X58974786Y-96582101D01*
X58974780Y-96582099D01*
X58944452Y-96569537D01*
X58944449Y-96569536D01*
X58930865Y-96566834D01*
X58868955Y-96534447D01*
X58849521Y-96510315D01*
X58820026Y-96462497D01*
X58697004Y-96339475D01*
X58697003Y-96339474D01*
X58696301Y-96339041D01*
X58695921Y-96338618D01*
X58691336Y-96334993D01*
X58691955Y-96334209D01*
X58649575Y-96287098D01*
X58638349Y-96218136D01*
X58666188Y-96154052D01*
X58691455Y-96132157D01*
X58691336Y-96132007D01*
X58694687Y-96129356D01*
X58696299Y-96127959D01*
X58697003Y-96127526D01*
X58820026Y-96004503D01*
X58834891Y-95980403D01*
X58886837Y-95933679D01*
X58940429Y-95921500D01*
X61691571Y-95921500D01*
X61758610Y-95941185D01*
X61797110Y-95980404D01*
X61811973Y-96004502D01*
X61934996Y-96127525D01*
X61935000Y-96127528D01*
X61935703Y-96127962D01*
X61936083Y-96128385D01*
X61940664Y-96132007D01*
X61940045Y-96132789D01*
X61982428Y-96179910D01*
X61993649Y-96248872D01*
X61965806Y-96312954D01*
X61940544Y-96334842D01*
X61940664Y-96334993D01*
X61937315Y-96337640D01*
X61935703Y-96339038D01*
X61935000Y-96339471D01*
X61934996Y-96339474D01*
X61811974Y-96462496D01*
X61811971Y-96462500D01*
X61720642Y-96610566D01*
X61720637Y-96610577D01*
X61665913Y-96775723D01*
X61655500Y-96877644D01*
X61655500Y-97464355D01*
X61665913Y-97566276D01*
X61720637Y-97731422D01*
X61720642Y-97731433D01*
X61811971Y-97879499D01*
X61811974Y-97879503D01*
X61934996Y-98002525D01*
X61935000Y-98002528D01*
X62083066Y-98093857D01*
X62083069Y-98093858D01*
X62083075Y-98093862D01*
X62248225Y-98148587D01*
X62350152Y-98159000D01*
X62350157Y-98159000D01*
X63361843Y-98159000D01*
X63361848Y-98159000D01*
X63463775Y-98148587D01*
X63623619Y-98095619D01*
X63693445Y-98093218D01*
X63753487Y-98128950D01*
X63777182Y-98165872D01*
X63782490Y-98178685D01*
X63797603Y-98215172D01*
X63797606Y-98215178D01*
X63797609Y-98215185D01*
X63885210Y-98346288D01*
X63885213Y-98346292D01*
X63996707Y-98457786D01*
X63996711Y-98457789D01*
X64127814Y-98545390D01*
X64127827Y-98545397D01*
X64273498Y-98605735D01*
X64273503Y-98605737D01*
X64428153Y-98636499D01*
X64428156Y-98636500D01*
X64428158Y-98636500D01*
X64585844Y-98636500D01*
X64585845Y-98636499D01*
X64740497Y-98605737D01*
X64886179Y-98545394D01*
X65017289Y-98457789D01*
X65128789Y-98346289D01*
X65216394Y-98215179D01*
X65236084Y-98167644D01*
X65276737Y-98069497D01*
X65277340Y-98067510D01*
X65277938Y-98066596D01*
X65279068Y-98063870D01*
X65279585Y-98064084D01*
X65315637Y-98009072D01*
X65379450Y-97980615D01*
X65448517Y-97991176D01*
X65500910Y-98037401D01*
X65514660Y-98067510D01*
X65515262Y-98069497D01*
X65575602Y-98215172D01*
X65575609Y-98215185D01*
X65663210Y-98346288D01*
X65663213Y-98346292D01*
X65774707Y-98457786D01*
X65774711Y-98457789D01*
X65905814Y-98545390D01*
X65905827Y-98545397D01*
X66051498Y-98605735D01*
X66051503Y-98605737D01*
X66206153Y-98636499D01*
X66206156Y-98636500D01*
X66206158Y-98636500D01*
X66363844Y-98636500D01*
X66363845Y-98636499D01*
X66518497Y-98605737D01*
X66664179Y-98545394D01*
X66795289Y-98457789D01*
X66906789Y-98346289D01*
X66994394Y-98215179D01*
X67002620Y-98195319D01*
X67014817Y-98165874D01*
X67058657Y-98111470D01*
X67124951Y-98089405D01*
X67168379Y-98095619D01*
X67328225Y-98148587D01*
X67430152Y-98159000D01*
X67430157Y-98159000D01*
X68441843Y-98159000D01*
X68441848Y-98159000D01*
X68543775Y-98148587D01*
X68708925Y-98093862D01*
X68857003Y-98002526D01*
X68980026Y-97879503D01*
X69071362Y-97731425D01*
X69126087Y-97566275D01*
X69136500Y-97464348D01*
X69136500Y-96877652D01*
X69126087Y-96775725D01*
X69071362Y-96610575D01*
X69071358Y-96610569D01*
X69071357Y-96610566D01*
X68980028Y-96462500D01*
X68980025Y-96462496D01*
X68857004Y-96339475D01*
X68857003Y-96339474D01*
X68856301Y-96339041D01*
X68855921Y-96338618D01*
X68851336Y-96334993D01*
X68851955Y-96334209D01*
X68809575Y-96287098D01*
X68798349Y-96218136D01*
X68826188Y-96154052D01*
X68851455Y-96132157D01*
X68851336Y-96132007D01*
X68854687Y-96129356D01*
X68856299Y-96127959D01*
X68857003Y-96127526D01*
X68980026Y-96004503D01*
X69071362Y-95856425D01*
X69126087Y-95691275D01*
X69136500Y-95589348D01*
X69136500Y-95002652D01*
X69126087Y-94900725D01*
X69071362Y-94735575D01*
X69071358Y-94735569D01*
X69071357Y-94735566D01*
X68980028Y-94587500D01*
X68980025Y-94587496D01*
X68857003Y-94464474D01*
X68856999Y-94464471D01*
X68708933Y-94373142D01*
X68708927Y-94373139D01*
X68708925Y-94373138D01*
X68708922Y-94373137D01*
X68543776Y-94318413D01*
X68441855Y-94308000D01*
X68441848Y-94308000D01*
X68413249Y-94308000D01*
X68346210Y-94288315D01*
X68300455Y-94235511D01*
X68290511Y-94166353D01*
X68319536Y-94102797D01*
X68344358Y-94080898D01*
X68400102Y-94043650D01*
X68446289Y-94012789D01*
X68557789Y-93901289D01*
X68645394Y-93770179D01*
X68705737Y-93624497D01*
X68736500Y-93469842D01*
X68736500Y-93312158D01*
X68736500Y-93312155D01*
X68736499Y-93312153D01*
X68727376Y-93266288D01*
X68705737Y-93157503D01*
X68699405Y-93142216D01*
X68691935Y-93072747D01*
X68723209Y-93010267D01*
X68748863Y-92989227D01*
X68857003Y-92922526D01*
X68980026Y-92799503D01*
X69071362Y-92651425D01*
X69126087Y-92486275D01*
X69136500Y-92384348D01*
X69136500Y-91797652D01*
X69126087Y-91695725D01*
X69071362Y-91530575D01*
X69071358Y-91530569D01*
X69071357Y-91530566D01*
X68980028Y-91382500D01*
X68980025Y-91382496D01*
X68857004Y-91259475D01*
X68857003Y-91259474D01*
X68856301Y-91259041D01*
X68855921Y-91258618D01*
X68851336Y-91254993D01*
X68851955Y-91254209D01*
X68809575Y-91207098D01*
X68798349Y-91138136D01*
X68826188Y-91074052D01*
X68851455Y-91052157D01*
X68851336Y-91052007D01*
X68854687Y-91049356D01*
X68856299Y-91047959D01*
X68857003Y-91047526D01*
X68980026Y-90924503D01*
X69071362Y-90776425D01*
X69126087Y-90611275D01*
X69136500Y-90509348D01*
X69136500Y-89922652D01*
X69126087Y-89820725D01*
X69071362Y-89655575D01*
X69071358Y-89655569D01*
X69071357Y-89655566D01*
X68980028Y-89507500D01*
X68980025Y-89507496D01*
X68857003Y-89384474D01*
X68856999Y-89384471D01*
X68708933Y-89293142D01*
X68708927Y-89293139D01*
X68708925Y-89293138D01*
X68708922Y-89293137D01*
X68543776Y-89238413D01*
X68441855Y-89228000D01*
X68441848Y-89228000D01*
X68413249Y-89228000D01*
X68346210Y-89208315D01*
X68300455Y-89155511D01*
X68290511Y-89086353D01*
X68319536Y-89022797D01*
X68344358Y-89000898D01*
X68400102Y-88963650D01*
X68446289Y-88932789D01*
X68557789Y-88821289D01*
X68645394Y-88690179D01*
X68705737Y-88544497D01*
X68736500Y-88389842D01*
X68736500Y-88232158D01*
X68736500Y-88232155D01*
X68736499Y-88232153D01*
X68705737Y-88077503D01*
X68699405Y-88062216D01*
X68691935Y-87992747D01*
X68723209Y-87930267D01*
X68748863Y-87909227D01*
X68857003Y-87842526D01*
X68980026Y-87719503D01*
X69071362Y-87571425D01*
X69126087Y-87406275D01*
X69136500Y-87304348D01*
X69136500Y-86717652D01*
X69126087Y-86615725D01*
X69071362Y-86450575D01*
X69071358Y-86450569D01*
X69071357Y-86450566D01*
X68980028Y-86302500D01*
X68980025Y-86302496D01*
X68857004Y-86179475D01*
X68857003Y-86179474D01*
X68856301Y-86179041D01*
X68855921Y-86178618D01*
X68851336Y-86174993D01*
X68851955Y-86174209D01*
X68809575Y-86127098D01*
X68798349Y-86058136D01*
X68826188Y-85994052D01*
X68851455Y-85972157D01*
X68851336Y-85972007D01*
X68854687Y-85969356D01*
X68856299Y-85967959D01*
X68857003Y-85967526D01*
X68980026Y-85844503D01*
X69071362Y-85696425D01*
X69126087Y-85531275D01*
X69136500Y-85429348D01*
X69136500Y-84842652D01*
X69126087Y-84740725D01*
X69071362Y-84575575D01*
X69071358Y-84575569D01*
X69071357Y-84575566D01*
X68980028Y-84427500D01*
X68980025Y-84427496D01*
X68857003Y-84304474D01*
X68856999Y-84304471D01*
X68708933Y-84213142D01*
X68708927Y-84213139D01*
X68708925Y-84213138D01*
X68684885Y-84205172D01*
X68543776Y-84158413D01*
X68441855Y-84148000D01*
X68441848Y-84148000D01*
X68413249Y-84148000D01*
X68346210Y-84128315D01*
X68300455Y-84075511D01*
X68290511Y-84006353D01*
X68319536Y-83942797D01*
X68344358Y-83920898D01*
X68400102Y-83883650D01*
X68446289Y-83852789D01*
X68557789Y-83741289D01*
X68645394Y-83610179D01*
X68705737Y-83464497D01*
X68736500Y-83309842D01*
X68736500Y-83152158D01*
X68736500Y-83152155D01*
X68736499Y-83152153D01*
X68717425Y-83056261D01*
X68705737Y-82997503D01*
X68699405Y-82982216D01*
X68691935Y-82912747D01*
X68723209Y-82850267D01*
X68748863Y-82829227D01*
X68857003Y-82762526D01*
X68980026Y-82639503D01*
X69071362Y-82491425D01*
X69126087Y-82326275D01*
X69136500Y-82224348D01*
X69136500Y-82161577D01*
X69156185Y-82094538D01*
X69208989Y-82048783D01*
X69278147Y-82038839D01*
X69341703Y-82067864D01*
G37*
%TD.AperFunction*%
%TA.AperFunction,Conductor*%
G36*
X46518610Y-85781185D02*
G01*
X46557110Y-85820404D01*
X46571973Y-85844502D01*
X46694996Y-85967525D01*
X46695000Y-85967528D01*
X46695703Y-85967962D01*
X46696083Y-85968385D01*
X46700664Y-85972007D01*
X46700045Y-85972789D01*
X46742428Y-86019910D01*
X46753649Y-86088872D01*
X46725806Y-86152954D01*
X46700544Y-86174842D01*
X46700664Y-86174993D01*
X46697315Y-86177640D01*
X46695703Y-86179038D01*
X46695000Y-86179471D01*
X46694996Y-86179474D01*
X46571974Y-86302496D01*
X46571971Y-86302500D01*
X46480642Y-86450566D01*
X46480637Y-86450577D01*
X46425913Y-86615723D01*
X46415500Y-86717644D01*
X46415500Y-87304355D01*
X46425913Y-87406276D01*
X46480637Y-87571422D01*
X46480642Y-87571433D01*
X46571971Y-87719499D01*
X46571974Y-87719503D01*
X46694997Y-87842526D01*
X46803133Y-87909225D01*
X46849855Y-87961171D01*
X46861078Y-88030134D01*
X46852597Y-88062210D01*
X46846263Y-88077502D01*
X46846260Y-88077511D01*
X46815500Y-88232153D01*
X46815500Y-88389846D01*
X46846261Y-88544489D01*
X46846264Y-88544501D01*
X46906602Y-88690172D01*
X46906609Y-88690185D01*
X46994210Y-88821288D01*
X46994213Y-88821292D01*
X47105707Y-88932786D01*
X47105711Y-88932789D01*
X47207642Y-89000898D01*
X47252447Y-89054510D01*
X47261154Y-89123835D01*
X47230999Y-89186863D01*
X47171556Y-89223582D01*
X47138751Y-89228000D01*
X47110144Y-89228000D01*
X47008223Y-89238413D01*
X46843077Y-89293137D01*
X46843066Y-89293142D01*
X46695000Y-89384471D01*
X46694996Y-89384474D01*
X46571973Y-89507497D01*
X46557110Y-89531596D01*
X46505163Y-89578321D01*
X46451571Y-89590500D01*
X43700429Y-89590500D01*
X43633390Y-89570815D01*
X43594890Y-89531596D01*
X43580026Y-89507497D01*
X43457003Y-89384474D01*
X43456999Y-89384471D01*
X43308933Y-89293142D01*
X43308927Y-89293139D01*
X43308925Y-89293138D01*
X43308922Y-89293137D01*
X43143776Y-89238413D01*
X43041855Y-89228000D01*
X43041848Y-89228000D01*
X43013249Y-89228000D01*
X42946210Y-89208315D01*
X42900455Y-89155511D01*
X42890511Y-89086353D01*
X42919536Y-89022797D01*
X42944358Y-89000898D01*
X43000102Y-88963650D01*
X43046289Y-88932789D01*
X43157789Y-88821289D01*
X43245394Y-88690179D01*
X43305737Y-88544497D01*
X43336500Y-88389842D01*
X43336500Y-88232158D01*
X43336500Y-88232155D01*
X43336499Y-88232153D01*
X43305737Y-88077503D01*
X43299405Y-88062216D01*
X43291935Y-87992747D01*
X43323209Y-87930267D01*
X43348863Y-87909227D01*
X43457003Y-87842526D01*
X43580026Y-87719503D01*
X43671362Y-87571425D01*
X43726087Y-87406275D01*
X43736500Y-87304348D01*
X43736500Y-87130009D01*
X43756185Y-87062970D01*
X43808989Y-87017215D01*
X43878147Y-87007271D01*
X43929391Y-87026907D01*
X44061814Y-87115390D01*
X44061827Y-87115397D01*
X44207498Y-87175735D01*
X44207503Y-87175737D01*
X44362153Y-87206499D01*
X44362156Y-87206500D01*
X44362158Y-87206500D01*
X44519844Y-87206500D01*
X44519845Y-87206499D01*
X44674497Y-87175737D01*
X44820179Y-87115394D01*
X44951289Y-87027789D01*
X45062789Y-86916289D01*
X45150394Y-86785179D01*
X45210737Y-86639497D01*
X45241500Y-86484842D01*
X45241500Y-86327158D01*
X45241500Y-86327155D01*
X45241499Y-86327153D01*
X45236594Y-86302496D01*
X45210737Y-86172503D01*
X45163365Y-86058136D01*
X45150397Y-86026827D01*
X45150390Y-86026814D01*
X45101998Y-85954391D01*
X45081120Y-85887714D01*
X45099604Y-85820334D01*
X45151583Y-85773643D01*
X45205100Y-85761500D01*
X46451571Y-85761500D01*
X46518610Y-85781185D01*
G37*
%TD.AperFunction*%
%TA.AperFunction,Conductor*%
G36*
X51541362Y-85764375D02*
G01*
X51551489Y-85763110D01*
X51574322Y-85774053D01*
X51598610Y-85781185D01*
X51606968Y-85789699D01*
X51614496Y-85793307D01*
X51637110Y-85820404D01*
X51651973Y-85844502D01*
X51774996Y-85967525D01*
X51775000Y-85967528D01*
X51775703Y-85967962D01*
X51776083Y-85968385D01*
X51780664Y-85972007D01*
X51780045Y-85972789D01*
X51822428Y-86019910D01*
X51833649Y-86088872D01*
X51805806Y-86152954D01*
X51780544Y-86174842D01*
X51780664Y-86174993D01*
X51777315Y-86177640D01*
X51775703Y-86179038D01*
X51775000Y-86179471D01*
X51774996Y-86179474D01*
X51651974Y-86302496D01*
X51651971Y-86302500D01*
X51560642Y-86450566D01*
X51560637Y-86450577D01*
X51505913Y-86615723D01*
X51495500Y-86717644D01*
X51495500Y-87304355D01*
X51505913Y-87406276D01*
X51560637Y-87571422D01*
X51560642Y-87571433D01*
X51651971Y-87719499D01*
X51651974Y-87719503D01*
X51774997Y-87842526D01*
X51883133Y-87909225D01*
X51929855Y-87961171D01*
X51941078Y-88030134D01*
X51932597Y-88062210D01*
X51926263Y-88077502D01*
X51926260Y-88077511D01*
X51895500Y-88232153D01*
X51895500Y-88389846D01*
X51926261Y-88544489D01*
X51926264Y-88544501D01*
X51986602Y-88690172D01*
X51986609Y-88690185D01*
X52074210Y-88821288D01*
X52074213Y-88821292D01*
X52185707Y-88932786D01*
X52185711Y-88932789D01*
X52287642Y-89000898D01*
X52332447Y-89054510D01*
X52341154Y-89123835D01*
X52310999Y-89186863D01*
X52251556Y-89223582D01*
X52218751Y-89228000D01*
X52190144Y-89228000D01*
X52088223Y-89238413D01*
X51923077Y-89293137D01*
X51923066Y-89293142D01*
X51775000Y-89384471D01*
X51774996Y-89384474D01*
X51651973Y-89507497D01*
X51637110Y-89531596D01*
X51585163Y-89578321D01*
X51531571Y-89590500D01*
X48780429Y-89590500D01*
X48713390Y-89570815D01*
X48674890Y-89531596D01*
X48660026Y-89507497D01*
X48537003Y-89384474D01*
X48536999Y-89384471D01*
X48388933Y-89293142D01*
X48388927Y-89293139D01*
X48388925Y-89293138D01*
X48388922Y-89293137D01*
X48223776Y-89238413D01*
X48121855Y-89228000D01*
X48121848Y-89228000D01*
X48093249Y-89228000D01*
X48026210Y-89208315D01*
X47980455Y-89155511D01*
X47970511Y-89086353D01*
X47999536Y-89022797D01*
X48024358Y-89000898D01*
X48080102Y-88963650D01*
X48126289Y-88932789D01*
X48237789Y-88821289D01*
X48325394Y-88690179D01*
X48385737Y-88544497D01*
X48416500Y-88389842D01*
X48416500Y-88232158D01*
X48416500Y-88232155D01*
X48416499Y-88232153D01*
X48385737Y-88077503D01*
X48379405Y-88062216D01*
X48371935Y-87992747D01*
X48403209Y-87930267D01*
X48428863Y-87909227D01*
X48537003Y-87842526D01*
X48660026Y-87719503D01*
X48751362Y-87571425D01*
X48806087Y-87406275D01*
X48816500Y-87304348D01*
X48816500Y-86717652D01*
X48806087Y-86615725D01*
X48751362Y-86450575D01*
X48751358Y-86450569D01*
X48751357Y-86450566D01*
X48660028Y-86302500D01*
X48660025Y-86302496D01*
X48537004Y-86179475D01*
X48537003Y-86179474D01*
X48536301Y-86179041D01*
X48535921Y-86178618D01*
X48531336Y-86174993D01*
X48531955Y-86174209D01*
X48489575Y-86127098D01*
X48478349Y-86058136D01*
X48506188Y-85994052D01*
X48531455Y-85972157D01*
X48531336Y-85972007D01*
X48534687Y-85969356D01*
X48536299Y-85967959D01*
X48537003Y-85967526D01*
X48660026Y-85844503D01*
X48674891Y-85820403D01*
X48726837Y-85773679D01*
X48780429Y-85761500D01*
X51531571Y-85761500D01*
X51541362Y-85764375D01*
G37*
%TD.AperFunction*%
%TA.AperFunction,Conductor*%
G36*
X56678610Y-85781185D02*
G01*
X56717110Y-85820404D01*
X56731973Y-85844502D01*
X56854996Y-85967525D01*
X56855000Y-85967528D01*
X56855703Y-85967962D01*
X56856083Y-85968385D01*
X56860664Y-85972007D01*
X56860045Y-85972789D01*
X56902428Y-86019910D01*
X56913649Y-86088872D01*
X56885806Y-86152954D01*
X56860544Y-86174842D01*
X56860664Y-86174993D01*
X56857315Y-86177640D01*
X56855703Y-86179038D01*
X56855000Y-86179471D01*
X56854996Y-86179474D01*
X56731974Y-86302496D01*
X56731971Y-86302500D01*
X56640642Y-86450566D01*
X56640637Y-86450577D01*
X56585913Y-86615723D01*
X56575500Y-86717644D01*
X56575500Y-87304355D01*
X56585913Y-87406276D01*
X56640637Y-87571422D01*
X56640642Y-87571433D01*
X56731971Y-87719499D01*
X56731974Y-87719503D01*
X56854997Y-87842526D01*
X56963133Y-87909225D01*
X57009855Y-87961171D01*
X57021078Y-88030134D01*
X57012597Y-88062210D01*
X57006263Y-88077502D01*
X57006260Y-88077511D01*
X56975500Y-88232153D01*
X56975500Y-88389846D01*
X57006261Y-88544489D01*
X57006264Y-88544501D01*
X57066602Y-88690172D01*
X57066609Y-88690185D01*
X57154210Y-88821288D01*
X57154213Y-88821292D01*
X57265707Y-88932786D01*
X57265711Y-88932789D01*
X57367642Y-89000898D01*
X57412447Y-89054510D01*
X57421154Y-89123835D01*
X57390999Y-89186863D01*
X57331556Y-89223582D01*
X57298751Y-89228000D01*
X57270144Y-89228000D01*
X57168223Y-89238413D01*
X57003077Y-89293137D01*
X57003066Y-89293142D01*
X56855000Y-89384471D01*
X56854996Y-89384474D01*
X56731973Y-89507497D01*
X56717110Y-89531596D01*
X56665163Y-89578321D01*
X56611571Y-89590500D01*
X53860429Y-89590500D01*
X53793390Y-89570815D01*
X53754890Y-89531596D01*
X53740026Y-89507497D01*
X53617003Y-89384474D01*
X53616999Y-89384471D01*
X53468933Y-89293142D01*
X53468927Y-89293139D01*
X53468925Y-89293138D01*
X53468922Y-89293137D01*
X53303776Y-89238413D01*
X53201855Y-89228000D01*
X53201848Y-89228000D01*
X53173249Y-89228000D01*
X53106210Y-89208315D01*
X53060455Y-89155511D01*
X53050511Y-89086353D01*
X53079536Y-89022797D01*
X53104358Y-89000898D01*
X53160102Y-88963650D01*
X53206289Y-88932789D01*
X53317789Y-88821289D01*
X53405394Y-88690179D01*
X53465737Y-88544497D01*
X53496500Y-88389842D01*
X53496500Y-88232158D01*
X53496500Y-88232155D01*
X53496499Y-88232153D01*
X53465737Y-88077503D01*
X53459405Y-88062216D01*
X53451935Y-87992747D01*
X53483209Y-87930267D01*
X53508863Y-87909227D01*
X53617003Y-87842526D01*
X53740026Y-87719503D01*
X53831362Y-87571425D01*
X53886087Y-87406275D01*
X53896500Y-87304348D01*
X53896500Y-86717652D01*
X53886087Y-86615725D01*
X53831362Y-86450575D01*
X53831358Y-86450569D01*
X53831357Y-86450566D01*
X53740028Y-86302500D01*
X53740025Y-86302496D01*
X53617004Y-86179475D01*
X53617003Y-86179474D01*
X53616301Y-86179041D01*
X53615921Y-86178618D01*
X53611336Y-86174993D01*
X53611955Y-86174209D01*
X53569575Y-86127098D01*
X53558349Y-86058136D01*
X53586188Y-85994052D01*
X53611455Y-85972157D01*
X53611336Y-85972007D01*
X53614687Y-85969356D01*
X53616299Y-85967959D01*
X53617003Y-85967526D01*
X53740026Y-85844503D01*
X53754891Y-85820403D01*
X53806837Y-85773679D01*
X53860429Y-85761500D01*
X56611571Y-85761500D01*
X56678610Y-85781185D01*
G37*
%TD.AperFunction*%
%TA.AperFunction,Conductor*%
G36*
X61701362Y-85764375D02*
G01*
X61711489Y-85763110D01*
X61734322Y-85774053D01*
X61758610Y-85781185D01*
X61766968Y-85789699D01*
X61774496Y-85793307D01*
X61797110Y-85820404D01*
X61811973Y-85844502D01*
X61934996Y-85967525D01*
X61935000Y-85967528D01*
X61935703Y-85967962D01*
X61936083Y-85968385D01*
X61940664Y-85972007D01*
X61940045Y-85972789D01*
X61982428Y-86019910D01*
X61993649Y-86088872D01*
X61965806Y-86152954D01*
X61940544Y-86174842D01*
X61940664Y-86174993D01*
X61937315Y-86177640D01*
X61935703Y-86179038D01*
X61935000Y-86179471D01*
X61934996Y-86179474D01*
X61811974Y-86302496D01*
X61811971Y-86302500D01*
X61720642Y-86450566D01*
X61720637Y-86450577D01*
X61665913Y-86615723D01*
X61655500Y-86717644D01*
X61655500Y-87304355D01*
X61665913Y-87406276D01*
X61720637Y-87571422D01*
X61720642Y-87571433D01*
X61811971Y-87719499D01*
X61811974Y-87719503D01*
X61934997Y-87842526D01*
X62043133Y-87909225D01*
X62089855Y-87961171D01*
X62101078Y-88030134D01*
X62092597Y-88062210D01*
X62086263Y-88077502D01*
X62086260Y-88077511D01*
X62055500Y-88232153D01*
X62055500Y-88389846D01*
X62086261Y-88544489D01*
X62086264Y-88544501D01*
X62146602Y-88690172D01*
X62146609Y-88690185D01*
X62234210Y-88821288D01*
X62234213Y-88821292D01*
X62345707Y-88932786D01*
X62345711Y-88932789D01*
X62447642Y-89000898D01*
X62492447Y-89054510D01*
X62501154Y-89123835D01*
X62470999Y-89186863D01*
X62411556Y-89223582D01*
X62378751Y-89228000D01*
X62350144Y-89228000D01*
X62248223Y-89238413D01*
X62083077Y-89293137D01*
X62083066Y-89293142D01*
X61935000Y-89384471D01*
X61934996Y-89384474D01*
X61811973Y-89507497D01*
X61797110Y-89531596D01*
X61745163Y-89578321D01*
X61691571Y-89590500D01*
X58940429Y-89590500D01*
X58873390Y-89570815D01*
X58834890Y-89531596D01*
X58820026Y-89507497D01*
X58697003Y-89384474D01*
X58696999Y-89384471D01*
X58548933Y-89293142D01*
X58548927Y-89293139D01*
X58548925Y-89293138D01*
X58548922Y-89293137D01*
X58383776Y-89238413D01*
X58281855Y-89228000D01*
X58281848Y-89228000D01*
X58253249Y-89228000D01*
X58186210Y-89208315D01*
X58140455Y-89155511D01*
X58130511Y-89086353D01*
X58159536Y-89022797D01*
X58184358Y-89000898D01*
X58240102Y-88963650D01*
X58286289Y-88932789D01*
X58397789Y-88821289D01*
X58485394Y-88690179D01*
X58545737Y-88544497D01*
X58576500Y-88389842D01*
X58576500Y-88232158D01*
X58576500Y-88232155D01*
X58576499Y-88232153D01*
X58545737Y-88077503D01*
X58539405Y-88062216D01*
X58531935Y-87992747D01*
X58563209Y-87930267D01*
X58588863Y-87909227D01*
X58697003Y-87842526D01*
X58820026Y-87719503D01*
X58911362Y-87571425D01*
X58966087Y-87406275D01*
X58976500Y-87304348D01*
X58976500Y-86717652D01*
X58966087Y-86615725D01*
X58911362Y-86450575D01*
X58911358Y-86450569D01*
X58911357Y-86450566D01*
X58820028Y-86302500D01*
X58820025Y-86302496D01*
X58697004Y-86179475D01*
X58697003Y-86179474D01*
X58696301Y-86179041D01*
X58695921Y-86178618D01*
X58691336Y-86174993D01*
X58691955Y-86174209D01*
X58649575Y-86127098D01*
X58638349Y-86058136D01*
X58666188Y-85994052D01*
X58691455Y-85972157D01*
X58691336Y-85972007D01*
X58694687Y-85969356D01*
X58696299Y-85967959D01*
X58697003Y-85967526D01*
X58820026Y-85844503D01*
X58834891Y-85820403D01*
X58886837Y-85773679D01*
X58940429Y-85761500D01*
X61691571Y-85761500D01*
X61701362Y-85764375D01*
G37*
%TD.AperFunction*%
%TA.AperFunction,Conductor*%
G36*
X51598610Y-70541185D02*
G01*
X51637110Y-70580404D01*
X51651973Y-70604502D01*
X51774996Y-70727525D01*
X51775000Y-70727528D01*
X51775703Y-70727962D01*
X51776083Y-70728385D01*
X51780664Y-70732007D01*
X51780045Y-70732789D01*
X51822428Y-70779910D01*
X51833649Y-70848872D01*
X51805806Y-70912954D01*
X51780544Y-70934842D01*
X51780664Y-70934993D01*
X51777315Y-70937640D01*
X51775703Y-70939038D01*
X51775000Y-70939471D01*
X51774996Y-70939474D01*
X51651974Y-71062496D01*
X51651971Y-71062500D01*
X51560642Y-71210566D01*
X51560637Y-71210577D01*
X51505913Y-71375723D01*
X51495500Y-71477644D01*
X51495500Y-72064355D01*
X51505913Y-72166276D01*
X51560637Y-72331422D01*
X51560642Y-72331433D01*
X51651971Y-72479499D01*
X51651973Y-72479502D01*
X51651974Y-72479503D01*
X51774997Y-72602526D01*
X51883133Y-72669225D01*
X51929855Y-72721171D01*
X51941078Y-72790134D01*
X51932597Y-72822210D01*
X51926263Y-72837502D01*
X51926260Y-72837511D01*
X51895500Y-72992153D01*
X51895500Y-73149846D01*
X51926261Y-73304489D01*
X51926264Y-73304501D01*
X51986602Y-73450172D01*
X51986609Y-73450185D01*
X52074210Y-73581288D01*
X52074213Y-73581292D01*
X52185707Y-73692786D01*
X52185711Y-73692789D01*
X52287642Y-73760898D01*
X52332447Y-73814510D01*
X52341154Y-73883835D01*
X52310999Y-73946863D01*
X52251556Y-73983582D01*
X52218751Y-73988000D01*
X52190144Y-73988000D01*
X52088223Y-73998413D01*
X51923077Y-74053137D01*
X51923066Y-74053142D01*
X51775000Y-74144471D01*
X51774996Y-74144474D01*
X51651973Y-74267497D01*
X51637110Y-74291596D01*
X51585163Y-74338321D01*
X51531571Y-74350500D01*
X49474091Y-74350500D01*
X49407052Y-74330815D01*
X49361297Y-74278011D01*
X49351353Y-74208853D01*
X49352474Y-74202308D01*
X49371801Y-74105147D01*
X49371801Y-73947458D01*
X49371800Y-73947456D01*
X49344913Y-73812287D01*
X49341038Y-73792806D01*
X49335897Y-73780394D01*
X49280698Y-73647130D01*
X49280691Y-73647117D01*
X49193090Y-73516014D01*
X49193087Y-73516010D01*
X49081593Y-73404516D01*
X49081589Y-73404513D01*
X48950486Y-73316912D01*
X48950473Y-73316905D01*
X48804802Y-73256567D01*
X48804790Y-73256564D01*
X48650146Y-73225803D01*
X48650143Y-73225803D01*
X48540500Y-73225803D01*
X48473461Y-73206118D01*
X48427706Y-73153314D01*
X48416500Y-73101803D01*
X48416500Y-72992155D01*
X48416499Y-72992153D01*
X48402728Y-72922921D01*
X48385737Y-72837503D01*
X48383147Y-72831251D01*
X48379405Y-72822216D01*
X48371935Y-72752747D01*
X48403209Y-72690267D01*
X48428863Y-72669227D01*
X48537003Y-72602526D01*
X48660026Y-72479503D01*
X48751362Y-72331425D01*
X48806087Y-72166275D01*
X48816500Y-72064348D01*
X48816500Y-71477652D01*
X48806087Y-71375725D01*
X48751362Y-71210575D01*
X48751358Y-71210569D01*
X48751357Y-71210566D01*
X48660028Y-71062500D01*
X48660025Y-71062496D01*
X48537004Y-70939475D01*
X48537003Y-70939474D01*
X48536301Y-70939041D01*
X48535921Y-70938618D01*
X48531336Y-70934993D01*
X48531955Y-70934209D01*
X48489575Y-70887098D01*
X48478349Y-70818136D01*
X48506188Y-70754052D01*
X48531455Y-70732157D01*
X48531336Y-70732007D01*
X48534687Y-70729356D01*
X48536299Y-70727959D01*
X48537003Y-70727526D01*
X48660026Y-70604503D01*
X48674891Y-70580403D01*
X48726837Y-70533679D01*
X48780429Y-70521500D01*
X51531571Y-70521500D01*
X51598610Y-70541185D01*
G37*
%TD.AperFunction*%
%TA.AperFunction,Conductor*%
G36*
X46518610Y-65461185D02*
G01*
X46557110Y-65500404D01*
X46571973Y-65524502D01*
X46694996Y-65647525D01*
X46695000Y-65647528D01*
X46695703Y-65647962D01*
X46696083Y-65648385D01*
X46700664Y-65652007D01*
X46700045Y-65652789D01*
X46742428Y-65699910D01*
X46753649Y-65768872D01*
X46725806Y-65832954D01*
X46700544Y-65854842D01*
X46700664Y-65854993D01*
X46697315Y-65857640D01*
X46695703Y-65859038D01*
X46695000Y-65859471D01*
X46694996Y-65859474D01*
X46571974Y-65982496D01*
X46571971Y-65982500D01*
X46480642Y-66130566D01*
X46480637Y-66130577D01*
X46425913Y-66295723D01*
X46415500Y-66397644D01*
X46415500Y-66984355D01*
X46425913Y-67086276D01*
X46480637Y-67251422D01*
X46480642Y-67251433D01*
X46571971Y-67399499D01*
X46571974Y-67399503D01*
X46694997Y-67522526D01*
X46803133Y-67589225D01*
X46849855Y-67641171D01*
X46861078Y-67710134D01*
X46852597Y-67742210D01*
X46846263Y-67757502D01*
X46846260Y-67757511D01*
X46815500Y-67912153D01*
X46815500Y-68069846D01*
X46846261Y-68224489D01*
X46846264Y-68224501D01*
X46906602Y-68370172D01*
X46906609Y-68370185D01*
X46994210Y-68501288D01*
X46994213Y-68501292D01*
X47105707Y-68612786D01*
X47105711Y-68612789D01*
X47207642Y-68680898D01*
X47252447Y-68734510D01*
X47261154Y-68803835D01*
X47230999Y-68866863D01*
X47171556Y-68903582D01*
X47138751Y-68908000D01*
X47110144Y-68908000D01*
X47008223Y-68918413D01*
X46843077Y-68973137D01*
X46843066Y-68973142D01*
X46695000Y-69064471D01*
X46694996Y-69064474D01*
X46571973Y-69187497D01*
X46557110Y-69211596D01*
X46505163Y-69258321D01*
X46451571Y-69270500D01*
X43700429Y-69270500D01*
X43633390Y-69250815D01*
X43594890Y-69211596D01*
X43580026Y-69187497D01*
X43457003Y-69064474D01*
X43456999Y-69064471D01*
X43308933Y-68973142D01*
X43308927Y-68973139D01*
X43308925Y-68973138D01*
X43308922Y-68973137D01*
X43143776Y-68918413D01*
X43041855Y-68908000D01*
X43041848Y-68908000D01*
X43013249Y-68908000D01*
X42946210Y-68888315D01*
X42900455Y-68835511D01*
X42890511Y-68766353D01*
X42919536Y-68702797D01*
X42944358Y-68680898D01*
X43000102Y-68643650D01*
X43046289Y-68612789D01*
X43157789Y-68501289D01*
X43245394Y-68370179D01*
X43305737Y-68224497D01*
X43336500Y-68069842D01*
X43336500Y-67912158D01*
X43336500Y-67912155D01*
X43336499Y-67912153D01*
X43305737Y-67757503D01*
X43299405Y-67742216D01*
X43291935Y-67672747D01*
X43323209Y-67610267D01*
X43348863Y-67589227D01*
X43457003Y-67522526D01*
X43580026Y-67399503D01*
X43671362Y-67251425D01*
X43726087Y-67086275D01*
X43735116Y-66997897D01*
X43761512Y-66933206D01*
X43818693Y-66893054D01*
X43858474Y-66886500D01*
X43884844Y-66886500D01*
X43884845Y-66886499D01*
X44039497Y-66855737D01*
X44185179Y-66795394D01*
X44316289Y-66707789D01*
X44427789Y-66596289D01*
X44515394Y-66465179D01*
X44575737Y-66319497D01*
X44606500Y-66164842D01*
X44606500Y-66007158D01*
X44606500Y-66007155D01*
X44606499Y-66007153D01*
X44597036Y-65959581D01*
X44575737Y-65852503D01*
X44528365Y-65738136D01*
X44515397Y-65706827D01*
X44515390Y-65706814D01*
X44466998Y-65634391D01*
X44446120Y-65567714D01*
X44464604Y-65500334D01*
X44516583Y-65453643D01*
X44570100Y-65441500D01*
X46451571Y-65441500D01*
X46518610Y-65461185D01*
G37*
%TD.AperFunction*%
%TA.AperFunction,Conductor*%
G36*
X51541362Y-65444375D02*
G01*
X51551489Y-65443110D01*
X51574322Y-65454053D01*
X51598610Y-65461185D01*
X51606968Y-65469699D01*
X51614496Y-65473307D01*
X51637110Y-65500404D01*
X51651973Y-65524502D01*
X51774996Y-65647525D01*
X51775000Y-65647528D01*
X51775703Y-65647962D01*
X51776083Y-65648385D01*
X51780664Y-65652007D01*
X51780045Y-65652789D01*
X51822428Y-65699910D01*
X51833649Y-65768872D01*
X51805806Y-65832954D01*
X51780544Y-65854842D01*
X51780664Y-65854993D01*
X51777315Y-65857640D01*
X51775703Y-65859038D01*
X51775000Y-65859471D01*
X51774996Y-65859474D01*
X51651974Y-65982496D01*
X51651971Y-65982500D01*
X51560642Y-66130566D01*
X51560635Y-66130581D01*
X51560237Y-66131785D01*
X51559739Y-66132503D01*
X51557588Y-66137118D01*
X51556799Y-66136750D01*
X51520463Y-66189229D01*
X51455947Y-66216051D01*
X51387171Y-66203735D01*
X51354851Y-66180460D01*
X51312685Y-66138294D01*
X51312681Y-66138291D01*
X51181578Y-66050690D01*
X51181565Y-66050683D01*
X51035894Y-65990345D01*
X51035882Y-65990342D01*
X50881238Y-65959581D01*
X50881235Y-65959581D01*
X50723551Y-65959581D01*
X50723548Y-65959581D01*
X50568903Y-65990342D01*
X50568891Y-65990345D01*
X50423220Y-66050683D01*
X50423207Y-66050690D01*
X50292104Y-66138291D01*
X50292100Y-66138294D01*
X50180606Y-66249788D01*
X50180603Y-66249792D01*
X50093002Y-66380895D01*
X50092995Y-66380908D01*
X50032657Y-66526579D01*
X50032654Y-66526591D01*
X50001893Y-66681234D01*
X50001893Y-66838927D01*
X50032654Y-66993570D01*
X50032657Y-66993582D01*
X50092995Y-67139253D01*
X50093002Y-67139266D01*
X50180603Y-67270369D01*
X50180606Y-67270373D01*
X50292100Y-67381867D01*
X50292104Y-67381870D01*
X50423207Y-67469471D01*
X50423220Y-67469478D01*
X50551291Y-67522526D01*
X50568896Y-67529818D01*
X50723546Y-67560580D01*
X50723549Y-67560581D01*
X50723551Y-67560581D01*
X50881237Y-67560581D01*
X50881238Y-67560580D01*
X51035890Y-67529818D01*
X51181572Y-67469475D01*
X51312682Y-67381870D01*
X51404918Y-67289633D01*
X51466239Y-67256150D01*
X51535931Y-67261134D01*
X51591865Y-67303005D01*
X51598130Y-67312208D01*
X51651974Y-67399503D01*
X51774997Y-67522526D01*
X51883133Y-67589225D01*
X51929855Y-67641171D01*
X51941078Y-67710134D01*
X51932597Y-67742210D01*
X51926263Y-67757502D01*
X51926260Y-67757511D01*
X51895500Y-67912153D01*
X51895500Y-68069846D01*
X51926261Y-68224489D01*
X51926264Y-68224501D01*
X51986602Y-68370172D01*
X51986609Y-68370185D01*
X52074210Y-68501288D01*
X52074213Y-68501292D01*
X52185707Y-68612786D01*
X52185711Y-68612789D01*
X52287642Y-68680898D01*
X52332447Y-68734510D01*
X52341154Y-68803835D01*
X52310999Y-68866863D01*
X52251556Y-68903582D01*
X52218751Y-68908000D01*
X52190144Y-68908000D01*
X52088223Y-68918413D01*
X51923077Y-68973137D01*
X51923066Y-68973142D01*
X51775000Y-69064471D01*
X51774996Y-69064474D01*
X51651973Y-69187497D01*
X51637110Y-69211596D01*
X51585163Y-69258321D01*
X51531571Y-69270500D01*
X48780429Y-69270500D01*
X48713390Y-69250815D01*
X48674890Y-69211596D01*
X48660026Y-69187497D01*
X48537003Y-69064474D01*
X48536999Y-69064471D01*
X48388933Y-68973142D01*
X48388927Y-68973139D01*
X48388925Y-68973138D01*
X48388922Y-68973137D01*
X48223776Y-68918413D01*
X48121855Y-68908000D01*
X48121848Y-68908000D01*
X48093249Y-68908000D01*
X48026210Y-68888315D01*
X47980455Y-68835511D01*
X47970511Y-68766353D01*
X47999536Y-68702797D01*
X48024358Y-68680898D01*
X48080102Y-68643650D01*
X48126289Y-68612789D01*
X48237789Y-68501289D01*
X48325394Y-68370179D01*
X48385737Y-68224497D01*
X48416500Y-68069842D01*
X48416500Y-67912158D01*
X48416500Y-67912155D01*
X48416499Y-67912153D01*
X48385737Y-67757503D01*
X48379405Y-67742216D01*
X48371935Y-67672747D01*
X48403209Y-67610267D01*
X48428863Y-67589227D01*
X48537003Y-67522526D01*
X48660026Y-67399503D01*
X48751362Y-67251425D01*
X48806087Y-67086275D01*
X48816500Y-66984348D01*
X48816500Y-66397652D01*
X48806087Y-66295725D01*
X48751362Y-66130575D01*
X48751358Y-66130569D01*
X48751357Y-66130566D01*
X48660028Y-65982500D01*
X48660025Y-65982496D01*
X48537004Y-65859475D01*
X48537003Y-65859474D01*
X48536301Y-65859041D01*
X48535921Y-65858618D01*
X48531336Y-65854993D01*
X48531955Y-65854209D01*
X48489575Y-65807098D01*
X48478349Y-65738136D01*
X48506188Y-65674052D01*
X48531455Y-65652157D01*
X48531336Y-65652007D01*
X48534687Y-65649356D01*
X48536299Y-65647959D01*
X48537003Y-65647526D01*
X48660026Y-65524503D01*
X48674891Y-65500403D01*
X48726837Y-65453679D01*
X48780429Y-65441500D01*
X51531571Y-65441500D01*
X51541362Y-65444375D01*
G37*
%TD.AperFunction*%
%TD*%
M02*
