%TF.GenerationSoftware,KiCad,Pcbnew,9.0.3*%
%TF.CreationDate,2025-10-16T19:58:59+02:00*%
%TF.ProjectId,ledkiv3,6c65646b-6976-4332-9e6b-696361645f70,rev?*%
%TF.SameCoordinates,Original*%
%TF.FileFunction,Soldermask,Bot*%
%TF.FilePolarity,Negative*%
%FSLAX46Y46*%
G04 Gerber Fmt 4.6, Leading zero omitted, Abs format (unit mm)*
G04 Created by KiCad (PCBNEW 9.0.3) date 2025-10-16 19:58:59*
%MOMM*%
%LPD*%
G01*
G04 APERTURE LIST*
G04 Aperture macros list*
%AMRoundRect*
0 Rectangle with rounded corners*
0 $1 Rounding radius*
0 $2 $3 $4 $5 $6 $7 $8 $9 X,Y pos of 4 corners*
0 Add a 4 corners polygon primitive as box body*
4,1,4,$2,$3,$4,$5,$6,$7,$8,$9,$2,$3,0*
0 Add four circle primitives for the rounded corners*
1,1,$1+$1,$2,$3*
1,1,$1+$1,$4,$5*
1,1,$1+$1,$6,$7*
1,1,$1+$1,$8,$9*
0 Add four rect primitives between the rounded corners*
20,1,$1+$1,$2,$3,$4,$5,0*
20,1,$1+$1,$4,$5,$6,$7,0*
20,1,$1+$1,$6,$7,$8,$9,0*
20,1,$1+$1,$8,$9,$2,$3,0*%
G04 Aperture macros list end*
%ADD10R,1.700000X1.700000*%
%ADD11C,1.700000*%
%ADD12RoundRect,0.250000X0.475000X-0.337500X0.475000X0.337500X-0.475000X0.337500X-0.475000X-0.337500X0*%
%ADD13RoundRect,0.250000X-0.350000X-0.450000X0.350000X-0.450000X0.350000X0.450000X-0.350000X0.450000X0*%
%ADD14C,1.300000*%
%ADD15RoundRect,0.250000X-0.450000X0.350000X-0.450000X-0.350000X0.450000X-0.350000X0.450000X0.350000X0*%
%ADD16RoundRect,0.250000X-0.337500X-0.475000X0.337500X-0.475000X0.337500X0.475000X-0.337500X0.475000X0*%
%ADD17RoundRect,0.250000X0.350000X0.450000X-0.350000X0.450000X-0.350000X-0.450000X0.350000X-0.450000X0*%
%ADD18RoundRect,0.100000X0.100000X-0.637500X0.100000X0.637500X-0.100000X0.637500X-0.100000X-0.637500X0*%
%ADD19RoundRect,0.180000X0.420000X0.570000X-0.420000X0.570000X-0.420000X-0.570000X0.420000X-0.570000X0*%
%ADD20RoundRect,0.250000X0.337500X0.475000X-0.337500X0.475000X-0.337500X-0.475000X0.337500X-0.475000X0*%
%ADD21RoundRect,0.250000X0.450000X-0.350000X0.450000X0.350000X-0.450000X0.350000X-0.450000X-0.350000X0*%
%ADD22RoundRect,0.250000X-0.475000X0.337500X-0.475000X-0.337500X0.475000X-0.337500X0.475000X0.337500X0*%
G04 APERTURE END LIST*
D10*
%TO.C,J3*%
X29836000Y-71166000D03*
D11*
X29836000Y-73706000D03*
X29836000Y-76246000D03*
X29836000Y-78786000D03*
X29836000Y-81326000D03*
X29836000Y-83866000D03*
X29836000Y-86406000D03*
%TD*%
D10*
%TO.C,J1*%
X70476000Y-71166000D03*
D11*
X70476000Y-73706000D03*
X70476000Y-76246000D03*
X70476000Y-78786000D03*
X70476000Y-81326000D03*
X70476000Y-83866000D03*
X70476000Y-86406000D03*
%TD*%
D12*
%TO.C,C3*%
X45076000Y-76478500D03*
X45076000Y-78553500D03*
%TD*%
D13*
%TO.C,R3*%
X41901000Y-86406000D03*
X39901000Y-86406000D03*
%TD*%
D10*
%TO.C,J2*%
X52315000Y-100503000D03*
D11*
X49775000Y-100503000D03*
X47235000Y-100503000D03*
%TD*%
D14*
%TO.C,*%
X34916000Y-63546000D03*
%TD*%
%TO.C,*%
X65396000Y-100376000D03*
%TD*%
%TO.C,*%
X65396000Y-63546000D03*
%TD*%
%TO.C,*%
X34916000Y-100376000D03*
%TD*%
D15*
%TO.C,R12*%
X65396000Y-72341000D03*
X65396000Y-74341000D03*
%TD*%
D13*
%TO.C,R9*%
X34186000Y-88311000D03*
X36186000Y-88311000D03*
%TD*%
D12*
%TO.C,C4*%
X45076000Y-80923500D03*
X45076000Y-82998500D03*
%TD*%
D13*
%TO.C,R1*%
X39901000Y-96566000D03*
X41901000Y-96566000D03*
%TD*%
D16*
%TO.C,C5*%
X50791000Y-86406000D03*
X52866000Y-86406000D03*
%TD*%
D17*
%TO.C,R10*%
X36281000Y-84501000D03*
X34281000Y-84501000D03*
%TD*%
D18*
%TO.C,U1*%
X53304400Y-81005800D03*
X52654400Y-81005800D03*
X52004400Y-81005800D03*
X51354400Y-81005800D03*
X50704400Y-81005800D03*
X50054400Y-81005800D03*
X49404400Y-81005800D03*
X48754400Y-81005800D03*
X48104400Y-81005800D03*
X47454400Y-81005800D03*
X47454400Y-75280800D03*
X48104400Y-75280800D03*
X48754400Y-75280800D03*
X49404400Y-75280800D03*
X50054400Y-75280800D03*
X50704400Y-75280800D03*
X51354400Y-75280800D03*
X52004400Y-75280800D03*
X52654400Y-75280800D03*
X53304400Y-75280800D03*
%TD*%
D19*
%TO.C,SW2*%
X65776000Y-90996000D03*
X65786000Y-95296000D03*
X67936000Y-90996000D03*
X67936000Y-95296000D03*
%TD*%
%TO.C,SW1*%
X32121000Y-90851000D03*
X32131000Y-95151000D03*
X34281000Y-90851000D03*
X34281000Y-95151000D03*
%TD*%
D13*
%TO.C,R8*%
X40171000Y-61006000D03*
X42171000Y-61006000D03*
%TD*%
D20*
%TO.C,C2*%
X48251000Y-86406000D03*
X46176000Y-86406000D03*
%TD*%
D13*
%TO.C,R6*%
X40171000Y-71166000D03*
X42171000Y-71166000D03*
%TD*%
D21*
%TO.C,R11*%
X65345200Y-81421000D03*
X65345200Y-79421000D03*
%TD*%
D13*
%TO.C,R7*%
X40171000Y-66086000D03*
X42171000Y-66086000D03*
%TD*%
D18*
%TO.C,U2*%
X52431000Y-71234500D03*
X51781000Y-71234500D03*
X51131000Y-71234500D03*
X50481000Y-71234500D03*
X49831000Y-71234500D03*
X49181000Y-71234500D03*
X48531000Y-71234500D03*
X47881000Y-71234500D03*
X47881000Y-65509500D03*
X48531000Y-65509500D03*
X49181000Y-65509500D03*
X49831000Y-65509500D03*
X50481000Y-65509500D03*
X51131000Y-65509500D03*
X51781000Y-65509500D03*
X52431000Y-65509500D03*
%TD*%
D13*
%TO.C,R5*%
X40171000Y-76246000D03*
X42171000Y-76246000D03*
%TD*%
%TO.C,R4*%
X40171000Y-81326000D03*
X42171000Y-81326000D03*
%TD*%
D22*
%TO.C,C1*%
X45076000Y-69726000D03*
X45076000Y-71801000D03*
%TD*%
D17*
%TO.C,R14*%
X66396000Y-88311000D03*
X64396000Y-88311000D03*
%TD*%
D13*
%TO.C,R13*%
X64396000Y-84501000D03*
X66396000Y-84501000D03*
%TD*%
%TO.C,R2*%
X39901000Y-91486000D03*
X41901000Y-91486000D03*
%TD*%
M02*
