M48
; DRILL file {KiCad 9.0.3} date 2025-10-16T19:59:45+0200
; FORMAT={-:-/ absolute / metric / decimal}
; #@! TF.CreationDate,2025-10-16T19:59:45+02:00
; #@! TF.GenerationSoftware,Kicad,Pcbnew,9.0.3
; #@! TF.FileFunction,Plated,1,4,PTH
FMAT,2
METRIC
; #@! TA.AperFunction,Plated,PTH,ViaDrill
T1C0.300
; #@! TA.AperFunction,Plated,PTH,ComponentDrill
T2C1.000
%
G90
G05
T1
X32.376Y-62.911
X32.376Y-67.991
X32.376Y-73.071
X32.376Y-78.151
X32.376Y-83.231
X32.376Y-88.311
X32.376Y-93.391
X33.9Y-97.836
X34.281Y-92.756
X37.456Y-62.911
X37.456Y-67.991
X37.456Y-73.071
X37.456Y-78.151
X37.456Y-83.231
X37.456Y-88.311
X37.456Y-93.391
X38.726Y-90.216
X38.726Y-95.296
X38.98Y-97.836
X39.361Y-61.641
X39.361Y-64.816
X39.361Y-69.896
X39.361Y-74.976
X39.361Y-80.056
X39.361Y-85.176
X40.631Y-83.231
X42.536Y-62.911
X42.536Y-67.991
X42.536Y-73.071
X42.536Y-78.151
X42.536Y-83.231
X42.536Y-88.311
X42.536Y-93.391
X43.806Y-61.006
X43.806Y-66.086
X43.806Y-71.166
X43.806Y-83.826
X44.187Y-97.836
X44.44Y-72.752
X44.44Y-77.432
X44.441Y-73.706
X44.441Y-86.406
X44.441Y-87.676
X44.441Y-91.486
X44.441Y-96.566
X45.711Y-67.356
X45.711Y-74.301
X46.067Y-83.826
X46.405Y-77.353
X46.766Y-83.231
X47.616Y-62.911
X47.616Y-67.991
X47.616Y-73.071
X47.616Y-78.151
X47.616Y-83.231
X47.616Y-88.311
X47.616Y-93.391
X48.291Y-68.665
X48.53Y-78.126
X48.571Y-74.026
X49.267Y-97.836
X49.379Y-73.706
X49.44Y-88.946
X49.521Y-78.786
X50.574Y-78.988
X50.791Y-83.231
X50.802Y-66.76
X51.528Y-78.989
X52.696Y-62.911
X52.696Y-67.991
X52.696Y-73.071
X52.696Y-78.151
X52.696Y-83.231
X52.696Y-88.311
X52.696Y-93.391
X53.371Y-78.815
X53.966Y-73.706
X54.474Y-97.836
X54.561Y-81.326
X54.601Y-87.676
X55.236Y-71.166
X55.236Y-73.706
X55.236Y-81.961
X57.776Y-62.911
X57.776Y-67.991
X57.776Y-73.071
X57.776Y-78.151
X57.776Y-83.231
X57.776Y-88.311
X57.776Y-93.391
X59.427Y-97.836
X60.951Y-88.946
X62.856Y-62.911
X62.856Y-67.991
X62.856Y-73.071
X62.856Y-78.151
X62.856Y-83.231
X62.856Y-88.311
X62.856Y-93.391
X64.507Y-97.836
X64.761Y-71.166
X65.396Y-76.246
X65.396Y-77.516
X65.396Y-82.596
X66.031Y-93.391
X66.285Y-97.836
X66.826Y-71.006
X67.936Y-62.911
X67.936Y-67.991
X67.936Y-73.071
X67.936Y-78.151
X67.936Y-83.231
X67.936Y-88.311
X67.936Y-93.391
T2
X29.836Y-71.166
X29.836Y-73.706
X29.836Y-76.246
X29.836Y-78.786
X29.836Y-81.326
X29.836Y-83.866
X29.836Y-86.406
X47.235Y-100.503
X49.775Y-100.503
X52.315Y-100.503
X70.476Y-71.166
X70.476Y-73.706
X70.476Y-76.246
X70.476Y-78.786
X70.476Y-81.326
X70.476Y-83.866
X70.476Y-86.406
M30
