%TF.GenerationSoftware,KiCad,Pcbnew,9.0.3*%
%TF.CreationDate,2025-10-16T19:58:59+02:00*%
%TF.ProjectId,ledkiv3,6c65646b-6976-4332-9e6b-696361645f70,rev?*%
%TF.SameCoordinates,Original*%
%TF.FileFunction,Legend,Top*%
%TF.FilePolarity,Positive*%
%FSLAX46Y46*%
G04 Gerber Fmt 4.6, Leading zero omitted, Abs format (unit mm)*
G04 Created by KiCad (PCBNEW 9.0.3) date 2025-10-16 19:58:59*
%MOMM*%
%LPD*%
G01*
G04 APERTURE LIST*
%ADD10C,0.150000*%
%ADD11C,0.120000*%
G04 APERTURE END LIST*
D10*
X29502666Y-68240819D02*
X29502666Y-68955104D01*
X29502666Y-68955104D02*
X29455047Y-69097961D01*
X29455047Y-69097961D02*
X29359809Y-69193200D01*
X29359809Y-69193200D02*
X29216952Y-69240819D01*
X29216952Y-69240819D02*
X29121714Y-69240819D01*
X29883619Y-68240819D02*
X30502666Y-68240819D01*
X30502666Y-68240819D02*
X30169333Y-68621771D01*
X30169333Y-68621771D02*
X30312190Y-68621771D01*
X30312190Y-68621771D02*
X30407428Y-68669390D01*
X30407428Y-68669390D02*
X30455047Y-68717009D01*
X30455047Y-68717009D02*
X30502666Y-68812247D01*
X30502666Y-68812247D02*
X30502666Y-69050342D01*
X30502666Y-69050342D02*
X30455047Y-69145580D01*
X30455047Y-69145580D02*
X30407428Y-69193200D01*
X30407428Y-69193200D02*
X30312190Y-69240819D01*
X30312190Y-69240819D02*
X30026476Y-69240819D01*
X30026476Y-69240819D02*
X29931238Y-69193200D01*
X29931238Y-69193200D02*
X29883619Y-69145580D01*
X70142666Y-68240819D02*
X70142666Y-68955104D01*
X70142666Y-68955104D02*
X70095047Y-69097961D01*
X70095047Y-69097961D02*
X69999809Y-69193200D01*
X69999809Y-69193200D02*
X69856952Y-69240819D01*
X69856952Y-69240819D02*
X69761714Y-69240819D01*
X71142666Y-69240819D02*
X70571238Y-69240819D01*
X70856952Y-69240819D02*
X70856952Y-68240819D01*
X70856952Y-68240819D02*
X70761714Y-68383676D01*
X70761714Y-68383676D02*
X70666476Y-68478914D01*
X70666476Y-68478914D02*
X70571238Y-68526533D01*
X54149819Y-100836333D02*
X54864104Y-100836333D01*
X54864104Y-100836333D02*
X55006961Y-100883952D01*
X55006961Y-100883952D02*
X55102200Y-100979190D01*
X55102200Y-100979190D02*
X55149819Y-101122047D01*
X55149819Y-101122047D02*
X55149819Y-101217285D01*
X54245057Y-100407761D02*
X54197438Y-100360142D01*
X54197438Y-100360142D02*
X54149819Y-100264904D01*
X54149819Y-100264904D02*
X54149819Y-100026809D01*
X54149819Y-100026809D02*
X54197438Y-99931571D01*
X54197438Y-99931571D02*
X54245057Y-99883952D01*
X54245057Y-99883952D02*
X54340295Y-99836333D01*
X54340295Y-99836333D02*
X54435533Y-99836333D01*
X54435533Y-99836333D02*
X54578390Y-99883952D01*
X54578390Y-99883952D02*
X55149819Y-100455380D01*
X55149819Y-100455380D02*
X55149819Y-99836333D01*
X61660819Y-96971594D02*
X60660819Y-96971594D01*
X60660819Y-96971594D02*
X60660819Y-96733499D01*
X60660819Y-96733499D02*
X60708438Y-96590642D01*
X60708438Y-96590642D02*
X60803676Y-96495404D01*
X60803676Y-96495404D02*
X60898914Y-96447785D01*
X60898914Y-96447785D02*
X61089390Y-96400166D01*
X61089390Y-96400166D02*
X61232247Y-96400166D01*
X61232247Y-96400166D02*
X61422723Y-96447785D01*
X61422723Y-96447785D02*
X61517961Y-96495404D01*
X61517961Y-96495404D02*
X61613200Y-96590642D01*
X61613200Y-96590642D02*
X61660819Y-96733499D01*
X61660819Y-96733499D02*
X61660819Y-96971594D01*
X60660819Y-96066832D02*
X60660819Y-95400166D01*
X60660819Y-95400166D02*
X61660819Y-95828737D01*
X61660819Y-66967785D02*
X60660819Y-66967785D01*
X60660819Y-66967785D02*
X60660819Y-66729690D01*
X60660819Y-66729690D02*
X60708438Y-66586833D01*
X60708438Y-66586833D02*
X60803676Y-66491595D01*
X60803676Y-66491595D02*
X60898914Y-66443976D01*
X60898914Y-66443976D02*
X61089390Y-66396357D01*
X61089390Y-66396357D02*
X61232247Y-66396357D01*
X61232247Y-66396357D02*
X61422723Y-66443976D01*
X61422723Y-66443976D02*
X61517961Y-66491595D01*
X61517961Y-66491595D02*
X61613200Y-66586833D01*
X61613200Y-66586833D02*
X61660819Y-66729690D01*
X61660819Y-66729690D02*
X61660819Y-66967785D01*
X60660819Y-65491595D02*
X60660819Y-65967785D01*
X60660819Y-65967785D02*
X61137009Y-66015404D01*
X61137009Y-66015404D02*
X61089390Y-65967785D01*
X61089390Y-65967785D02*
X61041771Y-65872547D01*
X61041771Y-65872547D02*
X61041771Y-65634452D01*
X61041771Y-65634452D02*
X61089390Y-65539214D01*
X61089390Y-65539214D02*
X61137009Y-65491595D01*
X61137009Y-65491595D02*
X61232247Y-65443976D01*
X61232247Y-65443976D02*
X61470342Y-65443976D01*
X61470342Y-65443976D02*
X61565580Y-65491595D01*
X61565580Y-65491595D02*
X61613200Y-65539214D01*
X61613200Y-65539214D02*
X61660819Y-65634452D01*
X61660819Y-65634452D02*
X61660819Y-65872547D01*
X61660819Y-65872547D02*
X61613200Y-65967785D01*
X61613200Y-65967785D02*
X61565580Y-66015404D01*
X60660819Y-64539214D02*
X60660819Y-65015404D01*
X60660819Y-65015404D02*
X61137009Y-65063023D01*
X61137009Y-65063023D02*
X61089390Y-65015404D01*
X61089390Y-65015404D02*
X61041771Y-64920166D01*
X61041771Y-64920166D02*
X61041771Y-64682071D01*
X61041771Y-64682071D02*
X61089390Y-64586833D01*
X61089390Y-64586833D02*
X61137009Y-64539214D01*
X61137009Y-64539214D02*
X61232247Y-64491595D01*
X61232247Y-64491595D02*
X61470342Y-64491595D01*
X61470342Y-64491595D02*
X61565580Y-64539214D01*
X61565580Y-64539214D02*
X61613200Y-64586833D01*
X61613200Y-64586833D02*
X61660819Y-64682071D01*
X61660819Y-64682071D02*
X61660819Y-64920166D01*
X61660819Y-64920166D02*
X61613200Y-65015404D01*
X61613200Y-65015404D02*
X61565580Y-65063023D01*
X66740819Y-82207785D02*
X65740819Y-82207785D01*
X65740819Y-82207785D02*
X65740819Y-81969690D01*
X65740819Y-81969690D02*
X65788438Y-81826833D01*
X65788438Y-81826833D02*
X65883676Y-81731595D01*
X65883676Y-81731595D02*
X65978914Y-81683976D01*
X65978914Y-81683976D02*
X66169390Y-81636357D01*
X66169390Y-81636357D02*
X66312247Y-81636357D01*
X66312247Y-81636357D02*
X66502723Y-81683976D01*
X66502723Y-81683976D02*
X66597961Y-81731595D01*
X66597961Y-81731595D02*
X66693200Y-81826833D01*
X66693200Y-81826833D02*
X66740819Y-81969690D01*
X66740819Y-81969690D02*
X66740819Y-82207785D01*
X65740819Y-81303023D02*
X65740819Y-80683976D01*
X65740819Y-80683976D02*
X66121771Y-81017309D01*
X66121771Y-81017309D02*
X66121771Y-80874452D01*
X66121771Y-80874452D02*
X66169390Y-80779214D01*
X66169390Y-80779214D02*
X66217009Y-80731595D01*
X66217009Y-80731595D02*
X66312247Y-80683976D01*
X66312247Y-80683976D02*
X66550342Y-80683976D01*
X66550342Y-80683976D02*
X66645580Y-80731595D01*
X66645580Y-80731595D02*
X66693200Y-80779214D01*
X66693200Y-80779214D02*
X66740819Y-80874452D01*
X66740819Y-80874452D02*
X66740819Y-81160166D01*
X66740819Y-81160166D02*
X66693200Y-81255404D01*
X66693200Y-81255404D02*
X66645580Y-81303023D01*
X65836057Y-80303023D02*
X65788438Y-80255404D01*
X65788438Y-80255404D02*
X65740819Y-80160166D01*
X65740819Y-80160166D02*
X65740819Y-79922071D01*
X65740819Y-79922071D02*
X65788438Y-79826833D01*
X65788438Y-79826833D02*
X65836057Y-79779214D01*
X65836057Y-79779214D02*
X65931295Y-79731595D01*
X65931295Y-79731595D02*
X66026533Y-79731595D01*
X66026533Y-79731595D02*
X66169390Y-79779214D01*
X66169390Y-79779214D02*
X66740819Y-80350642D01*
X66740819Y-80350642D02*
X66740819Y-79731595D01*
X31180819Y-77127785D02*
X30180819Y-77127785D01*
X30180819Y-77127785D02*
X30180819Y-76889690D01*
X30180819Y-76889690D02*
X30228438Y-76746833D01*
X30228438Y-76746833D02*
X30323676Y-76651595D01*
X30323676Y-76651595D02*
X30418914Y-76603976D01*
X30418914Y-76603976D02*
X30609390Y-76556357D01*
X30609390Y-76556357D02*
X30752247Y-76556357D01*
X30752247Y-76556357D02*
X30942723Y-76603976D01*
X30942723Y-76603976D02*
X31037961Y-76651595D01*
X31037961Y-76651595D02*
X31133200Y-76746833D01*
X31133200Y-76746833D02*
X31180819Y-76889690D01*
X31180819Y-76889690D02*
X31180819Y-77127785D01*
X30180819Y-76223023D02*
X30180819Y-75603976D01*
X30180819Y-75603976D02*
X30561771Y-75937309D01*
X30561771Y-75937309D02*
X30561771Y-75794452D01*
X30561771Y-75794452D02*
X30609390Y-75699214D01*
X30609390Y-75699214D02*
X30657009Y-75651595D01*
X30657009Y-75651595D02*
X30752247Y-75603976D01*
X30752247Y-75603976D02*
X30990342Y-75603976D01*
X30990342Y-75603976D02*
X31085580Y-75651595D01*
X31085580Y-75651595D02*
X31133200Y-75699214D01*
X31133200Y-75699214D02*
X31180819Y-75794452D01*
X31180819Y-75794452D02*
X31180819Y-76080166D01*
X31180819Y-76080166D02*
X31133200Y-76175404D01*
X31133200Y-76175404D02*
X31085580Y-76223023D01*
X30180819Y-75270642D02*
X30180819Y-74651595D01*
X30180819Y-74651595D02*
X30561771Y-74984928D01*
X30561771Y-74984928D02*
X30561771Y-74842071D01*
X30561771Y-74842071D02*
X30609390Y-74746833D01*
X30609390Y-74746833D02*
X30657009Y-74699214D01*
X30657009Y-74699214D02*
X30752247Y-74651595D01*
X30752247Y-74651595D02*
X30990342Y-74651595D01*
X30990342Y-74651595D02*
X31085580Y-74699214D01*
X31085580Y-74699214D02*
X31133200Y-74746833D01*
X31133200Y-74746833D02*
X31180819Y-74842071D01*
X31180819Y-74842071D02*
X31180819Y-75127785D01*
X31180819Y-75127785D02*
X31133200Y-75223023D01*
X31133200Y-75223023D02*
X31085580Y-75270642D01*
X36260819Y-77127785D02*
X35260819Y-77127785D01*
X35260819Y-77127785D02*
X35260819Y-76889690D01*
X35260819Y-76889690D02*
X35308438Y-76746833D01*
X35308438Y-76746833D02*
X35403676Y-76651595D01*
X35403676Y-76651595D02*
X35498914Y-76603976D01*
X35498914Y-76603976D02*
X35689390Y-76556357D01*
X35689390Y-76556357D02*
X35832247Y-76556357D01*
X35832247Y-76556357D02*
X36022723Y-76603976D01*
X36022723Y-76603976D02*
X36117961Y-76651595D01*
X36117961Y-76651595D02*
X36213200Y-76746833D01*
X36213200Y-76746833D02*
X36260819Y-76889690D01*
X36260819Y-76889690D02*
X36260819Y-77127785D01*
X35260819Y-76223023D02*
X35260819Y-75603976D01*
X35260819Y-75603976D02*
X35641771Y-75937309D01*
X35641771Y-75937309D02*
X35641771Y-75794452D01*
X35641771Y-75794452D02*
X35689390Y-75699214D01*
X35689390Y-75699214D02*
X35737009Y-75651595D01*
X35737009Y-75651595D02*
X35832247Y-75603976D01*
X35832247Y-75603976D02*
X36070342Y-75603976D01*
X36070342Y-75603976D02*
X36165580Y-75651595D01*
X36165580Y-75651595D02*
X36213200Y-75699214D01*
X36213200Y-75699214D02*
X36260819Y-75794452D01*
X36260819Y-75794452D02*
X36260819Y-76080166D01*
X36260819Y-76080166D02*
X36213200Y-76175404D01*
X36213200Y-76175404D02*
X36165580Y-76223023D01*
X35594152Y-74746833D02*
X36260819Y-74746833D01*
X35213200Y-74984928D02*
X35927485Y-75223023D01*
X35927485Y-75223023D02*
X35927485Y-74603976D01*
X31180819Y-87287785D02*
X30180819Y-87287785D01*
X30180819Y-87287785D02*
X30180819Y-87049690D01*
X30180819Y-87049690D02*
X30228438Y-86906833D01*
X30228438Y-86906833D02*
X30323676Y-86811595D01*
X30323676Y-86811595D02*
X30418914Y-86763976D01*
X30418914Y-86763976D02*
X30609390Y-86716357D01*
X30609390Y-86716357D02*
X30752247Y-86716357D01*
X30752247Y-86716357D02*
X30942723Y-86763976D01*
X30942723Y-86763976D02*
X31037961Y-86811595D01*
X31037961Y-86811595D02*
X31133200Y-86906833D01*
X31133200Y-86906833D02*
X31180819Y-87049690D01*
X31180819Y-87049690D02*
X31180819Y-87287785D01*
X31180819Y-85763976D02*
X31180819Y-86335404D01*
X31180819Y-86049690D02*
X30180819Y-86049690D01*
X30180819Y-86049690D02*
X30323676Y-86144928D01*
X30323676Y-86144928D02*
X30418914Y-86240166D01*
X30418914Y-86240166D02*
X30466533Y-86335404D01*
X30180819Y-85430642D02*
X30180819Y-84763976D01*
X30180819Y-84763976D02*
X31180819Y-85192547D01*
X41340819Y-61887785D02*
X40340819Y-61887785D01*
X40340819Y-61887785D02*
X40340819Y-61649690D01*
X40340819Y-61649690D02*
X40388438Y-61506833D01*
X40388438Y-61506833D02*
X40483676Y-61411595D01*
X40483676Y-61411595D02*
X40578914Y-61363976D01*
X40578914Y-61363976D02*
X40769390Y-61316357D01*
X40769390Y-61316357D02*
X40912247Y-61316357D01*
X40912247Y-61316357D02*
X41102723Y-61363976D01*
X41102723Y-61363976D02*
X41197961Y-61411595D01*
X41197961Y-61411595D02*
X41293200Y-61506833D01*
X41293200Y-61506833D02*
X41340819Y-61649690D01*
X41340819Y-61649690D02*
X41340819Y-61887785D01*
X40340819Y-60411595D02*
X40340819Y-60887785D01*
X40340819Y-60887785D02*
X40817009Y-60935404D01*
X40817009Y-60935404D02*
X40769390Y-60887785D01*
X40769390Y-60887785D02*
X40721771Y-60792547D01*
X40721771Y-60792547D02*
X40721771Y-60554452D01*
X40721771Y-60554452D02*
X40769390Y-60459214D01*
X40769390Y-60459214D02*
X40817009Y-60411595D01*
X40817009Y-60411595D02*
X40912247Y-60363976D01*
X40912247Y-60363976D02*
X41150342Y-60363976D01*
X41150342Y-60363976D02*
X41245580Y-60411595D01*
X41245580Y-60411595D02*
X41293200Y-60459214D01*
X41293200Y-60459214D02*
X41340819Y-60554452D01*
X41340819Y-60554452D02*
X41340819Y-60792547D01*
X41340819Y-60792547D02*
X41293200Y-60887785D01*
X41293200Y-60887785D02*
X41245580Y-60935404D01*
X41340819Y-59887785D02*
X41340819Y-59697309D01*
X41340819Y-59697309D02*
X41293200Y-59602071D01*
X41293200Y-59602071D02*
X41245580Y-59554452D01*
X41245580Y-59554452D02*
X41102723Y-59459214D01*
X41102723Y-59459214D02*
X40912247Y-59411595D01*
X40912247Y-59411595D02*
X40531295Y-59411595D01*
X40531295Y-59411595D02*
X40436057Y-59459214D01*
X40436057Y-59459214D02*
X40388438Y-59506833D01*
X40388438Y-59506833D02*
X40340819Y-59602071D01*
X40340819Y-59602071D02*
X40340819Y-59792547D01*
X40340819Y-59792547D02*
X40388438Y-59887785D01*
X40388438Y-59887785D02*
X40436057Y-59935404D01*
X40436057Y-59935404D02*
X40531295Y-59983023D01*
X40531295Y-59983023D02*
X40769390Y-59983023D01*
X40769390Y-59983023D02*
X40864628Y-59935404D01*
X40864628Y-59935404D02*
X40912247Y-59887785D01*
X40912247Y-59887785D02*
X40959866Y-59792547D01*
X40959866Y-59792547D02*
X40959866Y-59602071D01*
X40959866Y-59602071D02*
X40912247Y-59506833D01*
X40912247Y-59506833D02*
X40864628Y-59459214D01*
X40864628Y-59459214D02*
X40769390Y-59411595D01*
X51500819Y-66967785D02*
X50500819Y-66967785D01*
X50500819Y-66967785D02*
X50500819Y-66729690D01*
X50500819Y-66729690D02*
X50548438Y-66586833D01*
X50548438Y-66586833D02*
X50643676Y-66491595D01*
X50643676Y-66491595D02*
X50738914Y-66443976D01*
X50738914Y-66443976D02*
X50929390Y-66396357D01*
X50929390Y-66396357D02*
X51072247Y-66396357D01*
X51072247Y-66396357D02*
X51262723Y-66443976D01*
X51262723Y-66443976D02*
X51357961Y-66491595D01*
X51357961Y-66491595D02*
X51453200Y-66586833D01*
X51453200Y-66586833D02*
X51500819Y-66729690D01*
X51500819Y-66729690D02*
X51500819Y-66967785D01*
X50500819Y-65491595D02*
X50500819Y-65967785D01*
X50500819Y-65967785D02*
X50977009Y-66015404D01*
X50977009Y-66015404D02*
X50929390Y-65967785D01*
X50929390Y-65967785D02*
X50881771Y-65872547D01*
X50881771Y-65872547D02*
X50881771Y-65634452D01*
X50881771Y-65634452D02*
X50929390Y-65539214D01*
X50929390Y-65539214D02*
X50977009Y-65491595D01*
X50977009Y-65491595D02*
X51072247Y-65443976D01*
X51072247Y-65443976D02*
X51310342Y-65443976D01*
X51310342Y-65443976D02*
X51405580Y-65491595D01*
X51405580Y-65491595D02*
X51453200Y-65539214D01*
X51453200Y-65539214D02*
X51500819Y-65634452D01*
X51500819Y-65634452D02*
X51500819Y-65872547D01*
X51500819Y-65872547D02*
X51453200Y-65967785D01*
X51453200Y-65967785D02*
X51405580Y-66015404D01*
X50500819Y-65110642D02*
X50500819Y-64491595D01*
X50500819Y-64491595D02*
X50881771Y-64824928D01*
X50881771Y-64824928D02*
X50881771Y-64682071D01*
X50881771Y-64682071D02*
X50929390Y-64586833D01*
X50929390Y-64586833D02*
X50977009Y-64539214D01*
X50977009Y-64539214D02*
X51072247Y-64491595D01*
X51072247Y-64491595D02*
X51310342Y-64491595D01*
X51310342Y-64491595D02*
X51405580Y-64539214D01*
X51405580Y-64539214D02*
X51453200Y-64586833D01*
X51453200Y-64586833D02*
X51500819Y-64682071D01*
X51500819Y-64682071D02*
X51500819Y-64967785D01*
X51500819Y-64967785D02*
X51453200Y-65063023D01*
X51453200Y-65063023D02*
X51405580Y-65110642D01*
X51500819Y-92367785D02*
X50500819Y-92367785D01*
X50500819Y-92367785D02*
X50500819Y-92129690D01*
X50500819Y-92129690D02*
X50548438Y-91986833D01*
X50548438Y-91986833D02*
X50643676Y-91891595D01*
X50643676Y-91891595D02*
X50738914Y-91843976D01*
X50738914Y-91843976D02*
X50929390Y-91796357D01*
X50929390Y-91796357D02*
X51072247Y-91796357D01*
X51072247Y-91796357D02*
X51262723Y-91843976D01*
X51262723Y-91843976D02*
X51357961Y-91891595D01*
X51357961Y-91891595D02*
X51453200Y-91986833D01*
X51453200Y-91986833D02*
X51500819Y-92129690D01*
X51500819Y-92129690D02*
X51500819Y-92367785D01*
X51500819Y-90843976D02*
X51500819Y-91415404D01*
X51500819Y-91129690D02*
X50500819Y-91129690D01*
X50500819Y-91129690D02*
X50643676Y-91224928D01*
X50643676Y-91224928D02*
X50738914Y-91320166D01*
X50738914Y-91320166D02*
X50786533Y-91415404D01*
X50500819Y-90510642D02*
X50500819Y-89891595D01*
X50500819Y-89891595D02*
X50881771Y-90224928D01*
X50881771Y-90224928D02*
X50881771Y-90082071D01*
X50881771Y-90082071D02*
X50929390Y-89986833D01*
X50929390Y-89986833D02*
X50977009Y-89939214D01*
X50977009Y-89939214D02*
X51072247Y-89891595D01*
X51072247Y-89891595D02*
X51310342Y-89891595D01*
X51310342Y-89891595D02*
X51405580Y-89939214D01*
X51405580Y-89939214D02*
X51453200Y-89986833D01*
X51453200Y-89986833D02*
X51500819Y-90082071D01*
X51500819Y-90082071D02*
X51500819Y-90367785D01*
X51500819Y-90367785D02*
X51453200Y-90463023D01*
X51453200Y-90463023D02*
X51405580Y-90510642D01*
X41340819Y-96971594D02*
X40340819Y-96971594D01*
X40340819Y-96971594D02*
X40340819Y-96733499D01*
X40340819Y-96733499D02*
X40388438Y-96590642D01*
X40388438Y-96590642D02*
X40483676Y-96495404D01*
X40483676Y-96495404D02*
X40578914Y-96447785D01*
X40578914Y-96447785D02*
X40769390Y-96400166D01*
X40769390Y-96400166D02*
X40912247Y-96400166D01*
X40912247Y-96400166D02*
X41102723Y-96447785D01*
X41102723Y-96447785D02*
X41197961Y-96495404D01*
X41197961Y-96495404D02*
X41293200Y-96590642D01*
X41293200Y-96590642D02*
X41340819Y-96733499D01*
X41340819Y-96733499D02*
X41340819Y-96971594D01*
X40340819Y-96066832D02*
X40340819Y-95447785D01*
X40340819Y-95447785D02*
X40721771Y-95781118D01*
X40721771Y-95781118D02*
X40721771Y-95638261D01*
X40721771Y-95638261D02*
X40769390Y-95543023D01*
X40769390Y-95543023D02*
X40817009Y-95495404D01*
X40817009Y-95495404D02*
X40912247Y-95447785D01*
X40912247Y-95447785D02*
X41150342Y-95447785D01*
X41150342Y-95447785D02*
X41245580Y-95495404D01*
X41245580Y-95495404D02*
X41293200Y-95543023D01*
X41293200Y-95543023D02*
X41340819Y-95638261D01*
X41340819Y-95638261D02*
X41340819Y-95923975D01*
X41340819Y-95923975D02*
X41293200Y-96019213D01*
X41293200Y-96019213D02*
X41245580Y-96066832D01*
X56580819Y-72047785D02*
X55580819Y-72047785D01*
X55580819Y-72047785D02*
X55580819Y-71809690D01*
X55580819Y-71809690D02*
X55628438Y-71666833D01*
X55628438Y-71666833D02*
X55723676Y-71571595D01*
X55723676Y-71571595D02*
X55818914Y-71523976D01*
X55818914Y-71523976D02*
X56009390Y-71476357D01*
X56009390Y-71476357D02*
X56152247Y-71476357D01*
X56152247Y-71476357D02*
X56342723Y-71523976D01*
X56342723Y-71523976D02*
X56437961Y-71571595D01*
X56437961Y-71571595D02*
X56533200Y-71666833D01*
X56533200Y-71666833D02*
X56580819Y-71809690D01*
X56580819Y-71809690D02*
X56580819Y-72047785D01*
X55914152Y-70619214D02*
X56580819Y-70619214D01*
X55533200Y-70857309D02*
X56247485Y-71095404D01*
X56247485Y-71095404D02*
X56247485Y-70476357D01*
X55580819Y-69666833D02*
X55580819Y-69857309D01*
X55580819Y-69857309D02*
X55628438Y-69952547D01*
X55628438Y-69952547D02*
X55676057Y-70000166D01*
X55676057Y-70000166D02*
X55818914Y-70095404D01*
X55818914Y-70095404D02*
X56009390Y-70143023D01*
X56009390Y-70143023D02*
X56390342Y-70143023D01*
X56390342Y-70143023D02*
X56485580Y-70095404D01*
X56485580Y-70095404D02*
X56533200Y-70047785D01*
X56533200Y-70047785D02*
X56580819Y-69952547D01*
X56580819Y-69952547D02*
X56580819Y-69762071D01*
X56580819Y-69762071D02*
X56533200Y-69666833D01*
X56533200Y-69666833D02*
X56485580Y-69619214D01*
X56485580Y-69619214D02*
X56390342Y-69571595D01*
X56390342Y-69571595D02*
X56152247Y-69571595D01*
X56152247Y-69571595D02*
X56057009Y-69619214D01*
X56057009Y-69619214D02*
X56009390Y-69666833D01*
X56009390Y-69666833D02*
X55961771Y-69762071D01*
X55961771Y-69762071D02*
X55961771Y-69952547D01*
X55961771Y-69952547D02*
X56009390Y-70047785D01*
X56009390Y-70047785D02*
X56057009Y-70095404D01*
X56057009Y-70095404D02*
X56152247Y-70143023D01*
X61660819Y-92367785D02*
X60660819Y-92367785D01*
X60660819Y-92367785D02*
X60660819Y-92129690D01*
X60660819Y-92129690D02*
X60708438Y-91986833D01*
X60708438Y-91986833D02*
X60803676Y-91891595D01*
X60803676Y-91891595D02*
X60898914Y-91843976D01*
X60898914Y-91843976D02*
X61089390Y-91796357D01*
X61089390Y-91796357D02*
X61232247Y-91796357D01*
X61232247Y-91796357D02*
X61422723Y-91843976D01*
X61422723Y-91843976D02*
X61517961Y-91891595D01*
X61517961Y-91891595D02*
X61613200Y-91986833D01*
X61613200Y-91986833D02*
X61660819Y-92129690D01*
X61660819Y-92129690D02*
X61660819Y-92367785D01*
X61660819Y-90843976D02*
X61660819Y-91415404D01*
X61660819Y-91129690D02*
X60660819Y-91129690D01*
X60660819Y-91129690D02*
X60803676Y-91224928D01*
X60803676Y-91224928D02*
X60898914Y-91320166D01*
X60898914Y-91320166D02*
X60946533Y-91415404D01*
X60660819Y-89939214D02*
X60660819Y-90415404D01*
X60660819Y-90415404D02*
X61137009Y-90463023D01*
X61137009Y-90463023D02*
X61089390Y-90415404D01*
X61089390Y-90415404D02*
X61041771Y-90320166D01*
X61041771Y-90320166D02*
X61041771Y-90082071D01*
X61041771Y-90082071D02*
X61089390Y-89986833D01*
X61089390Y-89986833D02*
X61137009Y-89939214D01*
X61137009Y-89939214D02*
X61232247Y-89891595D01*
X61232247Y-89891595D02*
X61470342Y-89891595D01*
X61470342Y-89891595D02*
X61565580Y-89939214D01*
X61565580Y-89939214D02*
X61613200Y-89986833D01*
X61613200Y-89986833D02*
X61660819Y-90082071D01*
X61660819Y-90082071D02*
X61660819Y-90320166D01*
X61660819Y-90320166D02*
X61613200Y-90415404D01*
X61613200Y-90415404D02*
X61565580Y-90463023D01*
X41340819Y-87287785D02*
X40340819Y-87287785D01*
X40340819Y-87287785D02*
X40340819Y-87049690D01*
X40340819Y-87049690D02*
X40388438Y-86906833D01*
X40388438Y-86906833D02*
X40483676Y-86811595D01*
X40483676Y-86811595D02*
X40578914Y-86763976D01*
X40578914Y-86763976D02*
X40769390Y-86716357D01*
X40769390Y-86716357D02*
X40912247Y-86716357D01*
X40912247Y-86716357D02*
X41102723Y-86763976D01*
X41102723Y-86763976D02*
X41197961Y-86811595D01*
X41197961Y-86811595D02*
X41293200Y-86906833D01*
X41293200Y-86906833D02*
X41340819Y-87049690D01*
X41340819Y-87049690D02*
X41340819Y-87287785D01*
X41340819Y-85763976D02*
X41340819Y-86335404D01*
X41340819Y-86049690D02*
X40340819Y-86049690D01*
X40340819Y-86049690D02*
X40483676Y-86144928D01*
X40483676Y-86144928D02*
X40578914Y-86240166D01*
X40578914Y-86240166D02*
X40626533Y-86335404D01*
X41340819Y-85287785D02*
X41340819Y-85097309D01*
X41340819Y-85097309D02*
X41293200Y-85002071D01*
X41293200Y-85002071D02*
X41245580Y-84954452D01*
X41245580Y-84954452D02*
X41102723Y-84859214D01*
X41102723Y-84859214D02*
X40912247Y-84811595D01*
X40912247Y-84811595D02*
X40531295Y-84811595D01*
X40531295Y-84811595D02*
X40436057Y-84859214D01*
X40436057Y-84859214D02*
X40388438Y-84906833D01*
X40388438Y-84906833D02*
X40340819Y-85002071D01*
X40340819Y-85002071D02*
X40340819Y-85192547D01*
X40340819Y-85192547D02*
X40388438Y-85287785D01*
X40388438Y-85287785D02*
X40436057Y-85335404D01*
X40436057Y-85335404D02*
X40531295Y-85383023D01*
X40531295Y-85383023D02*
X40769390Y-85383023D01*
X40769390Y-85383023D02*
X40864628Y-85335404D01*
X40864628Y-85335404D02*
X40912247Y-85287785D01*
X40912247Y-85287785D02*
X40959866Y-85192547D01*
X40959866Y-85192547D02*
X40959866Y-85002071D01*
X40959866Y-85002071D02*
X40912247Y-84906833D01*
X40912247Y-84906833D02*
X40864628Y-84859214D01*
X40864628Y-84859214D02*
X40769390Y-84811595D01*
X56580819Y-77127785D02*
X55580819Y-77127785D01*
X55580819Y-77127785D02*
X55580819Y-76889690D01*
X55580819Y-76889690D02*
X55628438Y-76746833D01*
X55628438Y-76746833D02*
X55723676Y-76651595D01*
X55723676Y-76651595D02*
X55818914Y-76603976D01*
X55818914Y-76603976D02*
X56009390Y-76556357D01*
X56009390Y-76556357D02*
X56152247Y-76556357D01*
X56152247Y-76556357D02*
X56342723Y-76603976D01*
X56342723Y-76603976D02*
X56437961Y-76651595D01*
X56437961Y-76651595D02*
X56533200Y-76746833D01*
X56533200Y-76746833D02*
X56580819Y-76889690D01*
X56580819Y-76889690D02*
X56580819Y-77127785D01*
X55580819Y-76223023D02*
X55580819Y-75603976D01*
X55580819Y-75603976D02*
X55961771Y-75937309D01*
X55961771Y-75937309D02*
X55961771Y-75794452D01*
X55961771Y-75794452D02*
X56009390Y-75699214D01*
X56009390Y-75699214D02*
X56057009Y-75651595D01*
X56057009Y-75651595D02*
X56152247Y-75603976D01*
X56152247Y-75603976D02*
X56390342Y-75603976D01*
X56390342Y-75603976D02*
X56485580Y-75651595D01*
X56485580Y-75651595D02*
X56533200Y-75699214D01*
X56533200Y-75699214D02*
X56580819Y-75794452D01*
X56580819Y-75794452D02*
X56580819Y-76080166D01*
X56580819Y-76080166D02*
X56533200Y-76175404D01*
X56533200Y-76175404D02*
X56485580Y-76223023D01*
X56009390Y-75032547D02*
X55961771Y-75127785D01*
X55961771Y-75127785D02*
X55914152Y-75175404D01*
X55914152Y-75175404D02*
X55818914Y-75223023D01*
X55818914Y-75223023D02*
X55771295Y-75223023D01*
X55771295Y-75223023D02*
X55676057Y-75175404D01*
X55676057Y-75175404D02*
X55628438Y-75127785D01*
X55628438Y-75127785D02*
X55580819Y-75032547D01*
X55580819Y-75032547D02*
X55580819Y-74842071D01*
X55580819Y-74842071D02*
X55628438Y-74746833D01*
X55628438Y-74746833D02*
X55676057Y-74699214D01*
X55676057Y-74699214D02*
X55771295Y-74651595D01*
X55771295Y-74651595D02*
X55818914Y-74651595D01*
X55818914Y-74651595D02*
X55914152Y-74699214D01*
X55914152Y-74699214D02*
X55961771Y-74746833D01*
X55961771Y-74746833D02*
X56009390Y-74842071D01*
X56009390Y-74842071D02*
X56009390Y-75032547D01*
X56009390Y-75032547D02*
X56057009Y-75127785D01*
X56057009Y-75127785D02*
X56104628Y-75175404D01*
X56104628Y-75175404D02*
X56199866Y-75223023D01*
X56199866Y-75223023D02*
X56390342Y-75223023D01*
X56390342Y-75223023D02*
X56485580Y-75175404D01*
X56485580Y-75175404D02*
X56533200Y-75127785D01*
X56533200Y-75127785D02*
X56580819Y-75032547D01*
X56580819Y-75032547D02*
X56580819Y-74842071D01*
X56580819Y-74842071D02*
X56533200Y-74746833D01*
X56533200Y-74746833D02*
X56485580Y-74699214D01*
X56485580Y-74699214D02*
X56390342Y-74651595D01*
X56390342Y-74651595D02*
X56199866Y-74651595D01*
X56199866Y-74651595D02*
X56104628Y-74699214D01*
X56104628Y-74699214D02*
X56057009Y-74746833D01*
X56057009Y-74746833D02*
X56009390Y-74842071D01*
X61660819Y-82207785D02*
X60660819Y-82207785D01*
X60660819Y-82207785D02*
X60660819Y-81969690D01*
X60660819Y-81969690D02*
X60708438Y-81826833D01*
X60708438Y-81826833D02*
X60803676Y-81731595D01*
X60803676Y-81731595D02*
X60898914Y-81683976D01*
X60898914Y-81683976D02*
X61089390Y-81636357D01*
X61089390Y-81636357D02*
X61232247Y-81636357D01*
X61232247Y-81636357D02*
X61422723Y-81683976D01*
X61422723Y-81683976D02*
X61517961Y-81731595D01*
X61517961Y-81731595D02*
X61613200Y-81826833D01*
X61613200Y-81826833D02*
X61660819Y-81969690D01*
X61660819Y-81969690D02*
X61660819Y-82207785D01*
X60660819Y-81303023D02*
X60660819Y-80683976D01*
X60660819Y-80683976D02*
X61041771Y-81017309D01*
X61041771Y-81017309D02*
X61041771Y-80874452D01*
X61041771Y-80874452D02*
X61089390Y-80779214D01*
X61089390Y-80779214D02*
X61137009Y-80731595D01*
X61137009Y-80731595D02*
X61232247Y-80683976D01*
X61232247Y-80683976D02*
X61470342Y-80683976D01*
X61470342Y-80683976D02*
X61565580Y-80731595D01*
X61565580Y-80731595D02*
X61613200Y-80779214D01*
X61613200Y-80779214D02*
X61660819Y-80874452D01*
X61660819Y-80874452D02*
X61660819Y-81160166D01*
X61660819Y-81160166D02*
X61613200Y-81255404D01*
X61613200Y-81255404D02*
X61565580Y-81303023D01*
X61660819Y-79731595D02*
X61660819Y-80303023D01*
X61660819Y-80017309D02*
X60660819Y-80017309D01*
X60660819Y-80017309D02*
X60803676Y-80112547D01*
X60803676Y-80112547D02*
X60898914Y-80207785D01*
X60898914Y-80207785D02*
X60946533Y-80303023D01*
X36260819Y-92367785D02*
X35260819Y-92367785D01*
X35260819Y-92367785D02*
X35260819Y-92129690D01*
X35260819Y-92129690D02*
X35308438Y-91986833D01*
X35308438Y-91986833D02*
X35403676Y-91891595D01*
X35403676Y-91891595D02*
X35498914Y-91843976D01*
X35498914Y-91843976D02*
X35689390Y-91796357D01*
X35689390Y-91796357D02*
X35832247Y-91796357D01*
X35832247Y-91796357D02*
X36022723Y-91843976D01*
X36022723Y-91843976D02*
X36117961Y-91891595D01*
X36117961Y-91891595D02*
X36213200Y-91986833D01*
X36213200Y-91986833D02*
X36260819Y-92129690D01*
X36260819Y-92129690D02*
X36260819Y-92367785D01*
X36260819Y-90843976D02*
X36260819Y-91415404D01*
X36260819Y-91129690D02*
X35260819Y-91129690D01*
X35260819Y-91129690D02*
X35403676Y-91224928D01*
X35403676Y-91224928D02*
X35498914Y-91320166D01*
X35498914Y-91320166D02*
X35546533Y-91415404D01*
X35260819Y-90224928D02*
X35260819Y-90129690D01*
X35260819Y-90129690D02*
X35308438Y-90034452D01*
X35308438Y-90034452D02*
X35356057Y-89986833D01*
X35356057Y-89986833D02*
X35451295Y-89939214D01*
X35451295Y-89939214D02*
X35641771Y-89891595D01*
X35641771Y-89891595D02*
X35879866Y-89891595D01*
X35879866Y-89891595D02*
X36070342Y-89939214D01*
X36070342Y-89939214D02*
X36165580Y-89986833D01*
X36165580Y-89986833D02*
X36213200Y-90034452D01*
X36213200Y-90034452D02*
X36260819Y-90129690D01*
X36260819Y-90129690D02*
X36260819Y-90224928D01*
X36260819Y-90224928D02*
X36213200Y-90320166D01*
X36213200Y-90320166D02*
X36165580Y-90367785D01*
X36165580Y-90367785D02*
X36070342Y-90415404D01*
X36070342Y-90415404D02*
X35879866Y-90463023D01*
X35879866Y-90463023D02*
X35641771Y-90463023D01*
X35641771Y-90463023D02*
X35451295Y-90415404D01*
X35451295Y-90415404D02*
X35356057Y-90367785D01*
X35356057Y-90367785D02*
X35308438Y-90320166D01*
X35308438Y-90320166D02*
X35260819Y-90224928D01*
X41340819Y-82207785D02*
X40340819Y-82207785D01*
X40340819Y-82207785D02*
X40340819Y-81969690D01*
X40340819Y-81969690D02*
X40388438Y-81826833D01*
X40388438Y-81826833D02*
X40483676Y-81731595D01*
X40483676Y-81731595D02*
X40578914Y-81683976D01*
X40578914Y-81683976D02*
X40769390Y-81636357D01*
X40769390Y-81636357D02*
X40912247Y-81636357D01*
X40912247Y-81636357D02*
X41102723Y-81683976D01*
X41102723Y-81683976D02*
X41197961Y-81731595D01*
X41197961Y-81731595D02*
X41293200Y-81826833D01*
X41293200Y-81826833D02*
X41340819Y-81969690D01*
X41340819Y-81969690D02*
X41340819Y-82207785D01*
X40436057Y-81255404D02*
X40388438Y-81207785D01*
X40388438Y-81207785D02*
X40340819Y-81112547D01*
X40340819Y-81112547D02*
X40340819Y-80874452D01*
X40340819Y-80874452D02*
X40388438Y-80779214D01*
X40388438Y-80779214D02*
X40436057Y-80731595D01*
X40436057Y-80731595D02*
X40531295Y-80683976D01*
X40531295Y-80683976D02*
X40626533Y-80683976D01*
X40626533Y-80683976D02*
X40769390Y-80731595D01*
X40769390Y-80731595D02*
X41340819Y-81303023D01*
X41340819Y-81303023D02*
X41340819Y-80683976D01*
X40340819Y-80350642D02*
X40340819Y-79683976D01*
X40340819Y-79683976D02*
X41340819Y-80112547D01*
X31140819Y-96971594D02*
X30140819Y-96971594D01*
X30140819Y-96971594D02*
X30140819Y-96733499D01*
X30140819Y-96733499D02*
X30188438Y-96590642D01*
X30188438Y-96590642D02*
X30283676Y-96495404D01*
X30283676Y-96495404D02*
X30378914Y-96447785D01*
X30378914Y-96447785D02*
X30569390Y-96400166D01*
X30569390Y-96400166D02*
X30712247Y-96400166D01*
X30712247Y-96400166D02*
X30902723Y-96447785D01*
X30902723Y-96447785D02*
X30997961Y-96495404D01*
X30997961Y-96495404D02*
X31093200Y-96590642D01*
X31093200Y-96590642D02*
X31140819Y-96733499D01*
X31140819Y-96733499D02*
X31140819Y-96971594D01*
X31140819Y-95447785D02*
X31140819Y-96019213D01*
X31140819Y-95733499D02*
X30140819Y-95733499D01*
X30140819Y-95733499D02*
X30283676Y-95828737D01*
X30283676Y-95828737D02*
X30378914Y-95923975D01*
X30378914Y-95923975D02*
X30426533Y-96019213D01*
X66740819Y-77127785D02*
X65740819Y-77127785D01*
X65740819Y-77127785D02*
X65740819Y-76889690D01*
X65740819Y-76889690D02*
X65788438Y-76746833D01*
X65788438Y-76746833D02*
X65883676Y-76651595D01*
X65883676Y-76651595D02*
X65978914Y-76603976D01*
X65978914Y-76603976D02*
X66169390Y-76556357D01*
X66169390Y-76556357D02*
X66312247Y-76556357D01*
X66312247Y-76556357D02*
X66502723Y-76603976D01*
X66502723Y-76603976D02*
X66597961Y-76651595D01*
X66597961Y-76651595D02*
X66693200Y-76746833D01*
X66693200Y-76746833D02*
X66740819Y-76889690D01*
X66740819Y-76889690D02*
X66740819Y-77127785D01*
X66074152Y-75699214D02*
X66740819Y-75699214D01*
X65693200Y-75937309D02*
X66407485Y-76175404D01*
X66407485Y-76175404D02*
X66407485Y-75556357D01*
X65740819Y-74984928D02*
X65740819Y-74889690D01*
X65740819Y-74889690D02*
X65788438Y-74794452D01*
X65788438Y-74794452D02*
X65836057Y-74746833D01*
X65836057Y-74746833D02*
X65931295Y-74699214D01*
X65931295Y-74699214D02*
X66121771Y-74651595D01*
X66121771Y-74651595D02*
X66359866Y-74651595D01*
X66359866Y-74651595D02*
X66550342Y-74699214D01*
X66550342Y-74699214D02*
X66645580Y-74746833D01*
X66645580Y-74746833D02*
X66693200Y-74794452D01*
X66693200Y-74794452D02*
X66740819Y-74889690D01*
X66740819Y-74889690D02*
X66740819Y-74984928D01*
X66740819Y-74984928D02*
X66693200Y-75080166D01*
X66693200Y-75080166D02*
X66645580Y-75127785D01*
X66645580Y-75127785D02*
X66550342Y-75175404D01*
X66550342Y-75175404D02*
X66359866Y-75223023D01*
X66359866Y-75223023D02*
X66121771Y-75223023D01*
X66121771Y-75223023D02*
X65931295Y-75175404D01*
X65931295Y-75175404D02*
X65836057Y-75127785D01*
X65836057Y-75127785D02*
X65788438Y-75080166D01*
X65788438Y-75080166D02*
X65740819Y-74984928D01*
X61660819Y-72047785D02*
X60660819Y-72047785D01*
X60660819Y-72047785D02*
X60660819Y-71809690D01*
X60660819Y-71809690D02*
X60708438Y-71666833D01*
X60708438Y-71666833D02*
X60803676Y-71571595D01*
X60803676Y-71571595D02*
X60898914Y-71523976D01*
X60898914Y-71523976D02*
X61089390Y-71476357D01*
X61089390Y-71476357D02*
X61232247Y-71476357D01*
X61232247Y-71476357D02*
X61422723Y-71523976D01*
X61422723Y-71523976D02*
X61517961Y-71571595D01*
X61517961Y-71571595D02*
X61613200Y-71666833D01*
X61613200Y-71666833D02*
X61660819Y-71809690D01*
X61660819Y-71809690D02*
X61660819Y-72047785D01*
X60994152Y-70619214D02*
X61660819Y-70619214D01*
X60613200Y-70857309D02*
X61327485Y-71095404D01*
X61327485Y-71095404D02*
X61327485Y-70476357D01*
X60660819Y-70190642D02*
X60660819Y-69523976D01*
X60660819Y-69523976D02*
X61660819Y-69952547D01*
X66740819Y-96971594D02*
X65740819Y-96971594D01*
X65740819Y-96971594D02*
X65740819Y-96733499D01*
X65740819Y-96733499D02*
X65788438Y-96590642D01*
X65788438Y-96590642D02*
X65883676Y-96495404D01*
X65883676Y-96495404D02*
X65978914Y-96447785D01*
X65978914Y-96447785D02*
X66169390Y-96400166D01*
X66169390Y-96400166D02*
X66312247Y-96400166D01*
X66312247Y-96400166D02*
X66502723Y-96447785D01*
X66502723Y-96447785D02*
X66597961Y-96495404D01*
X66597961Y-96495404D02*
X66693200Y-96590642D01*
X66693200Y-96590642D02*
X66740819Y-96733499D01*
X66740819Y-96733499D02*
X66740819Y-96971594D01*
X66169390Y-95828737D02*
X66121771Y-95923975D01*
X66121771Y-95923975D02*
X66074152Y-95971594D01*
X66074152Y-95971594D02*
X65978914Y-96019213D01*
X65978914Y-96019213D02*
X65931295Y-96019213D01*
X65931295Y-96019213D02*
X65836057Y-95971594D01*
X65836057Y-95971594D02*
X65788438Y-95923975D01*
X65788438Y-95923975D02*
X65740819Y-95828737D01*
X65740819Y-95828737D02*
X65740819Y-95638261D01*
X65740819Y-95638261D02*
X65788438Y-95543023D01*
X65788438Y-95543023D02*
X65836057Y-95495404D01*
X65836057Y-95495404D02*
X65931295Y-95447785D01*
X65931295Y-95447785D02*
X65978914Y-95447785D01*
X65978914Y-95447785D02*
X66074152Y-95495404D01*
X66074152Y-95495404D02*
X66121771Y-95543023D01*
X66121771Y-95543023D02*
X66169390Y-95638261D01*
X66169390Y-95638261D02*
X66169390Y-95828737D01*
X66169390Y-95828737D02*
X66217009Y-95923975D01*
X66217009Y-95923975D02*
X66264628Y-95971594D01*
X66264628Y-95971594D02*
X66359866Y-96019213D01*
X66359866Y-96019213D02*
X66550342Y-96019213D01*
X66550342Y-96019213D02*
X66645580Y-95971594D01*
X66645580Y-95971594D02*
X66693200Y-95923975D01*
X66693200Y-95923975D02*
X66740819Y-95828737D01*
X66740819Y-95828737D02*
X66740819Y-95638261D01*
X66740819Y-95638261D02*
X66693200Y-95543023D01*
X66693200Y-95543023D02*
X66645580Y-95495404D01*
X66645580Y-95495404D02*
X66550342Y-95447785D01*
X66550342Y-95447785D02*
X66359866Y-95447785D01*
X66359866Y-95447785D02*
X66264628Y-95495404D01*
X66264628Y-95495404D02*
X66217009Y-95543023D01*
X66217009Y-95543023D02*
X66169390Y-95638261D01*
X56580819Y-92367785D02*
X55580819Y-92367785D01*
X55580819Y-92367785D02*
X55580819Y-92129690D01*
X55580819Y-92129690D02*
X55628438Y-91986833D01*
X55628438Y-91986833D02*
X55723676Y-91891595D01*
X55723676Y-91891595D02*
X55818914Y-91843976D01*
X55818914Y-91843976D02*
X56009390Y-91796357D01*
X56009390Y-91796357D02*
X56152247Y-91796357D01*
X56152247Y-91796357D02*
X56342723Y-91843976D01*
X56342723Y-91843976D02*
X56437961Y-91891595D01*
X56437961Y-91891595D02*
X56533200Y-91986833D01*
X56533200Y-91986833D02*
X56580819Y-92129690D01*
X56580819Y-92129690D02*
X56580819Y-92367785D01*
X56580819Y-90843976D02*
X56580819Y-91415404D01*
X56580819Y-91129690D02*
X55580819Y-91129690D01*
X55580819Y-91129690D02*
X55723676Y-91224928D01*
X55723676Y-91224928D02*
X55818914Y-91320166D01*
X55818914Y-91320166D02*
X55866533Y-91415404D01*
X55914152Y-89986833D02*
X56580819Y-89986833D01*
X55533200Y-90224928D02*
X56247485Y-90463023D01*
X56247485Y-90463023D02*
X56247485Y-89843976D01*
X46420819Y-77127785D02*
X45420819Y-77127785D01*
X45420819Y-77127785D02*
X45420819Y-76889690D01*
X45420819Y-76889690D02*
X45468438Y-76746833D01*
X45468438Y-76746833D02*
X45563676Y-76651595D01*
X45563676Y-76651595D02*
X45658914Y-76603976D01*
X45658914Y-76603976D02*
X45849390Y-76556357D01*
X45849390Y-76556357D02*
X45992247Y-76556357D01*
X45992247Y-76556357D02*
X46182723Y-76603976D01*
X46182723Y-76603976D02*
X46277961Y-76651595D01*
X46277961Y-76651595D02*
X46373200Y-76746833D01*
X46373200Y-76746833D02*
X46420819Y-76889690D01*
X46420819Y-76889690D02*
X46420819Y-77127785D01*
X45420819Y-76223023D02*
X45420819Y-75603976D01*
X45420819Y-75603976D02*
X45801771Y-75937309D01*
X45801771Y-75937309D02*
X45801771Y-75794452D01*
X45801771Y-75794452D02*
X45849390Y-75699214D01*
X45849390Y-75699214D02*
X45897009Y-75651595D01*
X45897009Y-75651595D02*
X45992247Y-75603976D01*
X45992247Y-75603976D02*
X46230342Y-75603976D01*
X46230342Y-75603976D02*
X46325580Y-75651595D01*
X46325580Y-75651595D02*
X46373200Y-75699214D01*
X46373200Y-75699214D02*
X46420819Y-75794452D01*
X46420819Y-75794452D02*
X46420819Y-76080166D01*
X46420819Y-76080166D02*
X46373200Y-76175404D01*
X46373200Y-76175404D02*
X46325580Y-76223023D01*
X45420819Y-74746833D02*
X45420819Y-74937309D01*
X45420819Y-74937309D02*
X45468438Y-75032547D01*
X45468438Y-75032547D02*
X45516057Y-75080166D01*
X45516057Y-75080166D02*
X45658914Y-75175404D01*
X45658914Y-75175404D02*
X45849390Y-75223023D01*
X45849390Y-75223023D02*
X46230342Y-75223023D01*
X46230342Y-75223023D02*
X46325580Y-75175404D01*
X46325580Y-75175404D02*
X46373200Y-75127785D01*
X46373200Y-75127785D02*
X46420819Y-75032547D01*
X46420819Y-75032547D02*
X46420819Y-74842071D01*
X46420819Y-74842071D02*
X46373200Y-74746833D01*
X46373200Y-74746833D02*
X46325580Y-74699214D01*
X46325580Y-74699214D02*
X46230342Y-74651595D01*
X46230342Y-74651595D02*
X45992247Y-74651595D01*
X45992247Y-74651595D02*
X45897009Y-74699214D01*
X45897009Y-74699214D02*
X45849390Y-74746833D01*
X45849390Y-74746833D02*
X45801771Y-74842071D01*
X45801771Y-74842071D02*
X45801771Y-75032547D01*
X45801771Y-75032547D02*
X45849390Y-75127785D01*
X45849390Y-75127785D02*
X45897009Y-75175404D01*
X45897009Y-75175404D02*
X45992247Y-75223023D01*
X56580819Y-82207785D02*
X55580819Y-82207785D01*
X55580819Y-82207785D02*
X55580819Y-81969690D01*
X55580819Y-81969690D02*
X55628438Y-81826833D01*
X55628438Y-81826833D02*
X55723676Y-81731595D01*
X55723676Y-81731595D02*
X55818914Y-81683976D01*
X55818914Y-81683976D02*
X56009390Y-81636357D01*
X56009390Y-81636357D02*
X56152247Y-81636357D01*
X56152247Y-81636357D02*
X56342723Y-81683976D01*
X56342723Y-81683976D02*
X56437961Y-81731595D01*
X56437961Y-81731595D02*
X56533200Y-81826833D01*
X56533200Y-81826833D02*
X56580819Y-81969690D01*
X56580819Y-81969690D02*
X56580819Y-82207785D01*
X55580819Y-81303023D02*
X55580819Y-80683976D01*
X55580819Y-80683976D02*
X55961771Y-81017309D01*
X55961771Y-81017309D02*
X55961771Y-80874452D01*
X55961771Y-80874452D02*
X56009390Y-80779214D01*
X56009390Y-80779214D02*
X56057009Y-80731595D01*
X56057009Y-80731595D02*
X56152247Y-80683976D01*
X56152247Y-80683976D02*
X56390342Y-80683976D01*
X56390342Y-80683976D02*
X56485580Y-80731595D01*
X56485580Y-80731595D02*
X56533200Y-80779214D01*
X56533200Y-80779214D02*
X56580819Y-80874452D01*
X56580819Y-80874452D02*
X56580819Y-81160166D01*
X56580819Y-81160166D02*
X56533200Y-81255404D01*
X56533200Y-81255404D02*
X56485580Y-81303023D01*
X55580819Y-80064928D02*
X55580819Y-79969690D01*
X55580819Y-79969690D02*
X55628438Y-79874452D01*
X55628438Y-79874452D02*
X55676057Y-79826833D01*
X55676057Y-79826833D02*
X55771295Y-79779214D01*
X55771295Y-79779214D02*
X55961771Y-79731595D01*
X55961771Y-79731595D02*
X56199866Y-79731595D01*
X56199866Y-79731595D02*
X56390342Y-79779214D01*
X56390342Y-79779214D02*
X56485580Y-79826833D01*
X56485580Y-79826833D02*
X56533200Y-79874452D01*
X56533200Y-79874452D02*
X56580819Y-79969690D01*
X56580819Y-79969690D02*
X56580819Y-80064928D01*
X56580819Y-80064928D02*
X56533200Y-80160166D01*
X56533200Y-80160166D02*
X56485580Y-80207785D01*
X56485580Y-80207785D02*
X56390342Y-80255404D01*
X56390342Y-80255404D02*
X56199866Y-80303023D01*
X56199866Y-80303023D02*
X55961771Y-80303023D01*
X55961771Y-80303023D02*
X55771295Y-80255404D01*
X55771295Y-80255404D02*
X55676057Y-80207785D01*
X55676057Y-80207785D02*
X55628438Y-80160166D01*
X55628438Y-80160166D02*
X55580819Y-80064928D01*
X36260819Y-87287785D02*
X35260819Y-87287785D01*
X35260819Y-87287785D02*
X35260819Y-87049690D01*
X35260819Y-87049690D02*
X35308438Y-86906833D01*
X35308438Y-86906833D02*
X35403676Y-86811595D01*
X35403676Y-86811595D02*
X35498914Y-86763976D01*
X35498914Y-86763976D02*
X35689390Y-86716357D01*
X35689390Y-86716357D02*
X35832247Y-86716357D01*
X35832247Y-86716357D02*
X36022723Y-86763976D01*
X36022723Y-86763976D02*
X36117961Y-86811595D01*
X36117961Y-86811595D02*
X36213200Y-86906833D01*
X36213200Y-86906833D02*
X36260819Y-87049690D01*
X36260819Y-87049690D02*
X36260819Y-87287785D01*
X36260819Y-85763976D02*
X36260819Y-86335404D01*
X36260819Y-86049690D02*
X35260819Y-86049690D01*
X35260819Y-86049690D02*
X35403676Y-86144928D01*
X35403676Y-86144928D02*
X35498914Y-86240166D01*
X35498914Y-86240166D02*
X35546533Y-86335404D01*
X35689390Y-85192547D02*
X35641771Y-85287785D01*
X35641771Y-85287785D02*
X35594152Y-85335404D01*
X35594152Y-85335404D02*
X35498914Y-85383023D01*
X35498914Y-85383023D02*
X35451295Y-85383023D01*
X35451295Y-85383023D02*
X35356057Y-85335404D01*
X35356057Y-85335404D02*
X35308438Y-85287785D01*
X35308438Y-85287785D02*
X35260819Y-85192547D01*
X35260819Y-85192547D02*
X35260819Y-85002071D01*
X35260819Y-85002071D02*
X35308438Y-84906833D01*
X35308438Y-84906833D02*
X35356057Y-84859214D01*
X35356057Y-84859214D02*
X35451295Y-84811595D01*
X35451295Y-84811595D02*
X35498914Y-84811595D01*
X35498914Y-84811595D02*
X35594152Y-84859214D01*
X35594152Y-84859214D02*
X35641771Y-84906833D01*
X35641771Y-84906833D02*
X35689390Y-85002071D01*
X35689390Y-85002071D02*
X35689390Y-85192547D01*
X35689390Y-85192547D02*
X35737009Y-85287785D01*
X35737009Y-85287785D02*
X35784628Y-85335404D01*
X35784628Y-85335404D02*
X35879866Y-85383023D01*
X35879866Y-85383023D02*
X36070342Y-85383023D01*
X36070342Y-85383023D02*
X36165580Y-85335404D01*
X36165580Y-85335404D02*
X36213200Y-85287785D01*
X36213200Y-85287785D02*
X36260819Y-85192547D01*
X36260819Y-85192547D02*
X36260819Y-85002071D01*
X36260819Y-85002071D02*
X36213200Y-84906833D01*
X36213200Y-84906833D02*
X36165580Y-84859214D01*
X36165580Y-84859214D02*
X36070342Y-84811595D01*
X36070342Y-84811595D02*
X35879866Y-84811595D01*
X35879866Y-84811595D02*
X35784628Y-84859214D01*
X35784628Y-84859214D02*
X35737009Y-84906833D01*
X35737009Y-84906833D02*
X35689390Y-85002071D01*
X66740819Y-92367785D02*
X65740819Y-92367785D01*
X65740819Y-92367785D02*
X65740819Y-92129690D01*
X65740819Y-92129690D02*
X65788438Y-91986833D01*
X65788438Y-91986833D02*
X65883676Y-91891595D01*
X65883676Y-91891595D02*
X65978914Y-91843976D01*
X65978914Y-91843976D02*
X66169390Y-91796357D01*
X66169390Y-91796357D02*
X66312247Y-91796357D01*
X66312247Y-91796357D02*
X66502723Y-91843976D01*
X66502723Y-91843976D02*
X66597961Y-91891595D01*
X66597961Y-91891595D02*
X66693200Y-91986833D01*
X66693200Y-91986833D02*
X66740819Y-92129690D01*
X66740819Y-92129690D02*
X66740819Y-92367785D01*
X66740819Y-90843976D02*
X66740819Y-91415404D01*
X66740819Y-91129690D02*
X65740819Y-91129690D01*
X65740819Y-91129690D02*
X65883676Y-91224928D01*
X65883676Y-91224928D02*
X65978914Y-91320166D01*
X65978914Y-91320166D02*
X66026533Y-91415404D01*
X65740819Y-89986833D02*
X65740819Y-90177309D01*
X65740819Y-90177309D02*
X65788438Y-90272547D01*
X65788438Y-90272547D02*
X65836057Y-90320166D01*
X65836057Y-90320166D02*
X65978914Y-90415404D01*
X65978914Y-90415404D02*
X66169390Y-90463023D01*
X66169390Y-90463023D02*
X66550342Y-90463023D01*
X66550342Y-90463023D02*
X66645580Y-90415404D01*
X66645580Y-90415404D02*
X66693200Y-90367785D01*
X66693200Y-90367785D02*
X66740819Y-90272547D01*
X66740819Y-90272547D02*
X66740819Y-90082071D01*
X66740819Y-90082071D02*
X66693200Y-89986833D01*
X66693200Y-89986833D02*
X66645580Y-89939214D01*
X66645580Y-89939214D02*
X66550342Y-89891595D01*
X66550342Y-89891595D02*
X66312247Y-89891595D01*
X66312247Y-89891595D02*
X66217009Y-89939214D01*
X66217009Y-89939214D02*
X66169390Y-89986833D01*
X66169390Y-89986833D02*
X66121771Y-90082071D01*
X66121771Y-90082071D02*
X66121771Y-90272547D01*
X66121771Y-90272547D02*
X66169390Y-90367785D01*
X66169390Y-90367785D02*
X66217009Y-90415404D01*
X66217009Y-90415404D02*
X66312247Y-90463023D01*
X51500819Y-61887785D02*
X50500819Y-61887785D01*
X50500819Y-61887785D02*
X50500819Y-61649690D01*
X50500819Y-61649690D02*
X50548438Y-61506833D01*
X50548438Y-61506833D02*
X50643676Y-61411595D01*
X50643676Y-61411595D02*
X50738914Y-61363976D01*
X50738914Y-61363976D02*
X50929390Y-61316357D01*
X50929390Y-61316357D02*
X51072247Y-61316357D01*
X51072247Y-61316357D02*
X51262723Y-61363976D01*
X51262723Y-61363976D02*
X51357961Y-61411595D01*
X51357961Y-61411595D02*
X51453200Y-61506833D01*
X51453200Y-61506833D02*
X51500819Y-61649690D01*
X51500819Y-61649690D02*
X51500819Y-61887785D01*
X50500819Y-60459214D02*
X50500819Y-60649690D01*
X50500819Y-60649690D02*
X50548438Y-60744928D01*
X50548438Y-60744928D02*
X50596057Y-60792547D01*
X50596057Y-60792547D02*
X50738914Y-60887785D01*
X50738914Y-60887785D02*
X50929390Y-60935404D01*
X50929390Y-60935404D02*
X51310342Y-60935404D01*
X51310342Y-60935404D02*
X51405580Y-60887785D01*
X51405580Y-60887785D02*
X51453200Y-60840166D01*
X51453200Y-60840166D02*
X51500819Y-60744928D01*
X51500819Y-60744928D02*
X51500819Y-60554452D01*
X51500819Y-60554452D02*
X51453200Y-60459214D01*
X51453200Y-60459214D02*
X51405580Y-60411595D01*
X51405580Y-60411595D02*
X51310342Y-60363976D01*
X51310342Y-60363976D02*
X51072247Y-60363976D01*
X51072247Y-60363976D02*
X50977009Y-60411595D01*
X50977009Y-60411595D02*
X50929390Y-60459214D01*
X50929390Y-60459214D02*
X50881771Y-60554452D01*
X50881771Y-60554452D02*
X50881771Y-60744928D01*
X50881771Y-60744928D02*
X50929390Y-60840166D01*
X50929390Y-60840166D02*
X50977009Y-60887785D01*
X50977009Y-60887785D02*
X51072247Y-60935404D01*
X51500819Y-59411595D02*
X51500819Y-59983023D01*
X51500819Y-59697309D02*
X50500819Y-59697309D01*
X50500819Y-59697309D02*
X50643676Y-59792547D01*
X50643676Y-59792547D02*
X50738914Y-59887785D01*
X50738914Y-59887785D02*
X50786533Y-59983023D01*
X51500819Y-82207785D02*
X50500819Y-82207785D01*
X50500819Y-82207785D02*
X50500819Y-81969690D01*
X50500819Y-81969690D02*
X50548438Y-81826833D01*
X50548438Y-81826833D02*
X50643676Y-81731595D01*
X50643676Y-81731595D02*
X50738914Y-81683976D01*
X50738914Y-81683976D02*
X50929390Y-81636357D01*
X50929390Y-81636357D02*
X51072247Y-81636357D01*
X51072247Y-81636357D02*
X51262723Y-81683976D01*
X51262723Y-81683976D02*
X51357961Y-81731595D01*
X51357961Y-81731595D02*
X51453200Y-81826833D01*
X51453200Y-81826833D02*
X51500819Y-81969690D01*
X51500819Y-81969690D02*
X51500819Y-82207785D01*
X50596057Y-81255404D02*
X50548438Y-81207785D01*
X50548438Y-81207785D02*
X50500819Y-81112547D01*
X50500819Y-81112547D02*
X50500819Y-80874452D01*
X50500819Y-80874452D02*
X50548438Y-80779214D01*
X50548438Y-80779214D02*
X50596057Y-80731595D01*
X50596057Y-80731595D02*
X50691295Y-80683976D01*
X50691295Y-80683976D02*
X50786533Y-80683976D01*
X50786533Y-80683976D02*
X50929390Y-80731595D01*
X50929390Y-80731595D02*
X51500819Y-81303023D01*
X51500819Y-81303023D02*
X51500819Y-80683976D01*
X51500819Y-80207785D02*
X51500819Y-80017309D01*
X51500819Y-80017309D02*
X51453200Y-79922071D01*
X51453200Y-79922071D02*
X51405580Y-79874452D01*
X51405580Y-79874452D02*
X51262723Y-79779214D01*
X51262723Y-79779214D02*
X51072247Y-79731595D01*
X51072247Y-79731595D02*
X50691295Y-79731595D01*
X50691295Y-79731595D02*
X50596057Y-79779214D01*
X50596057Y-79779214D02*
X50548438Y-79826833D01*
X50548438Y-79826833D02*
X50500819Y-79922071D01*
X50500819Y-79922071D02*
X50500819Y-80112547D01*
X50500819Y-80112547D02*
X50548438Y-80207785D01*
X50548438Y-80207785D02*
X50596057Y-80255404D01*
X50596057Y-80255404D02*
X50691295Y-80303023D01*
X50691295Y-80303023D02*
X50929390Y-80303023D01*
X50929390Y-80303023D02*
X51024628Y-80255404D01*
X51024628Y-80255404D02*
X51072247Y-80207785D01*
X51072247Y-80207785D02*
X51119866Y-80112547D01*
X51119866Y-80112547D02*
X51119866Y-79922071D01*
X51119866Y-79922071D02*
X51072247Y-79826833D01*
X51072247Y-79826833D02*
X51024628Y-79779214D01*
X51024628Y-79779214D02*
X50929390Y-79731595D01*
X56580819Y-96971594D02*
X55580819Y-96971594D01*
X55580819Y-96971594D02*
X55580819Y-96733499D01*
X55580819Y-96733499D02*
X55628438Y-96590642D01*
X55628438Y-96590642D02*
X55723676Y-96495404D01*
X55723676Y-96495404D02*
X55818914Y-96447785D01*
X55818914Y-96447785D02*
X56009390Y-96400166D01*
X56009390Y-96400166D02*
X56152247Y-96400166D01*
X56152247Y-96400166D02*
X56342723Y-96447785D01*
X56342723Y-96447785D02*
X56437961Y-96495404D01*
X56437961Y-96495404D02*
X56533200Y-96590642D01*
X56533200Y-96590642D02*
X56580819Y-96733499D01*
X56580819Y-96733499D02*
X56580819Y-96971594D01*
X55580819Y-95543023D02*
X55580819Y-95733499D01*
X55580819Y-95733499D02*
X55628438Y-95828737D01*
X55628438Y-95828737D02*
X55676057Y-95876356D01*
X55676057Y-95876356D02*
X55818914Y-95971594D01*
X55818914Y-95971594D02*
X56009390Y-96019213D01*
X56009390Y-96019213D02*
X56390342Y-96019213D01*
X56390342Y-96019213D02*
X56485580Y-95971594D01*
X56485580Y-95971594D02*
X56533200Y-95923975D01*
X56533200Y-95923975D02*
X56580819Y-95828737D01*
X56580819Y-95828737D02*
X56580819Y-95638261D01*
X56580819Y-95638261D02*
X56533200Y-95543023D01*
X56533200Y-95543023D02*
X56485580Y-95495404D01*
X56485580Y-95495404D02*
X56390342Y-95447785D01*
X56390342Y-95447785D02*
X56152247Y-95447785D01*
X56152247Y-95447785D02*
X56057009Y-95495404D01*
X56057009Y-95495404D02*
X56009390Y-95543023D01*
X56009390Y-95543023D02*
X55961771Y-95638261D01*
X55961771Y-95638261D02*
X55961771Y-95828737D01*
X55961771Y-95828737D02*
X56009390Y-95923975D01*
X56009390Y-95923975D02*
X56057009Y-95971594D01*
X56057009Y-95971594D02*
X56152247Y-96019213D01*
X36260819Y-66967785D02*
X35260819Y-66967785D01*
X35260819Y-66967785D02*
X35260819Y-66729690D01*
X35260819Y-66729690D02*
X35308438Y-66586833D01*
X35308438Y-66586833D02*
X35403676Y-66491595D01*
X35403676Y-66491595D02*
X35498914Y-66443976D01*
X35498914Y-66443976D02*
X35689390Y-66396357D01*
X35689390Y-66396357D02*
X35832247Y-66396357D01*
X35832247Y-66396357D02*
X36022723Y-66443976D01*
X36022723Y-66443976D02*
X36117961Y-66491595D01*
X36117961Y-66491595D02*
X36213200Y-66586833D01*
X36213200Y-66586833D02*
X36260819Y-66729690D01*
X36260819Y-66729690D02*
X36260819Y-66967785D01*
X35260819Y-65491595D02*
X35260819Y-65967785D01*
X35260819Y-65967785D02*
X35737009Y-66015404D01*
X35737009Y-66015404D02*
X35689390Y-65967785D01*
X35689390Y-65967785D02*
X35641771Y-65872547D01*
X35641771Y-65872547D02*
X35641771Y-65634452D01*
X35641771Y-65634452D02*
X35689390Y-65539214D01*
X35689390Y-65539214D02*
X35737009Y-65491595D01*
X35737009Y-65491595D02*
X35832247Y-65443976D01*
X35832247Y-65443976D02*
X36070342Y-65443976D01*
X36070342Y-65443976D02*
X36165580Y-65491595D01*
X36165580Y-65491595D02*
X36213200Y-65539214D01*
X36213200Y-65539214D02*
X36260819Y-65634452D01*
X36260819Y-65634452D02*
X36260819Y-65872547D01*
X36260819Y-65872547D02*
X36213200Y-65967785D01*
X36213200Y-65967785D02*
X36165580Y-66015404D01*
X35260819Y-64824928D02*
X35260819Y-64729690D01*
X35260819Y-64729690D02*
X35308438Y-64634452D01*
X35308438Y-64634452D02*
X35356057Y-64586833D01*
X35356057Y-64586833D02*
X35451295Y-64539214D01*
X35451295Y-64539214D02*
X35641771Y-64491595D01*
X35641771Y-64491595D02*
X35879866Y-64491595D01*
X35879866Y-64491595D02*
X36070342Y-64539214D01*
X36070342Y-64539214D02*
X36165580Y-64586833D01*
X36165580Y-64586833D02*
X36213200Y-64634452D01*
X36213200Y-64634452D02*
X36260819Y-64729690D01*
X36260819Y-64729690D02*
X36260819Y-64824928D01*
X36260819Y-64824928D02*
X36213200Y-64920166D01*
X36213200Y-64920166D02*
X36165580Y-64967785D01*
X36165580Y-64967785D02*
X36070342Y-65015404D01*
X36070342Y-65015404D02*
X35879866Y-65063023D01*
X35879866Y-65063023D02*
X35641771Y-65063023D01*
X35641771Y-65063023D02*
X35451295Y-65015404D01*
X35451295Y-65015404D02*
X35356057Y-64967785D01*
X35356057Y-64967785D02*
X35308438Y-64920166D01*
X35308438Y-64920166D02*
X35260819Y-64824928D01*
X56580819Y-66967785D02*
X55580819Y-66967785D01*
X55580819Y-66967785D02*
X55580819Y-66729690D01*
X55580819Y-66729690D02*
X55628438Y-66586833D01*
X55628438Y-66586833D02*
X55723676Y-66491595D01*
X55723676Y-66491595D02*
X55818914Y-66443976D01*
X55818914Y-66443976D02*
X56009390Y-66396357D01*
X56009390Y-66396357D02*
X56152247Y-66396357D01*
X56152247Y-66396357D02*
X56342723Y-66443976D01*
X56342723Y-66443976D02*
X56437961Y-66491595D01*
X56437961Y-66491595D02*
X56533200Y-66586833D01*
X56533200Y-66586833D02*
X56580819Y-66729690D01*
X56580819Y-66729690D02*
X56580819Y-66967785D01*
X55580819Y-65491595D02*
X55580819Y-65967785D01*
X55580819Y-65967785D02*
X56057009Y-66015404D01*
X56057009Y-66015404D02*
X56009390Y-65967785D01*
X56009390Y-65967785D02*
X55961771Y-65872547D01*
X55961771Y-65872547D02*
X55961771Y-65634452D01*
X55961771Y-65634452D02*
X56009390Y-65539214D01*
X56009390Y-65539214D02*
X56057009Y-65491595D01*
X56057009Y-65491595D02*
X56152247Y-65443976D01*
X56152247Y-65443976D02*
X56390342Y-65443976D01*
X56390342Y-65443976D02*
X56485580Y-65491595D01*
X56485580Y-65491595D02*
X56533200Y-65539214D01*
X56533200Y-65539214D02*
X56580819Y-65634452D01*
X56580819Y-65634452D02*
X56580819Y-65872547D01*
X56580819Y-65872547D02*
X56533200Y-65967785D01*
X56533200Y-65967785D02*
X56485580Y-66015404D01*
X55914152Y-64586833D02*
X56580819Y-64586833D01*
X55533200Y-64824928D02*
X56247485Y-65063023D01*
X56247485Y-65063023D02*
X56247485Y-64443976D01*
X41340819Y-77127785D02*
X40340819Y-77127785D01*
X40340819Y-77127785D02*
X40340819Y-76889690D01*
X40340819Y-76889690D02*
X40388438Y-76746833D01*
X40388438Y-76746833D02*
X40483676Y-76651595D01*
X40483676Y-76651595D02*
X40578914Y-76603976D01*
X40578914Y-76603976D02*
X40769390Y-76556357D01*
X40769390Y-76556357D02*
X40912247Y-76556357D01*
X40912247Y-76556357D02*
X41102723Y-76603976D01*
X41102723Y-76603976D02*
X41197961Y-76651595D01*
X41197961Y-76651595D02*
X41293200Y-76746833D01*
X41293200Y-76746833D02*
X41340819Y-76889690D01*
X41340819Y-76889690D02*
X41340819Y-77127785D01*
X40340819Y-76223023D02*
X40340819Y-75603976D01*
X40340819Y-75603976D02*
X40721771Y-75937309D01*
X40721771Y-75937309D02*
X40721771Y-75794452D01*
X40721771Y-75794452D02*
X40769390Y-75699214D01*
X40769390Y-75699214D02*
X40817009Y-75651595D01*
X40817009Y-75651595D02*
X40912247Y-75603976D01*
X40912247Y-75603976D02*
X41150342Y-75603976D01*
X41150342Y-75603976D02*
X41245580Y-75651595D01*
X41245580Y-75651595D02*
X41293200Y-75699214D01*
X41293200Y-75699214D02*
X41340819Y-75794452D01*
X41340819Y-75794452D02*
X41340819Y-76080166D01*
X41340819Y-76080166D02*
X41293200Y-76175404D01*
X41293200Y-76175404D02*
X41245580Y-76223023D01*
X40340819Y-74699214D02*
X40340819Y-75175404D01*
X40340819Y-75175404D02*
X40817009Y-75223023D01*
X40817009Y-75223023D02*
X40769390Y-75175404D01*
X40769390Y-75175404D02*
X40721771Y-75080166D01*
X40721771Y-75080166D02*
X40721771Y-74842071D01*
X40721771Y-74842071D02*
X40769390Y-74746833D01*
X40769390Y-74746833D02*
X40817009Y-74699214D01*
X40817009Y-74699214D02*
X40912247Y-74651595D01*
X40912247Y-74651595D02*
X41150342Y-74651595D01*
X41150342Y-74651595D02*
X41245580Y-74699214D01*
X41245580Y-74699214D02*
X41293200Y-74746833D01*
X41293200Y-74746833D02*
X41340819Y-74842071D01*
X41340819Y-74842071D02*
X41340819Y-75080166D01*
X41340819Y-75080166D02*
X41293200Y-75175404D01*
X41293200Y-75175404D02*
X41245580Y-75223023D01*
X31180819Y-72047785D02*
X30180819Y-72047785D01*
X30180819Y-72047785D02*
X30180819Y-71809690D01*
X30180819Y-71809690D02*
X30228438Y-71666833D01*
X30228438Y-71666833D02*
X30323676Y-71571595D01*
X30323676Y-71571595D02*
X30418914Y-71523976D01*
X30418914Y-71523976D02*
X30609390Y-71476357D01*
X30609390Y-71476357D02*
X30752247Y-71476357D01*
X30752247Y-71476357D02*
X30942723Y-71523976D01*
X30942723Y-71523976D02*
X31037961Y-71571595D01*
X31037961Y-71571595D02*
X31133200Y-71666833D01*
X31133200Y-71666833D02*
X31180819Y-71809690D01*
X31180819Y-71809690D02*
X31180819Y-72047785D01*
X30514152Y-70619214D02*
X31180819Y-70619214D01*
X30133200Y-70857309D02*
X30847485Y-71095404D01*
X30847485Y-71095404D02*
X30847485Y-70476357D01*
X31180819Y-69571595D02*
X31180819Y-70143023D01*
X31180819Y-69857309D02*
X30180819Y-69857309D01*
X30180819Y-69857309D02*
X30323676Y-69952547D01*
X30323676Y-69952547D02*
X30418914Y-70047785D01*
X30418914Y-70047785D02*
X30466533Y-70143023D01*
X36260819Y-72047785D02*
X35260819Y-72047785D01*
X35260819Y-72047785D02*
X35260819Y-71809690D01*
X35260819Y-71809690D02*
X35308438Y-71666833D01*
X35308438Y-71666833D02*
X35403676Y-71571595D01*
X35403676Y-71571595D02*
X35498914Y-71523976D01*
X35498914Y-71523976D02*
X35689390Y-71476357D01*
X35689390Y-71476357D02*
X35832247Y-71476357D01*
X35832247Y-71476357D02*
X36022723Y-71523976D01*
X36022723Y-71523976D02*
X36117961Y-71571595D01*
X36117961Y-71571595D02*
X36213200Y-71666833D01*
X36213200Y-71666833D02*
X36260819Y-71809690D01*
X36260819Y-71809690D02*
X36260819Y-72047785D01*
X35594152Y-70619214D02*
X36260819Y-70619214D01*
X35213200Y-70857309D02*
X35927485Y-71095404D01*
X35927485Y-71095404D02*
X35927485Y-70476357D01*
X35356057Y-70143023D02*
X35308438Y-70095404D01*
X35308438Y-70095404D02*
X35260819Y-70000166D01*
X35260819Y-70000166D02*
X35260819Y-69762071D01*
X35260819Y-69762071D02*
X35308438Y-69666833D01*
X35308438Y-69666833D02*
X35356057Y-69619214D01*
X35356057Y-69619214D02*
X35451295Y-69571595D01*
X35451295Y-69571595D02*
X35546533Y-69571595D01*
X35546533Y-69571595D02*
X35689390Y-69619214D01*
X35689390Y-69619214D02*
X36260819Y-70190642D01*
X36260819Y-70190642D02*
X36260819Y-69571595D01*
X51500819Y-72047785D02*
X50500819Y-72047785D01*
X50500819Y-72047785D02*
X50500819Y-71809690D01*
X50500819Y-71809690D02*
X50548438Y-71666833D01*
X50548438Y-71666833D02*
X50643676Y-71571595D01*
X50643676Y-71571595D02*
X50738914Y-71523976D01*
X50738914Y-71523976D02*
X50929390Y-71476357D01*
X50929390Y-71476357D02*
X51072247Y-71476357D01*
X51072247Y-71476357D02*
X51262723Y-71523976D01*
X51262723Y-71523976D02*
X51357961Y-71571595D01*
X51357961Y-71571595D02*
X51453200Y-71666833D01*
X51453200Y-71666833D02*
X51500819Y-71809690D01*
X51500819Y-71809690D02*
X51500819Y-72047785D01*
X50834152Y-70619214D02*
X51500819Y-70619214D01*
X50453200Y-70857309D02*
X51167485Y-71095404D01*
X51167485Y-71095404D02*
X51167485Y-70476357D01*
X50500819Y-69619214D02*
X50500819Y-70095404D01*
X50500819Y-70095404D02*
X50977009Y-70143023D01*
X50977009Y-70143023D02*
X50929390Y-70095404D01*
X50929390Y-70095404D02*
X50881771Y-70000166D01*
X50881771Y-70000166D02*
X50881771Y-69762071D01*
X50881771Y-69762071D02*
X50929390Y-69666833D01*
X50929390Y-69666833D02*
X50977009Y-69619214D01*
X50977009Y-69619214D02*
X51072247Y-69571595D01*
X51072247Y-69571595D02*
X51310342Y-69571595D01*
X51310342Y-69571595D02*
X51405580Y-69619214D01*
X51405580Y-69619214D02*
X51453200Y-69666833D01*
X51453200Y-69666833D02*
X51500819Y-69762071D01*
X51500819Y-69762071D02*
X51500819Y-70000166D01*
X51500819Y-70000166D02*
X51453200Y-70095404D01*
X51453200Y-70095404D02*
X51405580Y-70143023D01*
X31180819Y-91891594D02*
X30180819Y-91891594D01*
X30180819Y-91891594D02*
X30180819Y-91653499D01*
X30180819Y-91653499D02*
X30228438Y-91510642D01*
X30228438Y-91510642D02*
X30323676Y-91415404D01*
X30323676Y-91415404D02*
X30418914Y-91367785D01*
X30418914Y-91367785D02*
X30609390Y-91320166D01*
X30609390Y-91320166D02*
X30752247Y-91320166D01*
X30752247Y-91320166D02*
X30942723Y-91367785D01*
X30942723Y-91367785D02*
X31037961Y-91415404D01*
X31037961Y-91415404D02*
X31133200Y-91510642D01*
X31133200Y-91510642D02*
X31180819Y-91653499D01*
X31180819Y-91653499D02*
X31180819Y-91891594D01*
X31180819Y-90843975D02*
X31180819Y-90653499D01*
X31180819Y-90653499D02*
X31133200Y-90558261D01*
X31133200Y-90558261D02*
X31085580Y-90510642D01*
X31085580Y-90510642D02*
X30942723Y-90415404D01*
X30942723Y-90415404D02*
X30752247Y-90367785D01*
X30752247Y-90367785D02*
X30371295Y-90367785D01*
X30371295Y-90367785D02*
X30276057Y-90415404D01*
X30276057Y-90415404D02*
X30228438Y-90463023D01*
X30228438Y-90463023D02*
X30180819Y-90558261D01*
X30180819Y-90558261D02*
X30180819Y-90748737D01*
X30180819Y-90748737D02*
X30228438Y-90843975D01*
X30228438Y-90843975D02*
X30276057Y-90891594D01*
X30276057Y-90891594D02*
X30371295Y-90939213D01*
X30371295Y-90939213D02*
X30609390Y-90939213D01*
X30609390Y-90939213D02*
X30704628Y-90891594D01*
X30704628Y-90891594D02*
X30752247Y-90843975D01*
X30752247Y-90843975D02*
X30799866Y-90748737D01*
X30799866Y-90748737D02*
X30799866Y-90558261D01*
X30799866Y-90558261D02*
X30752247Y-90463023D01*
X30752247Y-90463023D02*
X30704628Y-90415404D01*
X30704628Y-90415404D02*
X30609390Y-90367785D01*
X31180819Y-61887785D02*
X30180819Y-61887785D01*
X30180819Y-61887785D02*
X30180819Y-61649690D01*
X30180819Y-61649690D02*
X30228438Y-61506833D01*
X30228438Y-61506833D02*
X30323676Y-61411595D01*
X30323676Y-61411595D02*
X30418914Y-61363976D01*
X30418914Y-61363976D02*
X30609390Y-61316357D01*
X30609390Y-61316357D02*
X30752247Y-61316357D01*
X30752247Y-61316357D02*
X30942723Y-61363976D01*
X30942723Y-61363976D02*
X31037961Y-61411595D01*
X31037961Y-61411595D02*
X31133200Y-61506833D01*
X31133200Y-61506833D02*
X31180819Y-61649690D01*
X31180819Y-61649690D02*
X31180819Y-61887785D01*
X30180819Y-60411595D02*
X30180819Y-60887785D01*
X30180819Y-60887785D02*
X30657009Y-60935404D01*
X30657009Y-60935404D02*
X30609390Y-60887785D01*
X30609390Y-60887785D02*
X30561771Y-60792547D01*
X30561771Y-60792547D02*
X30561771Y-60554452D01*
X30561771Y-60554452D02*
X30609390Y-60459214D01*
X30609390Y-60459214D02*
X30657009Y-60411595D01*
X30657009Y-60411595D02*
X30752247Y-60363976D01*
X30752247Y-60363976D02*
X30990342Y-60363976D01*
X30990342Y-60363976D02*
X31085580Y-60411595D01*
X31085580Y-60411595D02*
X31133200Y-60459214D01*
X31133200Y-60459214D02*
X31180819Y-60554452D01*
X31180819Y-60554452D02*
X31180819Y-60792547D01*
X31180819Y-60792547D02*
X31133200Y-60887785D01*
X31133200Y-60887785D02*
X31085580Y-60935404D01*
X30180819Y-60030642D02*
X30180819Y-59363976D01*
X30180819Y-59363976D02*
X31180819Y-59792547D01*
X46420819Y-92367785D02*
X45420819Y-92367785D01*
X45420819Y-92367785D02*
X45420819Y-92129690D01*
X45420819Y-92129690D02*
X45468438Y-91986833D01*
X45468438Y-91986833D02*
X45563676Y-91891595D01*
X45563676Y-91891595D02*
X45658914Y-91843976D01*
X45658914Y-91843976D02*
X45849390Y-91796357D01*
X45849390Y-91796357D02*
X45992247Y-91796357D01*
X45992247Y-91796357D02*
X46182723Y-91843976D01*
X46182723Y-91843976D02*
X46277961Y-91891595D01*
X46277961Y-91891595D02*
X46373200Y-91986833D01*
X46373200Y-91986833D02*
X46420819Y-92129690D01*
X46420819Y-92129690D02*
X46420819Y-92367785D01*
X46420819Y-90843976D02*
X46420819Y-91415404D01*
X46420819Y-91129690D02*
X45420819Y-91129690D01*
X45420819Y-91129690D02*
X45563676Y-91224928D01*
X45563676Y-91224928D02*
X45658914Y-91320166D01*
X45658914Y-91320166D02*
X45706533Y-91415404D01*
X45516057Y-90463023D02*
X45468438Y-90415404D01*
X45468438Y-90415404D02*
X45420819Y-90320166D01*
X45420819Y-90320166D02*
X45420819Y-90082071D01*
X45420819Y-90082071D02*
X45468438Y-89986833D01*
X45468438Y-89986833D02*
X45516057Y-89939214D01*
X45516057Y-89939214D02*
X45611295Y-89891595D01*
X45611295Y-89891595D02*
X45706533Y-89891595D01*
X45706533Y-89891595D02*
X45849390Y-89939214D01*
X45849390Y-89939214D02*
X46420819Y-90510642D01*
X46420819Y-90510642D02*
X46420819Y-89891595D01*
X46420819Y-87287785D02*
X45420819Y-87287785D01*
X45420819Y-87287785D02*
X45420819Y-87049690D01*
X45420819Y-87049690D02*
X45468438Y-86906833D01*
X45468438Y-86906833D02*
X45563676Y-86811595D01*
X45563676Y-86811595D02*
X45658914Y-86763976D01*
X45658914Y-86763976D02*
X45849390Y-86716357D01*
X45849390Y-86716357D02*
X45992247Y-86716357D01*
X45992247Y-86716357D02*
X46182723Y-86763976D01*
X46182723Y-86763976D02*
X46277961Y-86811595D01*
X46277961Y-86811595D02*
X46373200Y-86906833D01*
X46373200Y-86906833D02*
X46420819Y-87049690D01*
X46420819Y-87049690D02*
X46420819Y-87287785D01*
X45516057Y-86335404D02*
X45468438Y-86287785D01*
X45468438Y-86287785D02*
X45420819Y-86192547D01*
X45420819Y-86192547D02*
X45420819Y-85954452D01*
X45420819Y-85954452D02*
X45468438Y-85859214D01*
X45468438Y-85859214D02*
X45516057Y-85811595D01*
X45516057Y-85811595D02*
X45611295Y-85763976D01*
X45611295Y-85763976D02*
X45706533Y-85763976D01*
X45706533Y-85763976D02*
X45849390Y-85811595D01*
X45849390Y-85811595D02*
X46420819Y-86383023D01*
X46420819Y-86383023D02*
X46420819Y-85763976D01*
X45420819Y-85144928D02*
X45420819Y-85049690D01*
X45420819Y-85049690D02*
X45468438Y-84954452D01*
X45468438Y-84954452D02*
X45516057Y-84906833D01*
X45516057Y-84906833D02*
X45611295Y-84859214D01*
X45611295Y-84859214D02*
X45801771Y-84811595D01*
X45801771Y-84811595D02*
X46039866Y-84811595D01*
X46039866Y-84811595D02*
X46230342Y-84859214D01*
X46230342Y-84859214D02*
X46325580Y-84906833D01*
X46325580Y-84906833D02*
X46373200Y-84954452D01*
X46373200Y-84954452D02*
X46420819Y-85049690D01*
X46420819Y-85049690D02*
X46420819Y-85144928D01*
X46420819Y-85144928D02*
X46373200Y-85240166D01*
X46373200Y-85240166D02*
X46325580Y-85287785D01*
X46325580Y-85287785D02*
X46230342Y-85335404D01*
X46230342Y-85335404D02*
X46039866Y-85383023D01*
X46039866Y-85383023D02*
X45801771Y-85383023D01*
X45801771Y-85383023D02*
X45611295Y-85335404D01*
X45611295Y-85335404D02*
X45516057Y-85287785D01*
X45516057Y-85287785D02*
X45468438Y-85240166D01*
X45468438Y-85240166D02*
X45420819Y-85144928D01*
X66740819Y-87287785D02*
X65740819Y-87287785D01*
X65740819Y-87287785D02*
X65740819Y-87049690D01*
X65740819Y-87049690D02*
X65788438Y-86906833D01*
X65788438Y-86906833D02*
X65883676Y-86811595D01*
X65883676Y-86811595D02*
X65978914Y-86763976D01*
X65978914Y-86763976D02*
X66169390Y-86716357D01*
X66169390Y-86716357D02*
X66312247Y-86716357D01*
X66312247Y-86716357D02*
X66502723Y-86763976D01*
X66502723Y-86763976D02*
X66597961Y-86811595D01*
X66597961Y-86811595D02*
X66693200Y-86906833D01*
X66693200Y-86906833D02*
X66740819Y-87049690D01*
X66740819Y-87049690D02*
X66740819Y-87287785D01*
X65836057Y-86335404D02*
X65788438Y-86287785D01*
X65788438Y-86287785D02*
X65740819Y-86192547D01*
X65740819Y-86192547D02*
X65740819Y-85954452D01*
X65740819Y-85954452D02*
X65788438Y-85859214D01*
X65788438Y-85859214D02*
X65836057Y-85811595D01*
X65836057Y-85811595D02*
X65931295Y-85763976D01*
X65931295Y-85763976D02*
X66026533Y-85763976D01*
X66026533Y-85763976D02*
X66169390Y-85811595D01*
X66169390Y-85811595D02*
X66740819Y-86383023D01*
X66740819Y-86383023D02*
X66740819Y-85763976D01*
X66074152Y-84906833D02*
X66740819Y-84906833D01*
X65693200Y-85144928D02*
X66407485Y-85383023D01*
X66407485Y-85383023D02*
X66407485Y-84763976D01*
X41340819Y-72047785D02*
X40340819Y-72047785D01*
X40340819Y-72047785D02*
X40340819Y-71809690D01*
X40340819Y-71809690D02*
X40388438Y-71666833D01*
X40388438Y-71666833D02*
X40483676Y-71571595D01*
X40483676Y-71571595D02*
X40578914Y-71523976D01*
X40578914Y-71523976D02*
X40769390Y-71476357D01*
X40769390Y-71476357D02*
X40912247Y-71476357D01*
X40912247Y-71476357D02*
X41102723Y-71523976D01*
X41102723Y-71523976D02*
X41197961Y-71571595D01*
X41197961Y-71571595D02*
X41293200Y-71666833D01*
X41293200Y-71666833D02*
X41340819Y-71809690D01*
X41340819Y-71809690D02*
X41340819Y-72047785D01*
X40674152Y-70619214D02*
X41340819Y-70619214D01*
X40293200Y-70857309D02*
X41007485Y-71095404D01*
X41007485Y-71095404D02*
X41007485Y-70476357D01*
X40340819Y-70190642D02*
X40340819Y-69571595D01*
X40340819Y-69571595D02*
X40721771Y-69904928D01*
X40721771Y-69904928D02*
X40721771Y-69762071D01*
X40721771Y-69762071D02*
X40769390Y-69666833D01*
X40769390Y-69666833D02*
X40817009Y-69619214D01*
X40817009Y-69619214D02*
X40912247Y-69571595D01*
X40912247Y-69571595D02*
X41150342Y-69571595D01*
X41150342Y-69571595D02*
X41245580Y-69619214D01*
X41245580Y-69619214D02*
X41293200Y-69666833D01*
X41293200Y-69666833D02*
X41340819Y-69762071D01*
X41340819Y-69762071D02*
X41340819Y-70047785D01*
X41340819Y-70047785D02*
X41293200Y-70143023D01*
X41293200Y-70143023D02*
X41245580Y-70190642D01*
X31180819Y-66967785D02*
X30180819Y-66967785D01*
X30180819Y-66967785D02*
X30180819Y-66729690D01*
X30180819Y-66729690D02*
X30228438Y-66586833D01*
X30228438Y-66586833D02*
X30323676Y-66491595D01*
X30323676Y-66491595D02*
X30418914Y-66443976D01*
X30418914Y-66443976D02*
X30609390Y-66396357D01*
X30609390Y-66396357D02*
X30752247Y-66396357D01*
X30752247Y-66396357D02*
X30942723Y-66443976D01*
X30942723Y-66443976D02*
X31037961Y-66491595D01*
X31037961Y-66491595D02*
X31133200Y-66586833D01*
X31133200Y-66586833D02*
X31180819Y-66729690D01*
X31180819Y-66729690D02*
X31180819Y-66967785D01*
X30514152Y-65539214D02*
X31180819Y-65539214D01*
X30133200Y-65777309D02*
X30847485Y-66015404D01*
X30847485Y-66015404D02*
X30847485Y-65396357D01*
X31180819Y-64967785D02*
X31180819Y-64777309D01*
X31180819Y-64777309D02*
X31133200Y-64682071D01*
X31133200Y-64682071D02*
X31085580Y-64634452D01*
X31085580Y-64634452D02*
X30942723Y-64539214D01*
X30942723Y-64539214D02*
X30752247Y-64491595D01*
X30752247Y-64491595D02*
X30371295Y-64491595D01*
X30371295Y-64491595D02*
X30276057Y-64539214D01*
X30276057Y-64539214D02*
X30228438Y-64586833D01*
X30228438Y-64586833D02*
X30180819Y-64682071D01*
X30180819Y-64682071D02*
X30180819Y-64872547D01*
X30180819Y-64872547D02*
X30228438Y-64967785D01*
X30228438Y-64967785D02*
X30276057Y-65015404D01*
X30276057Y-65015404D02*
X30371295Y-65063023D01*
X30371295Y-65063023D02*
X30609390Y-65063023D01*
X30609390Y-65063023D02*
X30704628Y-65015404D01*
X30704628Y-65015404D02*
X30752247Y-64967785D01*
X30752247Y-64967785D02*
X30799866Y-64872547D01*
X30799866Y-64872547D02*
X30799866Y-64682071D01*
X30799866Y-64682071D02*
X30752247Y-64586833D01*
X30752247Y-64586833D02*
X30704628Y-64539214D01*
X30704628Y-64539214D02*
X30609390Y-64491595D01*
X46420819Y-82207785D02*
X45420819Y-82207785D01*
X45420819Y-82207785D02*
X45420819Y-81969690D01*
X45420819Y-81969690D02*
X45468438Y-81826833D01*
X45468438Y-81826833D02*
X45563676Y-81731595D01*
X45563676Y-81731595D02*
X45658914Y-81683976D01*
X45658914Y-81683976D02*
X45849390Y-81636357D01*
X45849390Y-81636357D02*
X45992247Y-81636357D01*
X45992247Y-81636357D02*
X46182723Y-81683976D01*
X46182723Y-81683976D02*
X46277961Y-81731595D01*
X46277961Y-81731595D02*
X46373200Y-81826833D01*
X46373200Y-81826833D02*
X46420819Y-81969690D01*
X46420819Y-81969690D02*
X46420819Y-82207785D01*
X45516057Y-81255404D02*
X45468438Y-81207785D01*
X45468438Y-81207785D02*
X45420819Y-81112547D01*
X45420819Y-81112547D02*
X45420819Y-80874452D01*
X45420819Y-80874452D02*
X45468438Y-80779214D01*
X45468438Y-80779214D02*
X45516057Y-80731595D01*
X45516057Y-80731595D02*
X45611295Y-80683976D01*
X45611295Y-80683976D02*
X45706533Y-80683976D01*
X45706533Y-80683976D02*
X45849390Y-80731595D01*
X45849390Y-80731595D02*
X46420819Y-81303023D01*
X46420819Y-81303023D02*
X46420819Y-80683976D01*
X45849390Y-80112547D02*
X45801771Y-80207785D01*
X45801771Y-80207785D02*
X45754152Y-80255404D01*
X45754152Y-80255404D02*
X45658914Y-80303023D01*
X45658914Y-80303023D02*
X45611295Y-80303023D01*
X45611295Y-80303023D02*
X45516057Y-80255404D01*
X45516057Y-80255404D02*
X45468438Y-80207785D01*
X45468438Y-80207785D02*
X45420819Y-80112547D01*
X45420819Y-80112547D02*
X45420819Y-79922071D01*
X45420819Y-79922071D02*
X45468438Y-79826833D01*
X45468438Y-79826833D02*
X45516057Y-79779214D01*
X45516057Y-79779214D02*
X45611295Y-79731595D01*
X45611295Y-79731595D02*
X45658914Y-79731595D01*
X45658914Y-79731595D02*
X45754152Y-79779214D01*
X45754152Y-79779214D02*
X45801771Y-79826833D01*
X45801771Y-79826833D02*
X45849390Y-79922071D01*
X45849390Y-79922071D02*
X45849390Y-80112547D01*
X45849390Y-80112547D02*
X45897009Y-80207785D01*
X45897009Y-80207785D02*
X45944628Y-80255404D01*
X45944628Y-80255404D02*
X46039866Y-80303023D01*
X46039866Y-80303023D02*
X46230342Y-80303023D01*
X46230342Y-80303023D02*
X46325580Y-80255404D01*
X46325580Y-80255404D02*
X46373200Y-80207785D01*
X46373200Y-80207785D02*
X46420819Y-80112547D01*
X46420819Y-80112547D02*
X46420819Y-79922071D01*
X46420819Y-79922071D02*
X46373200Y-79826833D01*
X46373200Y-79826833D02*
X46325580Y-79779214D01*
X46325580Y-79779214D02*
X46230342Y-79731595D01*
X46230342Y-79731595D02*
X46039866Y-79731595D01*
X46039866Y-79731595D02*
X45944628Y-79779214D01*
X45944628Y-79779214D02*
X45897009Y-79826833D01*
X45897009Y-79826833D02*
X45849390Y-79922071D01*
X41340819Y-92367785D02*
X40340819Y-92367785D01*
X40340819Y-92367785D02*
X40340819Y-92129690D01*
X40340819Y-92129690D02*
X40388438Y-91986833D01*
X40388438Y-91986833D02*
X40483676Y-91891595D01*
X40483676Y-91891595D02*
X40578914Y-91843976D01*
X40578914Y-91843976D02*
X40769390Y-91796357D01*
X40769390Y-91796357D02*
X40912247Y-91796357D01*
X40912247Y-91796357D02*
X41102723Y-91843976D01*
X41102723Y-91843976D02*
X41197961Y-91891595D01*
X41197961Y-91891595D02*
X41293200Y-91986833D01*
X41293200Y-91986833D02*
X41340819Y-92129690D01*
X41340819Y-92129690D02*
X41340819Y-92367785D01*
X41340819Y-90843976D02*
X41340819Y-91415404D01*
X41340819Y-91129690D02*
X40340819Y-91129690D01*
X40340819Y-91129690D02*
X40483676Y-91224928D01*
X40483676Y-91224928D02*
X40578914Y-91320166D01*
X40578914Y-91320166D02*
X40626533Y-91415404D01*
X41340819Y-89891595D02*
X41340819Y-90463023D01*
X41340819Y-90177309D02*
X40340819Y-90177309D01*
X40340819Y-90177309D02*
X40483676Y-90272547D01*
X40483676Y-90272547D02*
X40578914Y-90367785D01*
X40578914Y-90367785D02*
X40626533Y-90463023D01*
X36220819Y-96971594D02*
X35220819Y-96971594D01*
X35220819Y-96971594D02*
X35220819Y-96733499D01*
X35220819Y-96733499D02*
X35268438Y-96590642D01*
X35268438Y-96590642D02*
X35363676Y-96495404D01*
X35363676Y-96495404D02*
X35458914Y-96447785D01*
X35458914Y-96447785D02*
X35649390Y-96400166D01*
X35649390Y-96400166D02*
X35792247Y-96400166D01*
X35792247Y-96400166D02*
X35982723Y-96447785D01*
X35982723Y-96447785D02*
X36077961Y-96495404D01*
X36077961Y-96495404D02*
X36173200Y-96590642D01*
X36173200Y-96590642D02*
X36220819Y-96733499D01*
X36220819Y-96733499D02*
X36220819Y-96971594D01*
X35316057Y-96019213D02*
X35268438Y-95971594D01*
X35268438Y-95971594D02*
X35220819Y-95876356D01*
X35220819Y-95876356D02*
X35220819Y-95638261D01*
X35220819Y-95638261D02*
X35268438Y-95543023D01*
X35268438Y-95543023D02*
X35316057Y-95495404D01*
X35316057Y-95495404D02*
X35411295Y-95447785D01*
X35411295Y-95447785D02*
X35506533Y-95447785D01*
X35506533Y-95447785D02*
X35649390Y-95495404D01*
X35649390Y-95495404D02*
X36220819Y-96066832D01*
X36220819Y-96066832D02*
X36220819Y-95447785D01*
X46420819Y-71745285D02*
X45420819Y-71745285D01*
X45420819Y-71745285D02*
X45420819Y-71507190D01*
X45420819Y-71507190D02*
X45468438Y-71364333D01*
X45468438Y-71364333D02*
X45563676Y-71269095D01*
X45563676Y-71269095D02*
X45658914Y-71221476D01*
X45658914Y-71221476D02*
X45849390Y-71173857D01*
X45849390Y-71173857D02*
X45992247Y-71173857D01*
X45992247Y-71173857D02*
X46182723Y-71221476D01*
X46182723Y-71221476D02*
X46277961Y-71269095D01*
X46277961Y-71269095D02*
X46373200Y-71364333D01*
X46373200Y-71364333D02*
X46420819Y-71507190D01*
X46420819Y-71507190D02*
X46420819Y-71745285D01*
X45754152Y-70316714D02*
X46420819Y-70316714D01*
X45373200Y-70554809D02*
X46087485Y-70792904D01*
X46087485Y-70792904D02*
X46087485Y-70173857D01*
X45754152Y-69364333D02*
X46420819Y-69364333D01*
X45373200Y-69602428D02*
X46087485Y-69840523D01*
X46087485Y-69840523D02*
X46087485Y-69221476D01*
X61660819Y-87287785D02*
X60660819Y-87287785D01*
X60660819Y-87287785D02*
X60660819Y-87049690D01*
X60660819Y-87049690D02*
X60708438Y-86906833D01*
X60708438Y-86906833D02*
X60803676Y-86811595D01*
X60803676Y-86811595D02*
X60898914Y-86763976D01*
X60898914Y-86763976D02*
X61089390Y-86716357D01*
X61089390Y-86716357D02*
X61232247Y-86716357D01*
X61232247Y-86716357D02*
X61422723Y-86763976D01*
X61422723Y-86763976D02*
X61517961Y-86811595D01*
X61517961Y-86811595D02*
X61613200Y-86906833D01*
X61613200Y-86906833D02*
X61660819Y-87049690D01*
X61660819Y-87049690D02*
X61660819Y-87287785D01*
X60756057Y-86335404D02*
X60708438Y-86287785D01*
X60708438Y-86287785D02*
X60660819Y-86192547D01*
X60660819Y-86192547D02*
X60660819Y-85954452D01*
X60660819Y-85954452D02*
X60708438Y-85859214D01*
X60708438Y-85859214D02*
X60756057Y-85811595D01*
X60756057Y-85811595D02*
X60851295Y-85763976D01*
X60851295Y-85763976D02*
X60946533Y-85763976D01*
X60946533Y-85763976D02*
X61089390Y-85811595D01*
X61089390Y-85811595D02*
X61660819Y-86383023D01*
X61660819Y-86383023D02*
X61660819Y-85763976D01*
X60660819Y-85430642D02*
X60660819Y-84811595D01*
X60660819Y-84811595D02*
X61041771Y-85144928D01*
X61041771Y-85144928D02*
X61041771Y-85002071D01*
X61041771Y-85002071D02*
X61089390Y-84906833D01*
X61089390Y-84906833D02*
X61137009Y-84859214D01*
X61137009Y-84859214D02*
X61232247Y-84811595D01*
X61232247Y-84811595D02*
X61470342Y-84811595D01*
X61470342Y-84811595D02*
X61565580Y-84859214D01*
X61565580Y-84859214D02*
X61613200Y-84906833D01*
X61613200Y-84906833D02*
X61660819Y-85002071D01*
X61660819Y-85002071D02*
X61660819Y-85287785D01*
X61660819Y-85287785D02*
X61613200Y-85383023D01*
X61613200Y-85383023D02*
X61565580Y-85430642D01*
X66740819Y-66967785D02*
X65740819Y-66967785D01*
X65740819Y-66967785D02*
X65740819Y-66729690D01*
X65740819Y-66729690D02*
X65788438Y-66586833D01*
X65788438Y-66586833D02*
X65883676Y-66491595D01*
X65883676Y-66491595D02*
X65978914Y-66443976D01*
X65978914Y-66443976D02*
X66169390Y-66396357D01*
X66169390Y-66396357D02*
X66312247Y-66396357D01*
X66312247Y-66396357D02*
X66502723Y-66443976D01*
X66502723Y-66443976D02*
X66597961Y-66491595D01*
X66597961Y-66491595D02*
X66693200Y-66586833D01*
X66693200Y-66586833D02*
X66740819Y-66729690D01*
X66740819Y-66729690D02*
X66740819Y-66967785D01*
X65740819Y-65491595D02*
X65740819Y-65967785D01*
X65740819Y-65967785D02*
X66217009Y-66015404D01*
X66217009Y-66015404D02*
X66169390Y-65967785D01*
X66169390Y-65967785D02*
X66121771Y-65872547D01*
X66121771Y-65872547D02*
X66121771Y-65634452D01*
X66121771Y-65634452D02*
X66169390Y-65539214D01*
X66169390Y-65539214D02*
X66217009Y-65491595D01*
X66217009Y-65491595D02*
X66312247Y-65443976D01*
X66312247Y-65443976D02*
X66550342Y-65443976D01*
X66550342Y-65443976D02*
X66645580Y-65491595D01*
X66645580Y-65491595D02*
X66693200Y-65539214D01*
X66693200Y-65539214D02*
X66740819Y-65634452D01*
X66740819Y-65634452D02*
X66740819Y-65872547D01*
X66740819Y-65872547D02*
X66693200Y-65967785D01*
X66693200Y-65967785D02*
X66645580Y-66015404D01*
X65740819Y-64586833D02*
X65740819Y-64777309D01*
X65740819Y-64777309D02*
X65788438Y-64872547D01*
X65788438Y-64872547D02*
X65836057Y-64920166D01*
X65836057Y-64920166D02*
X65978914Y-65015404D01*
X65978914Y-65015404D02*
X66169390Y-65063023D01*
X66169390Y-65063023D02*
X66550342Y-65063023D01*
X66550342Y-65063023D02*
X66645580Y-65015404D01*
X66645580Y-65015404D02*
X66693200Y-64967785D01*
X66693200Y-64967785D02*
X66740819Y-64872547D01*
X66740819Y-64872547D02*
X66740819Y-64682071D01*
X66740819Y-64682071D02*
X66693200Y-64586833D01*
X66693200Y-64586833D02*
X66645580Y-64539214D01*
X66645580Y-64539214D02*
X66550342Y-64491595D01*
X66550342Y-64491595D02*
X66312247Y-64491595D01*
X66312247Y-64491595D02*
X66217009Y-64539214D01*
X66217009Y-64539214D02*
X66169390Y-64586833D01*
X66169390Y-64586833D02*
X66121771Y-64682071D01*
X66121771Y-64682071D02*
X66121771Y-64872547D01*
X66121771Y-64872547D02*
X66169390Y-64967785D01*
X66169390Y-64967785D02*
X66217009Y-65015404D01*
X66217009Y-65015404D02*
X66312247Y-65063023D01*
X51500819Y-77127785D02*
X50500819Y-77127785D01*
X50500819Y-77127785D02*
X50500819Y-76889690D01*
X50500819Y-76889690D02*
X50548438Y-76746833D01*
X50548438Y-76746833D02*
X50643676Y-76651595D01*
X50643676Y-76651595D02*
X50738914Y-76603976D01*
X50738914Y-76603976D02*
X50929390Y-76556357D01*
X50929390Y-76556357D02*
X51072247Y-76556357D01*
X51072247Y-76556357D02*
X51262723Y-76603976D01*
X51262723Y-76603976D02*
X51357961Y-76651595D01*
X51357961Y-76651595D02*
X51453200Y-76746833D01*
X51453200Y-76746833D02*
X51500819Y-76889690D01*
X51500819Y-76889690D02*
X51500819Y-77127785D01*
X50500819Y-76223023D02*
X50500819Y-75603976D01*
X50500819Y-75603976D02*
X50881771Y-75937309D01*
X50881771Y-75937309D02*
X50881771Y-75794452D01*
X50881771Y-75794452D02*
X50929390Y-75699214D01*
X50929390Y-75699214D02*
X50977009Y-75651595D01*
X50977009Y-75651595D02*
X51072247Y-75603976D01*
X51072247Y-75603976D02*
X51310342Y-75603976D01*
X51310342Y-75603976D02*
X51405580Y-75651595D01*
X51405580Y-75651595D02*
X51453200Y-75699214D01*
X51453200Y-75699214D02*
X51500819Y-75794452D01*
X51500819Y-75794452D02*
X51500819Y-76080166D01*
X51500819Y-76080166D02*
X51453200Y-76175404D01*
X51453200Y-76175404D02*
X51405580Y-76223023D01*
X50500819Y-75270642D02*
X50500819Y-74603976D01*
X50500819Y-74603976D02*
X51500819Y-75032547D01*
X36260819Y-61887785D02*
X35260819Y-61887785D01*
X35260819Y-61887785D02*
X35260819Y-61649690D01*
X35260819Y-61649690D02*
X35308438Y-61506833D01*
X35308438Y-61506833D02*
X35403676Y-61411595D01*
X35403676Y-61411595D02*
X35498914Y-61363976D01*
X35498914Y-61363976D02*
X35689390Y-61316357D01*
X35689390Y-61316357D02*
X35832247Y-61316357D01*
X35832247Y-61316357D02*
X36022723Y-61363976D01*
X36022723Y-61363976D02*
X36117961Y-61411595D01*
X36117961Y-61411595D02*
X36213200Y-61506833D01*
X36213200Y-61506833D02*
X36260819Y-61649690D01*
X36260819Y-61649690D02*
X36260819Y-61887785D01*
X35260819Y-60411595D02*
X35260819Y-60887785D01*
X35260819Y-60887785D02*
X35737009Y-60935404D01*
X35737009Y-60935404D02*
X35689390Y-60887785D01*
X35689390Y-60887785D02*
X35641771Y-60792547D01*
X35641771Y-60792547D02*
X35641771Y-60554452D01*
X35641771Y-60554452D02*
X35689390Y-60459214D01*
X35689390Y-60459214D02*
X35737009Y-60411595D01*
X35737009Y-60411595D02*
X35832247Y-60363976D01*
X35832247Y-60363976D02*
X36070342Y-60363976D01*
X36070342Y-60363976D02*
X36165580Y-60411595D01*
X36165580Y-60411595D02*
X36213200Y-60459214D01*
X36213200Y-60459214D02*
X36260819Y-60554452D01*
X36260819Y-60554452D02*
X36260819Y-60792547D01*
X36260819Y-60792547D02*
X36213200Y-60887785D01*
X36213200Y-60887785D02*
X36165580Y-60935404D01*
X35689390Y-59792547D02*
X35641771Y-59887785D01*
X35641771Y-59887785D02*
X35594152Y-59935404D01*
X35594152Y-59935404D02*
X35498914Y-59983023D01*
X35498914Y-59983023D02*
X35451295Y-59983023D01*
X35451295Y-59983023D02*
X35356057Y-59935404D01*
X35356057Y-59935404D02*
X35308438Y-59887785D01*
X35308438Y-59887785D02*
X35260819Y-59792547D01*
X35260819Y-59792547D02*
X35260819Y-59602071D01*
X35260819Y-59602071D02*
X35308438Y-59506833D01*
X35308438Y-59506833D02*
X35356057Y-59459214D01*
X35356057Y-59459214D02*
X35451295Y-59411595D01*
X35451295Y-59411595D02*
X35498914Y-59411595D01*
X35498914Y-59411595D02*
X35594152Y-59459214D01*
X35594152Y-59459214D02*
X35641771Y-59506833D01*
X35641771Y-59506833D02*
X35689390Y-59602071D01*
X35689390Y-59602071D02*
X35689390Y-59792547D01*
X35689390Y-59792547D02*
X35737009Y-59887785D01*
X35737009Y-59887785D02*
X35784628Y-59935404D01*
X35784628Y-59935404D02*
X35879866Y-59983023D01*
X35879866Y-59983023D02*
X36070342Y-59983023D01*
X36070342Y-59983023D02*
X36165580Y-59935404D01*
X36165580Y-59935404D02*
X36213200Y-59887785D01*
X36213200Y-59887785D02*
X36260819Y-59792547D01*
X36260819Y-59792547D02*
X36260819Y-59602071D01*
X36260819Y-59602071D02*
X36213200Y-59506833D01*
X36213200Y-59506833D02*
X36165580Y-59459214D01*
X36165580Y-59459214D02*
X36070342Y-59411595D01*
X36070342Y-59411595D02*
X35879866Y-59411595D01*
X35879866Y-59411595D02*
X35784628Y-59459214D01*
X35784628Y-59459214D02*
X35737009Y-59506833D01*
X35737009Y-59506833D02*
X35689390Y-59602071D01*
X61660819Y-77127785D02*
X60660819Y-77127785D01*
X60660819Y-77127785D02*
X60660819Y-76889690D01*
X60660819Y-76889690D02*
X60708438Y-76746833D01*
X60708438Y-76746833D02*
X60803676Y-76651595D01*
X60803676Y-76651595D02*
X60898914Y-76603976D01*
X60898914Y-76603976D02*
X61089390Y-76556357D01*
X61089390Y-76556357D02*
X61232247Y-76556357D01*
X61232247Y-76556357D02*
X61422723Y-76603976D01*
X61422723Y-76603976D02*
X61517961Y-76651595D01*
X61517961Y-76651595D02*
X61613200Y-76746833D01*
X61613200Y-76746833D02*
X61660819Y-76889690D01*
X61660819Y-76889690D02*
X61660819Y-77127785D01*
X60660819Y-76223023D02*
X60660819Y-75603976D01*
X60660819Y-75603976D02*
X61041771Y-75937309D01*
X61041771Y-75937309D02*
X61041771Y-75794452D01*
X61041771Y-75794452D02*
X61089390Y-75699214D01*
X61089390Y-75699214D02*
X61137009Y-75651595D01*
X61137009Y-75651595D02*
X61232247Y-75603976D01*
X61232247Y-75603976D02*
X61470342Y-75603976D01*
X61470342Y-75603976D02*
X61565580Y-75651595D01*
X61565580Y-75651595D02*
X61613200Y-75699214D01*
X61613200Y-75699214D02*
X61660819Y-75794452D01*
X61660819Y-75794452D02*
X61660819Y-76080166D01*
X61660819Y-76080166D02*
X61613200Y-76175404D01*
X61613200Y-76175404D02*
X61565580Y-76223023D01*
X61660819Y-75127785D02*
X61660819Y-74937309D01*
X61660819Y-74937309D02*
X61613200Y-74842071D01*
X61613200Y-74842071D02*
X61565580Y-74794452D01*
X61565580Y-74794452D02*
X61422723Y-74699214D01*
X61422723Y-74699214D02*
X61232247Y-74651595D01*
X61232247Y-74651595D02*
X60851295Y-74651595D01*
X60851295Y-74651595D02*
X60756057Y-74699214D01*
X60756057Y-74699214D02*
X60708438Y-74746833D01*
X60708438Y-74746833D02*
X60660819Y-74842071D01*
X60660819Y-74842071D02*
X60660819Y-75032547D01*
X60660819Y-75032547D02*
X60708438Y-75127785D01*
X60708438Y-75127785D02*
X60756057Y-75175404D01*
X60756057Y-75175404D02*
X60851295Y-75223023D01*
X60851295Y-75223023D02*
X61089390Y-75223023D01*
X61089390Y-75223023D02*
X61184628Y-75175404D01*
X61184628Y-75175404D02*
X61232247Y-75127785D01*
X61232247Y-75127785D02*
X61279866Y-75032547D01*
X61279866Y-75032547D02*
X61279866Y-74842071D01*
X61279866Y-74842071D02*
X61232247Y-74746833D01*
X61232247Y-74746833D02*
X61184628Y-74699214D01*
X61184628Y-74699214D02*
X61089390Y-74651595D01*
X36260819Y-82207785D02*
X35260819Y-82207785D01*
X35260819Y-82207785D02*
X35260819Y-81969690D01*
X35260819Y-81969690D02*
X35308438Y-81826833D01*
X35308438Y-81826833D02*
X35403676Y-81731595D01*
X35403676Y-81731595D02*
X35498914Y-81683976D01*
X35498914Y-81683976D02*
X35689390Y-81636357D01*
X35689390Y-81636357D02*
X35832247Y-81636357D01*
X35832247Y-81636357D02*
X36022723Y-81683976D01*
X36022723Y-81683976D02*
X36117961Y-81731595D01*
X36117961Y-81731595D02*
X36213200Y-81826833D01*
X36213200Y-81826833D02*
X36260819Y-81969690D01*
X36260819Y-81969690D02*
X36260819Y-82207785D01*
X35356057Y-81255404D02*
X35308438Y-81207785D01*
X35308438Y-81207785D02*
X35260819Y-81112547D01*
X35260819Y-81112547D02*
X35260819Y-80874452D01*
X35260819Y-80874452D02*
X35308438Y-80779214D01*
X35308438Y-80779214D02*
X35356057Y-80731595D01*
X35356057Y-80731595D02*
X35451295Y-80683976D01*
X35451295Y-80683976D02*
X35546533Y-80683976D01*
X35546533Y-80683976D02*
X35689390Y-80731595D01*
X35689390Y-80731595D02*
X36260819Y-81303023D01*
X36260819Y-81303023D02*
X36260819Y-80683976D01*
X35260819Y-79826833D02*
X35260819Y-80017309D01*
X35260819Y-80017309D02*
X35308438Y-80112547D01*
X35308438Y-80112547D02*
X35356057Y-80160166D01*
X35356057Y-80160166D02*
X35498914Y-80255404D01*
X35498914Y-80255404D02*
X35689390Y-80303023D01*
X35689390Y-80303023D02*
X36070342Y-80303023D01*
X36070342Y-80303023D02*
X36165580Y-80255404D01*
X36165580Y-80255404D02*
X36213200Y-80207785D01*
X36213200Y-80207785D02*
X36260819Y-80112547D01*
X36260819Y-80112547D02*
X36260819Y-79922071D01*
X36260819Y-79922071D02*
X36213200Y-79826833D01*
X36213200Y-79826833D02*
X36165580Y-79779214D01*
X36165580Y-79779214D02*
X36070342Y-79731595D01*
X36070342Y-79731595D02*
X35832247Y-79731595D01*
X35832247Y-79731595D02*
X35737009Y-79779214D01*
X35737009Y-79779214D02*
X35689390Y-79826833D01*
X35689390Y-79826833D02*
X35641771Y-79922071D01*
X35641771Y-79922071D02*
X35641771Y-80112547D01*
X35641771Y-80112547D02*
X35689390Y-80207785D01*
X35689390Y-80207785D02*
X35737009Y-80255404D01*
X35737009Y-80255404D02*
X35832247Y-80303023D01*
X51500819Y-96971594D02*
X50500819Y-96971594D01*
X50500819Y-96971594D02*
X50500819Y-96733499D01*
X50500819Y-96733499D02*
X50548438Y-96590642D01*
X50548438Y-96590642D02*
X50643676Y-96495404D01*
X50643676Y-96495404D02*
X50738914Y-96447785D01*
X50738914Y-96447785D02*
X50929390Y-96400166D01*
X50929390Y-96400166D02*
X51072247Y-96400166D01*
X51072247Y-96400166D02*
X51262723Y-96447785D01*
X51262723Y-96447785D02*
X51357961Y-96495404D01*
X51357961Y-96495404D02*
X51453200Y-96590642D01*
X51453200Y-96590642D02*
X51500819Y-96733499D01*
X51500819Y-96733499D02*
X51500819Y-96971594D01*
X50500819Y-95495404D02*
X50500819Y-95971594D01*
X50500819Y-95971594D02*
X50977009Y-96019213D01*
X50977009Y-96019213D02*
X50929390Y-95971594D01*
X50929390Y-95971594D02*
X50881771Y-95876356D01*
X50881771Y-95876356D02*
X50881771Y-95638261D01*
X50881771Y-95638261D02*
X50929390Y-95543023D01*
X50929390Y-95543023D02*
X50977009Y-95495404D01*
X50977009Y-95495404D02*
X51072247Y-95447785D01*
X51072247Y-95447785D02*
X51310342Y-95447785D01*
X51310342Y-95447785D02*
X51405580Y-95495404D01*
X51405580Y-95495404D02*
X51453200Y-95543023D01*
X51453200Y-95543023D02*
X51500819Y-95638261D01*
X51500819Y-95638261D02*
X51500819Y-95876356D01*
X51500819Y-95876356D02*
X51453200Y-95971594D01*
X51453200Y-95971594D02*
X51405580Y-96019213D01*
X46420819Y-66967785D02*
X45420819Y-66967785D01*
X45420819Y-66967785D02*
X45420819Y-66729690D01*
X45420819Y-66729690D02*
X45468438Y-66586833D01*
X45468438Y-66586833D02*
X45563676Y-66491595D01*
X45563676Y-66491595D02*
X45658914Y-66443976D01*
X45658914Y-66443976D02*
X45849390Y-66396357D01*
X45849390Y-66396357D02*
X45992247Y-66396357D01*
X45992247Y-66396357D02*
X46182723Y-66443976D01*
X46182723Y-66443976D02*
X46277961Y-66491595D01*
X46277961Y-66491595D02*
X46373200Y-66586833D01*
X46373200Y-66586833D02*
X46420819Y-66729690D01*
X46420819Y-66729690D02*
X46420819Y-66967785D01*
X45420819Y-65491595D02*
X45420819Y-65967785D01*
X45420819Y-65967785D02*
X45897009Y-66015404D01*
X45897009Y-66015404D02*
X45849390Y-65967785D01*
X45849390Y-65967785D02*
X45801771Y-65872547D01*
X45801771Y-65872547D02*
X45801771Y-65634452D01*
X45801771Y-65634452D02*
X45849390Y-65539214D01*
X45849390Y-65539214D02*
X45897009Y-65491595D01*
X45897009Y-65491595D02*
X45992247Y-65443976D01*
X45992247Y-65443976D02*
X46230342Y-65443976D01*
X46230342Y-65443976D02*
X46325580Y-65491595D01*
X46325580Y-65491595D02*
X46373200Y-65539214D01*
X46373200Y-65539214D02*
X46420819Y-65634452D01*
X46420819Y-65634452D02*
X46420819Y-65872547D01*
X46420819Y-65872547D02*
X46373200Y-65967785D01*
X46373200Y-65967785D02*
X46325580Y-66015404D01*
X45516057Y-65063023D02*
X45468438Y-65015404D01*
X45468438Y-65015404D02*
X45420819Y-64920166D01*
X45420819Y-64920166D02*
X45420819Y-64682071D01*
X45420819Y-64682071D02*
X45468438Y-64586833D01*
X45468438Y-64586833D02*
X45516057Y-64539214D01*
X45516057Y-64539214D02*
X45611295Y-64491595D01*
X45611295Y-64491595D02*
X45706533Y-64491595D01*
X45706533Y-64491595D02*
X45849390Y-64539214D01*
X45849390Y-64539214D02*
X46420819Y-65110642D01*
X46420819Y-65110642D02*
X46420819Y-64491595D01*
X46420819Y-61887785D02*
X45420819Y-61887785D01*
X45420819Y-61887785D02*
X45420819Y-61649690D01*
X45420819Y-61649690D02*
X45468438Y-61506833D01*
X45468438Y-61506833D02*
X45563676Y-61411595D01*
X45563676Y-61411595D02*
X45658914Y-61363976D01*
X45658914Y-61363976D02*
X45849390Y-61316357D01*
X45849390Y-61316357D02*
X45992247Y-61316357D01*
X45992247Y-61316357D02*
X46182723Y-61363976D01*
X46182723Y-61363976D02*
X46277961Y-61411595D01*
X46277961Y-61411595D02*
X46373200Y-61506833D01*
X46373200Y-61506833D02*
X46420819Y-61649690D01*
X46420819Y-61649690D02*
X46420819Y-61887785D01*
X45420819Y-60459214D02*
X45420819Y-60649690D01*
X45420819Y-60649690D02*
X45468438Y-60744928D01*
X45468438Y-60744928D02*
X45516057Y-60792547D01*
X45516057Y-60792547D02*
X45658914Y-60887785D01*
X45658914Y-60887785D02*
X45849390Y-60935404D01*
X45849390Y-60935404D02*
X46230342Y-60935404D01*
X46230342Y-60935404D02*
X46325580Y-60887785D01*
X46325580Y-60887785D02*
X46373200Y-60840166D01*
X46373200Y-60840166D02*
X46420819Y-60744928D01*
X46420819Y-60744928D02*
X46420819Y-60554452D01*
X46420819Y-60554452D02*
X46373200Y-60459214D01*
X46373200Y-60459214D02*
X46325580Y-60411595D01*
X46325580Y-60411595D02*
X46230342Y-60363976D01*
X46230342Y-60363976D02*
X45992247Y-60363976D01*
X45992247Y-60363976D02*
X45897009Y-60411595D01*
X45897009Y-60411595D02*
X45849390Y-60459214D01*
X45849390Y-60459214D02*
X45801771Y-60554452D01*
X45801771Y-60554452D02*
X45801771Y-60744928D01*
X45801771Y-60744928D02*
X45849390Y-60840166D01*
X45849390Y-60840166D02*
X45897009Y-60887785D01*
X45897009Y-60887785D02*
X45992247Y-60935404D01*
X45420819Y-59744928D02*
X45420819Y-59649690D01*
X45420819Y-59649690D02*
X45468438Y-59554452D01*
X45468438Y-59554452D02*
X45516057Y-59506833D01*
X45516057Y-59506833D02*
X45611295Y-59459214D01*
X45611295Y-59459214D02*
X45801771Y-59411595D01*
X45801771Y-59411595D02*
X46039866Y-59411595D01*
X46039866Y-59411595D02*
X46230342Y-59459214D01*
X46230342Y-59459214D02*
X46325580Y-59506833D01*
X46325580Y-59506833D02*
X46373200Y-59554452D01*
X46373200Y-59554452D02*
X46420819Y-59649690D01*
X46420819Y-59649690D02*
X46420819Y-59744928D01*
X46420819Y-59744928D02*
X46373200Y-59840166D01*
X46373200Y-59840166D02*
X46325580Y-59887785D01*
X46325580Y-59887785D02*
X46230342Y-59935404D01*
X46230342Y-59935404D02*
X46039866Y-59983023D01*
X46039866Y-59983023D02*
X45801771Y-59983023D01*
X45801771Y-59983023D02*
X45611295Y-59935404D01*
X45611295Y-59935404D02*
X45516057Y-59887785D01*
X45516057Y-59887785D02*
X45468438Y-59840166D01*
X45468438Y-59840166D02*
X45420819Y-59744928D01*
X66740819Y-61887785D02*
X65740819Y-61887785D01*
X65740819Y-61887785D02*
X65740819Y-61649690D01*
X65740819Y-61649690D02*
X65788438Y-61506833D01*
X65788438Y-61506833D02*
X65883676Y-61411595D01*
X65883676Y-61411595D02*
X65978914Y-61363976D01*
X65978914Y-61363976D02*
X66169390Y-61316357D01*
X66169390Y-61316357D02*
X66312247Y-61316357D01*
X66312247Y-61316357D02*
X66502723Y-61363976D01*
X66502723Y-61363976D02*
X66597961Y-61411595D01*
X66597961Y-61411595D02*
X66693200Y-61506833D01*
X66693200Y-61506833D02*
X66740819Y-61649690D01*
X66740819Y-61649690D02*
X66740819Y-61887785D01*
X65740819Y-60459214D02*
X65740819Y-60649690D01*
X65740819Y-60649690D02*
X65788438Y-60744928D01*
X65788438Y-60744928D02*
X65836057Y-60792547D01*
X65836057Y-60792547D02*
X65978914Y-60887785D01*
X65978914Y-60887785D02*
X66169390Y-60935404D01*
X66169390Y-60935404D02*
X66550342Y-60935404D01*
X66550342Y-60935404D02*
X66645580Y-60887785D01*
X66645580Y-60887785D02*
X66693200Y-60840166D01*
X66693200Y-60840166D02*
X66740819Y-60744928D01*
X66740819Y-60744928D02*
X66740819Y-60554452D01*
X66740819Y-60554452D02*
X66693200Y-60459214D01*
X66693200Y-60459214D02*
X66645580Y-60411595D01*
X66645580Y-60411595D02*
X66550342Y-60363976D01*
X66550342Y-60363976D02*
X66312247Y-60363976D01*
X66312247Y-60363976D02*
X66217009Y-60411595D01*
X66217009Y-60411595D02*
X66169390Y-60459214D01*
X66169390Y-60459214D02*
X66121771Y-60554452D01*
X66121771Y-60554452D02*
X66121771Y-60744928D01*
X66121771Y-60744928D02*
X66169390Y-60840166D01*
X66169390Y-60840166D02*
X66217009Y-60887785D01*
X66217009Y-60887785D02*
X66312247Y-60935404D01*
X66074152Y-59506833D02*
X66740819Y-59506833D01*
X65693200Y-59744928D02*
X66407485Y-59983023D01*
X66407485Y-59983023D02*
X66407485Y-59363976D01*
X31180819Y-82207785D02*
X30180819Y-82207785D01*
X30180819Y-82207785D02*
X30180819Y-81969690D01*
X30180819Y-81969690D02*
X30228438Y-81826833D01*
X30228438Y-81826833D02*
X30323676Y-81731595D01*
X30323676Y-81731595D02*
X30418914Y-81683976D01*
X30418914Y-81683976D02*
X30609390Y-81636357D01*
X30609390Y-81636357D02*
X30752247Y-81636357D01*
X30752247Y-81636357D02*
X30942723Y-81683976D01*
X30942723Y-81683976D02*
X31037961Y-81731595D01*
X31037961Y-81731595D02*
X31133200Y-81826833D01*
X31133200Y-81826833D02*
X31180819Y-81969690D01*
X31180819Y-81969690D02*
X31180819Y-82207785D01*
X30276057Y-81255404D02*
X30228438Y-81207785D01*
X30228438Y-81207785D02*
X30180819Y-81112547D01*
X30180819Y-81112547D02*
X30180819Y-80874452D01*
X30180819Y-80874452D02*
X30228438Y-80779214D01*
X30228438Y-80779214D02*
X30276057Y-80731595D01*
X30276057Y-80731595D02*
X30371295Y-80683976D01*
X30371295Y-80683976D02*
X30466533Y-80683976D01*
X30466533Y-80683976D02*
X30609390Y-80731595D01*
X30609390Y-80731595D02*
X31180819Y-81303023D01*
X31180819Y-81303023D02*
X31180819Y-80683976D01*
X30180819Y-79779214D02*
X30180819Y-80255404D01*
X30180819Y-80255404D02*
X30657009Y-80303023D01*
X30657009Y-80303023D02*
X30609390Y-80255404D01*
X30609390Y-80255404D02*
X30561771Y-80160166D01*
X30561771Y-80160166D02*
X30561771Y-79922071D01*
X30561771Y-79922071D02*
X30609390Y-79826833D01*
X30609390Y-79826833D02*
X30657009Y-79779214D01*
X30657009Y-79779214D02*
X30752247Y-79731595D01*
X30752247Y-79731595D02*
X30990342Y-79731595D01*
X30990342Y-79731595D02*
X31085580Y-79779214D01*
X31085580Y-79779214D02*
X31133200Y-79826833D01*
X31133200Y-79826833D02*
X31180819Y-79922071D01*
X31180819Y-79922071D02*
X31180819Y-80160166D01*
X31180819Y-80160166D02*
X31133200Y-80255404D01*
X31133200Y-80255404D02*
X31085580Y-80303023D01*
X46420819Y-96971594D02*
X45420819Y-96971594D01*
X45420819Y-96971594D02*
X45420819Y-96733499D01*
X45420819Y-96733499D02*
X45468438Y-96590642D01*
X45468438Y-96590642D02*
X45563676Y-96495404D01*
X45563676Y-96495404D02*
X45658914Y-96447785D01*
X45658914Y-96447785D02*
X45849390Y-96400166D01*
X45849390Y-96400166D02*
X45992247Y-96400166D01*
X45992247Y-96400166D02*
X46182723Y-96447785D01*
X46182723Y-96447785D02*
X46277961Y-96495404D01*
X46277961Y-96495404D02*
X46373200Y-96590642D01*
X46373200Y-96590642D02*
X46420819Y-96733499D01*
X46420819Y-96733499D02*
X46420819Y-96971594D01*
X45754152Y-95543023D02*
X46420819Y-95543023D01*
X45373200Y-95781118D02*
X46087485Y-96019213D01*
X46087485Y-96019213D02*
X46087485Y-95400166D01*
X51500819Y-87287785D02*
X50500819Y-87287785D01*
X50500819Y-87287785D02*
X50500819Y-87049690D01*
X50500819Y-87049690D02*
X50548438Y-86906833D01*
X50548438Y-86906833D02*
X50643676Y-86811595D01*
X50643676Y-86811595D02*
X50738914Y-86763976D01*
X50738914Y-86763976D02*
X50929390Y-86716357D01*
X50929390Y-86716357D02*
X51072247Y-86716357D01*
X51072247Y-86716357D02*
X51262723Y-86763976D01*
X51262723Y-86763976D02*
X51357961Y-86811595D01*
X51357961Y-86811595D02*
X51453200Y-86906833D01*
X51453200Y-86906833D02*
X51500819Y-87049690D01*
X51500819Y-87049690D02*
X51500819Y-87287785D01*
X50596057Y-86335404D02*
X50548438Y-86287785D01*
X50548438Y-86287785D02*
X50500819Y-86192547D01*
X50500819Y-86192547D02*
X50500819Y-85954452D01*
X50500819Y-85954452D02*
X50548438Y-85859214D01*
X50548438Y-85859214D02*
X50596057Y-85811595D01*
X50596057Y-85811595D02*
X50691295Y-85763976D01*
X50691295Y-85763976D02*
X50786533Y-85763976D01*
X50786533Y-85763976D02*
X50929390Y-85811595D01*
X50929390Y-85811595D02*
X51500819Y-86383023D01*
X51500819Y-86383023D02*
X51500819Y-85763976D01*
X51500819Y-84811595D02*
X51500819Y-85383023D01*
X51500819Y-85097309D02*
X50500819Y-85097309D01*
X50500819Y-85097309D02*
X50643676Y-85192547D01*
X50643676Y-85192547D02*
X50738914Y-85287785D01*
X50738914Y-85287785D02*
X50786533Y-85383023D01*
X56580819Y-87287785D02*
X55580819Y-87287785D01*
X55580819Y-87287785D02*
X55580819Y-87049690D01*
X55580819Y-87049690D02*
X55628438Y-86906833D01*
X55628438Y-86906833D02*
X55723676Y-86811595D01*
X55723676Y-86811595D02*
X55818914Y-86763976D01*
X55818914Y-86763976D02*
X56009390Y-86716357D01*
X56009390Y-86716357D02*
X56152247Y-86716357D01*
X56152247Y-86716357D02*
X56342723Y-86763976D01*
X56342723Y-86763976D02*
X56437961Y-86811595D01*
X56437961Y-86811595D02*
X56533200Y-86906833D01*
X56533200Y-86906833D02*
X56580819Y-87049690D01*
X56580819Y-87049690D02*
X56580819Y-87287785D01*
X55676057Y-86335404D02*
X55628438Y-86287785D01*
X55628438Y-86287785D02*
X55580819Y-86192547D01*
X55580819Y-86192547D02*
X55580819Y-85954452D01*
X55580819Y-85954452D02*
X55628438Y-85859214D01*
X55628438Y-85859214D02*
X55676057Y-85811595D01*
X55676057Y-85811595D02*
X55771295Y-85763976D01*
X55771295Y-85763976D02*
X55866533Y-85763976D01*
X55866533Y-85763976D02*
X56009390Y-85811595D01*
X56009390Y-85811595D02*
X56580819Y-86383023D01*
X56580819Y-86383023D02*
X56580819Y-85763976D01*
X55676057Y-85383023D02*
X55628438Y-85335404D01*
X55628438Y-85335404D02*
X55580819Y-85240166D01*
X55580819Y-85240166D02*
X55580819Y-85002071D01*
X55580819Y-85002071D02*
X55628438Y-84906833D01*
X55628438Y-84906833D02*
X55676057Y-84859214D01*
X55676057Y-84859214D02*
X55771295Y-84811595D01*
X55771295Y-84811595D02*
X55866533Y-84811595D01*
X55866533Y-84811595D02*
X56009390Y-84859214D01*
X56009390Y-84859214D02*
X56580819Y-85430642D01*
X56580819Y-85430642D02*
X56580819Y-84811595D01*
X41340819Y-66967785D02*
X40340819Y-66967785D01*
X40340819Y-66967785D02*
X40340819Y-66729690D01*
X40340819Y-66729690D02*
X40388438Y-66586833D01*
X40388438Y-66586833D02*
X40483676Y-66491595D01*
X40483676Y-66491595D02*
X40578914Y-66443976D01*
X40578914Y-66443976D02*
X40769390Y-66396357D01*
X40769390Y-66396357D02*
X40912247Y-66396357D01*
X40912247Y-66396357D02*
X41102723Y-66443976D01*
X41102723Y-66443976D02*
X41197961Y-66491595D01*
X41197961Y-66491595D02*
X41293200Y-66586833D01*
X41293200Y-66586833D02*
X41340819Y-66729690D01*
X41340819Y-66729690D02*
X41340819Y-66967785D01*
X40340819Y-65491595D02*
X40340819Y-65967785D01*
X40340819Y-65967785D02*
X40817009Y-66015404D01*
X40817009Y-66015404D02*
X40769390Y-65967785D01*
X40769390Y-65967785D02*
X40721771Y-65872547D01*
X40721771Y-65872547D02*
X40721771Y-65634452D01*
X40721771Y-65634452D02*
X40769390Y-65539214D01*
X40769390Y-65539214D02*
X40817009Y-65491595D01*
X40817009Y-65491595D02*
X40912247Y-65443976D01*
X40912247Y-65443976D02*
X41150342Y-65443976D01*
X41150342Y-65443976D02*
X41245580Y-65491595D01*
X41245580Y-65491595D02*
X41293200Y-65539214D01*
X41293200Y-65539214D02*
X41340819Y-65634452D01*
X41340819Y-65634452D02*
X41340819Y-65872547D01*
X41340819Y-65872547D02*
X41293200Y-65967785D01*
X41293200Y-65967785D02*
X41245580Y-66015404D01*
X41340819Y-64491595D02*
X41340819Y-65063023D01*
X41340819Y-64777309D02*
X40340819Y-64777309D01*
X40340819Y-64777309D02*
X40483676Y-64872547D01*
X40483676Y-64872547D02*
X40578914Y-64967785D01*
X40578914Y-64967785D02*
X40626533Y-65063023D01*
X61660819Y-61887785D02*
X60660819Y-61887785D01*
X60660819Y-61887785D02*
X60660819Y-61649690D01*
X60660819Y-61649690D02*
X60708438Y-61506833D01*
X60708438Y-61506833D02*
X60803676Y-61411595D01*
X60803676Y-61411595D02*
X60898914Y-61363976D01*
X60898914Y-61363976D02*
X61089390Y-61316357D01*
X61089390Y-61316357D02*
X61232247Y-61316357D01*
X61232247Y-61316357D02*
X61422723Y-61363976D01*
X61422723Y-61363976D02*
X61517961Y-61411595D01*
X61517961Y-61411595D02*
X61613200Y-61506833D01*
X61613200Y-61506833D02*
X61660819Y-61649690D01*
X61660819Y-61649690D02*
X61660819Y-61887785D01*
X60660819Y-60459214D02*
X60660819Y-60649690D01*
X60660819Y-60649690D02*
X60708438Y-60744928D01*
X60708438Y-60744928D02*
X60756057Y-60792547D01*
X60756057Y-60792547D02*
X60898914Y-60887785D01*
X60898914Y-60887785D02*
X61089390Y-60935404D01*
X61089390Y-60935404D02*
X61470342Y-60935404D01*
X61470342Y-60935404D02*
X61565580Y-60887785D01*
X61565580Y-60887785D02*
X61613200Y-60840166D01*
X61613200Y-60840166D02*
X61660819Y-60744928D01*
X61660819Y-60744928D02*
X61660819Y-60554452D01*
X61660819Y-60554452D02*
X61613200Y-60459214D01*
X61613200Y-60459214D02*
X61565580Y-60411595D01*
X61565580Y-60411595D02*
X61470342Y-60363976D01*
X61470342Y-60363976D02*
X61232247Y-60363976D01*
X61232247Y-60363976D02*
X61137009Y-60411595D01*
X61137009Y-60411595D02*
X61089390Y-60459214D01*
X61089390Y-60459214D02*
X61041771Y-60554452D01*
X61041771Y-60554452D02*
X61041771Y-60744928D01*
X61041771Y-60744928D02*
X61089390Y-60840166D01*
X61089390Y-60840166D02*
X61137009Y-60887785D01*
X61137009Y-60887785D02*
X61232247Y-60935404D01*
X60660819Y-60030642D02*
X60660819Y-59411595D01*
X60660819Y-59411595D02*
X61041771Y-59744928D01*
X61041771Y-59744928D02*
X61041771Y-59602071D01*
X61041771Y-59602071D02*
X61089390Y-59506833D01*
X61089390Y-59506833D02*
X61137009Y-59459214D01*
X61137009Y-59459214D02*
X61232247Y-59411595D01*
X61232247Y-59411595D02*
X61470342Y-59411595D01*
X61470342Y-59411595D02*
X61565580Y-59459214D01*
X61565580Y-59459214D02*
X61613200Y-59506833D01*
X61613200Y-59506833D02*
X61660819Y-59602071D01*
X61660819Y-59602071D02*
X61660819Y-59887785D01*
X61660819Y-59887785D02*
X61613200Y-59983023D01*
X61613200Y-59983023D02*
X61565580Y-60030642D01*
X66740819Y-72047785D02*
X65740819Y-72047785D01*
X65740819Y-72047785D02*
X65740819Y-71809690D01*
X65740819Y-71809690D02*
X65788438Y-71666833D01*
X65788438Y-71666833D02*
X65883676Y-71571595D01*
X65883676Y-71571595D02*
X65978914Y-71523976D01*
X65978914Y-71523976D02*
X66169390Y-71476357D01*
X66169390Y-71476357D02*
X66312247Y-71476357D01*
X66312247Y-71476357D02*
X66502723Y-71523976D01*
X66502723Y-71523976D02*
X66597961Y-71571595D01*
X66597961Y-71571595D02*
X66693200Y-71666833D01*
X66693200Y-71666833D02*
X66740819Y-71809690D01*
X66740819Y-71809690D02*
X66740819Y-72047785D01*
X66074152Y-70619214D02*
X66740819Y-70619214D01*
X65693200Y-70857309D02*
X66407485Y-71095404D01*
X66407485Y-71095404D02*
X66407485Y-70476357D01*
X66169390Y-69952547D02*
X66121771Y-70047785D01*
X66121771Y-70047785D02*
X66074152Y-70095404D01*
X66074152Y-70095404D02*
X65978914Y-70143023D01*
X65978914Y-70143023D02*
X65931295Y-70143023D01*
X65931295Y-70143023D02*
X65836057Y-70095404D01*
X65836057Y-70095404D02*
X65788438Y-70047785D01*
X65788438Y-70047785D02*
X65740819Y-69952547D01*
X65740819Y-69952547D02*
X65740819Y-69762071D01*
X65740819Y-69762071D02*
X65788438Y-69666833D01*
X65788438Y-69666833D02*
X65836057Y-69619214D01*
X65836057Y-69619214D02*
X65931295Y-69571595D01*
X65931295Y-69571595D02*
X65978914Y-69571595D01*
X65978914Y-69571595D02*
X66074152Y-69619214D01*
X66074152Y-69619214D02*
X66121771Y-69666833D01*
X66121771Y-69666833D02*
X66169390Y-69762071D01*
X66169390Y-69762071D02*
X66169390Y-69952547D01*
X66169390Y-69952547D02*
X66217009Y-70047785D01*
X66217009Y-70047785D02*
X66264628Y-70095404D01*
X66264628Y-70095404D02*
X66359866Y-70143023D01*
X66359866Y-70143023D02*
X66550342Y-70143023D01*
X66550342Y-70143023D02*
X66645580Y-70095404D01*
X66645580Y-70095404D02*
X66693200Y-70047785D01*
X66693200Y-70047785D02*
X66740819Y-69952547D01*
X66740819Y-69952547D02*
X66740819Y-69762071D01*
X66740819Y-69762071D02*
X66693200Y-69666833D01*
X66693200Y-69666833D02*
X66645580Y-69619214D01*
X66645580Y-69619214D02*
X66550342Y-69571595D01*
X66550342Y-69571595D02*
X66359866Y-69571595D01*
X66359866Y-69571595D02*
X66264628Y-69619214D01*
X66264628Y-69619214D02*
X66217009Y-69666833D01*
X66217009Y-69666833D02*
X66169390Y-69762071D01*
X56580819Y-61887785D02*
X55580819Y-61887785D01*
X55580819Y-61887785D02*
X55580819Y-61649690D01*
X55580819Y-61649690D02*
X55628438Y-61506833D01*
X55628438Y-61506833D02*
X55723676Y-61411595D01*
X55723676Y-61411595D02*
X55818914Y-61363976D01*
X55818914Y-61363976D02*
X56009390Y-61316357D01*
X56009390Y-61316357D02*
X56152247Y-61316357D01*
X56152247Y-61316357D02*
X56342723Y-61363976D01*
X56342723Y-61363976D02*
X56437961Y-61411595D01*
X56437961Y-61411595D02*
X56533200Y-61506833D01*
X56533200Y-61506833D02*
X56580819Y-61649690D01*
X56580819Y-61649690D02*
X56580819Y-61887785D01*
X55580819Y-60459214D02*
X55580819Y-60649690D01*
X55580819Y-60649690D02*
X55628438Y-60744928D01*
X55628438Y-60744928D02*
X55676057Y-60792547D01*
X55676057Y-60792547D02*
X55818914Y-60887785D01*
X55818914Y-60887785D02*
X56009390Y-60935404D01*
X56009390Y-60935404D02*
X56390342Y-60935404D01*
X56390342Y-60935404D02*
X56485580Y-60887785D01*
X56485580Y-60887785D02*
X56533200Y-60840166D01*
X56533200Y-60840166D02*
X56580819Y-60744928D01*
X56580819Y-60744928D02*
X56580819Y-60554452D01*
X56580819Y-60554452D02*
X56533200Y-60459214D01*
X56533200Y-60459214D02*
X56485580Y-60411595D01*
X56485580Y-60411595D02*
X56390342Y-60363976D01*
X56390342Y-60363976D02*
X56152247Y-60363976D01*
X56152247Y-60363976D02*
X56057009Y-60411595D01*
X56057009Y-60411595D02*
X56009390Y-60459214D01*
X56009390Y-60459214D02*
X55961771Y-60554452D01*
X55961771Y-60554452D02*
X55961771Y-60744928D01*
X55961771Y-60744928D02*
X56009390Y-60840166D01*
X56009390Y-60840166D02*
X56057009Y-60887785D01*
X56057009Y-60887785D02*
X56152247Y-60935404D01*
X55676057Y-59983023D02*
X55628438Y-59935404D01*
X55628438Y-59935404D02*
X55580819Y-59840166D01*
X55580819Y-59840166D02*
X55580819Y-59602071D01*
X55580819Y-59602071D02*
X55628438Y-59506833D01*
X55628438Y-59506833D02*
X55676057Y-59459214D01*
X55676057Y-59459214D02*
X55771295Y-59411595D01*
X55771295Y-59411595D02*
X55866533Y-59411595D01*
X55866533Y-59411595D02*
X56009390Y-59459214D01*
X56009390Y-59459214D02*
X56580819Y-60030642D01*
X56580819Y-60030642D02*
X56580819Y-59411595D01*
D11*
%TO.C,J3*%
X28456000Y-69786000D02*
X29836000Y-69786000D01*
X28456000Y-71166000D02*
X28456000Y-69786000D01*
X28456000Y-72436000D02*
X28456000Y-87786000D01*
X28456000Y-72436000D02*
X31216000Y-72436000D01*
X28456000Y-87786000D02*
X31216000Y-87786000D01*
X31216000Y-72436000D02*
X31216000Y-87786000D01*
%TO.C,J1*%
X69096000Y-69786000D02*
X70476000Y-69786000D01*
X69096000Y-71166000D02*
X69096000Y-69786000D01*
X69096000Y-72436000D02*
X69096000Y-87786000D01*
X69096000Y-72436000D02*
X71856000Y-72436000D01*
X69096000Y-87786000D02*
X71856000Y-87786000D01*
X71856000Y-72436000D02*
X71856000Y-87786000D01*
%TO.C,J2*%
X45855000Y-99123000D02*
X45855000Y-101883000D01*
X51045000Y-99123000D02*
X45855000Y-99123000D01*
X51045000Y-99123000D02*
X51045000Y-101883000D01*
X51045000Y-101883000D02*
X45855000Y-101883000D01*
X52315000Y-99123000D02*
X53695000Y-99123000D01*
X53695000Y-99123000D02*
X53695000Y-100503000D01*
%TO.C,D7*%
X61896000Y-95233500D02*
X61896000Y-97918500D01*
X61896000Y-97918500D02*
X63816000Y-97918500D01*
X63816000Y-97918500D02*
X63816000Y-95233500D01*
%TO.C,D55*%
X61896000Y-64753500D02*
X61896000Y-67438500D01*
X61896000Y-67438500D02*
X63816000Y-67438500D01*
X63816000Y-67438500D02*
X63816000Y-64753500D01*
%TO.C,D32*%
X66976000Y-79993500D02*
X66976000Y-82678500D01*
X66976000Y-82678500D02*
X68896000Y-82678500D01*
X68896000Y-82678500D02*
X68896000Y-79993500D01*
%TO.C,D33*%
X31416000Y-74913500D02*
X31416000Y-77598500D01*
X31416000Y-77598500D02*
X33336000Y-77598500D01*
X33336000Y-77598500D02*
X33336000Y-74913500D01*
%TO.C,D34*%
X36496000Y-74913500D02*
X36496000Y-77598500D01*
X36496000Y-77598500D02*
X38416000Y-77598500D01*
X38416000Y-77598500D02*
X38416000Y-74913500D01*
%TO.C,D17*%
X31416000Y-85073500D02*
X31416000Y-87758500D01*
X31416000Y-87758500D02*
X33336000Y-87758500D01*
X33336000Y-87758500D02*
X33336000Y-85073500D01*
%TO.C,D59*%
X41576000Y-59673500D02*
X41576000Y-62358500D01*
X41576000Y-62358500D02*
X43496000Y-62358500D01*
X43496000Y-62358500D02*
X43496000Y-59673500D01*
%TO.C,D53*%
X51736000Y-64753500D02*
X51736000Y-67438500D01*
X51736000Y-67438500D02*
X53656000Y-67438500D01*
X53656000Y-67438500D02*
X53656000Y-64753500D01*
%TO.C,D13*%
X51736000Y-90153500D02*
X51736000Y-92838500D01*
X51736000Y-92838500D02*
X53656000Y-92838500D01*
X53656000Y-92838500D02*
X53656000Y-90153500D01*
%TO.C,D3*%
X41576000Y-95233500D02*
X41576000Y-97918500D01*
X41576000Y-97918500D02*
X43496000Y-97918500D01*
X43496000Y-97918500D02*
X43496000Y-95233500D01*
%TO.C,D46*%
X56816000Y-69833500D02*
X56816000Y-72518500D01*
X56816000Y-72518500D02*
X58736000Y-72518500D01*
X58736000Y-72518500D02*
X58736000Y-69833500D01*
%TO.C,D15*%
X61896000Y-90153500D02*
X61896000Y-92838500D01*
X61896000Y-92838500D02*
X63816000Y-92838500D01*
X63816000Y-92838500D02*
X63816000Y-90153500D01*
%TO.C,D19*%
X41576000Y-85073500D02*
X41576000Y-87758500D01*
X41576000Y-87758500D02*
X43496000Y-87758500D01*
X43496000Y-87758500D02*
X43496000Y-85073500D01*
%TO.C,D38*%
X56816000Y-74913500D02*
X56816000Y-77598500D01*
X56816000Y-77598500D02*
X58736000Y-77598500D01*
X58736000Y-77598500D02*
X58736000Y-74913500D01*
%TO.C,D31*%
X61896000Y-79993500D02*
X61896000Y-82678500D01*
X61896000Y-82678500D02*
X63816000Y-82678500D01*
X63816000Y-82678500D02*
X63816000Y-79993500D01*
%TO.C,D10*%
X36496000Y-90153500D02*
X36496000Y-92838500D01*
X36496000Y-92838500D02*
X38416000Y-92838500D01*
X38416000Y-92838500D02*
X38416000Y-90153500D01*
%TO.C,D27*%
X41576000Y-79993500D02*
X41576000Y-82678500D01*
X41576000Y-82678500D02*
X43496000Y-82678500D01*
X43496000Y-82678500D02*
X43496000Y-79993500D01*
%TO.C,D1*%
X31376000Y-95233500D02*
X31376000Y-97918500D01*
X31376000Y-97918500D02*
X33296000Y-97918500D01*
X33296000Y-97918500D02*
X33296000Y-95233500D01*
%TO.C,D40*%
X66976000Y-74913500D02*
X66976000Y-77598500D01*
X66976000Y-77598500D02*
X68896000Y-77598500D01*
X68896000Y-77598500D02*
X68896000Y-74913500D01*
%TO.C,D47*%
X61896000Y-69833500D02*
X61896000Y-72518500D01*
X61896000Y-72518500D02*
X63816000Y-72518500D01*
X63816000Y-72518500D02*
X63816000Y-69833500D01*
%TO.C,D8*%
X66976000Y-95233500D02*
X66976000Y-97918500D01*
X66976000Y-97918500D02*
X68896000Y-97918500D01*
X68896000Y-97918500D02*
X68896000Y-95233500D01*
%TO.C,D14*%
X56816000Y-90153500D02*
X56816000Y-92838500D01*
X56816000Y-92838500D02*
X58736000Y-92838500D01*
X58736000Y-92838500D02*
X58736000Y-90153500D01*
%TO.C,D36*%
X46656000Y-74913500D02*
X46656000Y-77598500D01*
X46656000Y-77598500D02*
X48576000Y-77598500D01*
X48576000Y-77598500D02*
X48576000Y-74913500D01*
%TO.C,D30*%
X56816000Y-79993500D02*
X56816000Y-82678500D01*
X56816000Y-82678500D02*
X58736000Y-82678500D01*
X58736000Y-82678500D02*
X58736000Y-79993500D01*
%TO.C,D18*%
X36496000Y-85073500D02*
X36496000Y-87758500D01*
X36496000Y-87758500D02*
X38416000Y-87758500D01*
X38416000Y-87758500D02*
X38416000Y-85073500D01*
%TO.C,D16*%
X66976000Y-90153500D02*
X66976000Y-92838500D01*
X66976000Y-92838500D02*
X68896000Y-92838500D01*
X68896000Y-92838500D02*
X68896000Y-90153500D01*
%TO.C,D61*%
X51736000Y-59673500D02*
X51736000Y-62358500D01*
X51736000Y-62358500D02*
X53656000Y-62358500D01*
X53656000Y-62358500D02*
X53656000Y-59673500D01*
%TO.C,D29*%
X51736000Y-79993500D02*
X51736000Y-82678500D01*
X51736000Y-82678500D02*
X53656000Y-82678500D01*
X53656000Y-82678500D02*
X53656000Y-79993500D01*
%TO.C,D6*%
X56816000Y-95233500D02*
X56816000Y-97918500D01*
X56816000Y-97918500D02*
X58736000Y-97918500D01*
X58736000Y-97918500D02*
X58736000Y-95233500D01*
%TO.C,D50*%
X36496000Y-64753500D02*
X36496000Y-67438500D01*
X36496000Y-67438500D02*
X38416000Y-67438500D01*
X38416000Y-67438500D02*
X38416000Y-64753500D01*
%TO.C,D54*%
X56816000Y-64753500D02*
X56816000Y-67438500D01*
X56816000Y-67438500D02*
X58736000Y-67438500D01*
X58736000Y-67438500D02*
X58736000Y-64753500D01*
%TO.C,D35*%
X41576000Y-74913500D02*
X41576000Y-77598500D01*
X41576000Y-77598500D02*
X43496000Y-77598500D01*
X43496000Y-77598500D02*
X43496000Y-74913500D01*
%TO.C,D41*%
X31416000Y-69833500D02*
X31416000Y-72518500D01*
X31416000Y-72518500D02*
X33336000Y-72518500D01*
X33336000Y-72518500D02*
X33336000Y-69833500D01*
%TO.C,D42*%
X36496000Y-69833500D02*
X36496000Y-72518500D01*
X36496000Y-72518500D02*
X38416000Y-72518500D01*
X38416000Y-72518500D02*
X38416000Y-69833500D01*
%TO.C,D45*%
X51736000Y-69833500D02*
X51736000Y-72518500D01*
X51736000Y-72518500D02*
X53656000Y-72518500D01*
X53656000Y-72518500D02*
X53656000Y-69833500D01*
%TO.C,D9*%
X31416000Y-90153500D02*
X31416000Y-92838500D01*
X31416000Y-92838500D02*
X33336000Y-92838500D01*
X33336000Y-92838500D02*
X33336000Y-90153500D01*
%TO.C,D57*%
X31416000Y-59673500D02*
X31416000Y-62358500D01*
X31416000Y-62358500D02*
X33336000Y-62358500D01*
X33336000Y-62358500D02*
X33336000Y-59673500D01*
%TO.C,D12*%
X46656000Y-90153500D02*
X46656000Y-92838500D01*
X46656000Y-92838500D02*
X48576000Y-92838500D01*
X48576000Y-92838500D02*
X48576000Y-90153500D01*
%TO.C,D20*%
X46656000Y-85073500D02*
X46656000Y-87758500D01*
X46656000Y-87758500D02*
X48576000Y-87758500D01*
X48576000Y-87758500D02*
X48576000Y-85073500D01*
%TO.C,D24*%
X66976000Y-85073500D02*
X66976000Y-87758500D01*
X66976000Y-87758500D02*
X68896000Y-87758500D01*
X68896000Y-87758500D02*
X68896000Y-85073500D01*
%TO.C,D43*%
X41576000Y-69833500D02*
X41576000Y-72518500D01*
X41576000Y-72518500D02*
X43496000Y-72518500D01*
X43496000Y-72518500D02*
X43496000Y-69833500D01*
%TO.C,D49*%
X31416000Y-64753500D02*
X31416000Y-67438500D01*
X31416000Y-67438500D02*
X33336000Y-67438500D01*
X33336000Y-67438500D02*
X33336000Y-64753500D01*
%TO.C,D28*%
X46656000Y-79993500D02*
X46656000Y-82678500D01*
X46656000Y-82678500D02*
X48576000Y-82678500D01*
X48576000Y-82678500D02*
X48576000Y-79993500D01*
%TO.C,D11*%
X41576000Y-90153500D02*
X41576000Y-92838500D01*
X41576000Y-92838500D02*
X43496000Y-92838500D01*
X43496000Y-92838500D02*
X43496000Y-90153500D01*
%TO.C,D2*%
X36456000Y-95233500D02*
X36456000Y-97918500D01*
X36456000Y-97918500D02*
X38376000Y-97918500D01*
X38376000Y-97918500D02*
X38376000Y-95233500D01*
%TO.C,D44*%
X46656000Y-69833500D02*
X46656000Y-72518500D01*
X46656000Y-72518500D02*
X48576000Y-72518500D01*
X48576000Y-72518500D02*
X48576000Y-69833500D01*
%TO.C,D23*%
X61896000Y-85073500D02*
X61896000Y-87758500D01*
X61896000Y-87758500D02*
X63816000Y-87758500D01*
X63816000Y-87758500D02*
X63816000Y-85073500D01*
%TO.C,D56*%
X66976000Y-64753500D02*
X66976000Y-67438500D01*
X66976000Y-67438500D02*
X68896000Y-67438500D01*
X68896000Y-67438500D02*
X68896000Y-64753500D01*
%TO.C,D37*%
X51736000Y-74913500D02*
X51736000Y-77598500D01*
X51736000Y-77598500D02*
X53656000Y-77598500D01*
X53656000Y-77598500D02*
X53656000Y-74913500D01*
%TO.C,D58*%
X36496000Y-59673500D02*
X36496000Y-62358500D01*
X36496000Y-62358500D02*
X38416000Y-62358500D01*
X38416000Y-62358500D02*
X38416000Y-59673500D01*
%TO.C,D39*%
X61896000Y-74913500D02*
X61896000Y-77598500D01*
X61896000Y-77598500D02*
X63816000Y-77598500D01*
X63816000Y-77598500D02*
X63816000Y-74913500D01*
%TO.C,D26*%
X36496000Y-79993500D02*
X36496000Y-82678500D01*
X36496000Y-82678500D02*
X38416000Y-82678500D01*
X38416000Y-82678500D02*
X38416000Y-79993500D01*
%TO.C,D5*%
X51736000Y-95233500D02*
X51736000Y-97918500D01*
X51736000Y-97918500D02*
X53656000Y-97918500D01*
X53656000Y-97918500D02*
X53656000Y-95233500D01*
%TO.C,D52*%
X46656000Y-64753500D02*
X46656000Y-67438500D01*
X46656000Y-67438500D02*
X48576000Y-67438500D01*
X48576000Y-67438500D02*
X48576000Y-64753500D01*
%TO.C,D60*%
X46656000Y-59673500D02*
X46656000Y-62358500D01*
X46656000Y-62358500D02*
X48576000Y-62358500D01*
X48576000Y-62358500D02*
X48576000Y-59673500D01*
%TO.C,D64*%
X66976000Y-59673500D02*
X66976000Y-62358500D01*
X66976000Y-62358500D02*
X68896000Y-62358500D01*
X68896000Y-62358500D02*
X68896000Y-59673500D01*
%TO.C,D25*%
X31416000Y-79993500D02*
X31416000Y-82678500D01*
X31416000Y-82678500D02*
X33336000Y-82678500D01*
X33336000Y-82678500D02*
X33336000Y-79993500D01*
%TO.C,D4*%
X46656000Y-95233500D02*
X46656000Y-97918500D01*
X46656000Y-97918500D02*
X48576000Y-97918500D01*
X48576000Y-97918500D02*
X48576000Y-95233500D01*
%TO.C,D21*%
X51736000Y-85073500D02*
X51736000Y-87758500D01*
X51736000Y-87758500D02*
X53656000Y-87758500D01*
X53656000Y-87758500D02*
X53656000Y-85073500D01*
%TO.C,D22*%
X56816000Y-85073500D02*
X56816000Y-87758500D01*
X56816000Y-87758500D02*
X58736000Y-87758500D01*
X58736000Y-87758500D02*
X58736000Y-85073500D01*
%TO.C,D51*%
X41576000Y-64753500D02*
X41576000Y-67438500D01*
X41576000Y-67438500D02*
X43496000Y-67438500D01*
X43496000Y-67438500D02*
X43496000Y-64753500D01*
%TO.C,D63*%
X61896000Y-59673500D02*
X61896000Y-62358500D01*
X61896000Y-62358500D02*
X63816000Y-62358500D01*
X63816000Y-62358500D02*
X63816000Y-59673500D01*
%TO.C,D48*%
X66976000Y-69833500D02*
X66976000Y-72518500D01*
X66976000Y-72518500D02*
X68896000Y-72518500D01*
X68896000Y-72518500D02*
X68896000Y-69833500D01*
%TO.C,D62*%
X56816000Y-59673500D02*
X56816000Y-62358500D01*
X56816000Y-62358500D02*
X58736000Y-62358500D01*
X58736000Y-62358500D02*
X58736000Y-59673500D01*
%TD*%
M02*
