M48
; DRILL file {KiCad 9.0.3} date 2025-08-28T20:36:35+0200
; FORMAT={-:-/ absolute / metric / decimal}
; #@! TF.CreationDate,2025-08-28T20:36:35+02:00
; #@! TF.GenerationSoftware,Kicad,Pcbnew,9.0.3
; #@! TF.FileFunction,Plated,1,2,PTH
FMAT,2
METRIC
; #@! TA.AperFunction,Plated,PTH,ViaDrill
T1C0.300
; #@! TA.AperFunction,Plated,PTH,ComponentDrill
T2C1.000
%
G90
G05
T1
X150.232Y-79.04
X150.232Y-84.12
X150.232Y-89.2
X150.232Y-94.28
X150.232Y-99.36
X150.232Y-104.44
X150.232Y-109.52
X150.232Y-114.6
X151.169Y-116.124
X155.312Y-79.04
X155.312Y-84.12
X155.312Y-89.2
X155.312Y-94.28
X155.312Y-99.36
X155.312Y-104.44
X155.312Y-109.52
X155.312Y-114.6
X156.249Y-116.124
X160.392Y-79.04
X160.392Y-84.12
X160.392Y-89.2
X160.392Y-94.28
X160.392Y-99.36
X160.392Y-104.44
X160.392Y-109.52
X160.392Y-114.6
X161.329Y-116.124
X165.472Y-79.04
X165.472Y-84.12
X165.472Y-89.2
X165.472Y-94.28
X165.472Y-99.36
X165.472Y-104.44
X165.472Y-109.52
X165.472Y-114.6
X166.409Y-116.124
X170.552Y-79.04
X170.552Y-84.12
X170.552Y-89.2
X170.552Y-94.28
X170.552Y-99.36
X170.552Y-104.44
X170.552Y-109.52
X170.552Y-114.6
X171.489Y-116.124
X175.632Y-79.04
X175.632Y-84.12
X175.632Y-89.2
X175.632Y-94.28
X175.632Y-99.36
X175.632Y-104.44
X175.632Y-109.52
X175.632Y-114.6
X176.57Y-116.124
X180.712Y-79.04
X180.712Y-84.12
X180.712Y-89.2
X180.712Y-94.28
X180.712Y-99.36
X180.712Y-104.44
X180.712Y-109.52
X180.712Y-114.6
X181.649Y-116.124
X185.792Y-79.04
X185.792Y-84.12
X185.792Y-89.2
X185.792Y-94.28
X185.792Y-99.36
X185.792Y-104.44
X185.792Y-109.52
X185.792Y-114.6
T2
X147.692Y-124.76
X150.232Y-124.76
X152.772Y-124.76
X155.312Y-124.76
X157.852Y-124.76
X160.392Y-124.76
X162.932Y-124.76
X165.472Y-124.76
X169.028Y-124.76
X171.568Y-124.76
X174.108Y-124.76
X176.648Y-124.76
X179.188Y-124.76
X181.728Y-124.76
X184.268Y-124.76
X186.808Y-124.76
M30
