%TF.GenerationSoftware,KiCad,Pcbnew,9.0.3*%
%TF.CreationDate,2025-08-28T20:36:14+02:00*%
%TF.ProjectId,ledki8x8,6c65646b-6938-4783-982e-6b696361645f,rev?*%
%TF.SameCoordinates,Original*%
%TF.FileFunction,Legend,Top*%
%TF.FilePolarity,Positive*%
%FSLAX46Y46*%
G04 Gerber Fmt 4.6, Leading zero omitted, Abs format (unit mm)*
G04 Created by KiCad (PCBNEW 9.0.3) date 2025-08-28 20:36:14*
%MOMM*%
%LPD*%
G01*
G04 APERTURE LIST*
%ADD10C,0.120000*%
G04 APERTURE END LIST*
D10*
%TO.C,J2*%
X185538000Y-126140000D02*
X167648000Y-126140000D01*
X167648000Y-123380000D02*
X167648000Y-126140000D01*
X185538000Y-123380000D02*
X185538000Y-126140000D01*
X185538000Y-123380000D02*
X167648000Y-123380000D01*
X186808000Y-123380000D02*
X188188000Y-123380000D01*
X188188000Y-123380000D02*
X188188000Y-124760000D01*
%TO.C,J1*%
X164202000Y-126140000D02*
X146312000Y-126140000D01*
X146312000Y-123380000D02*
X146312000Y-126140000D01*
X164202000Y-123380000D02*
X164202000Y-126140000D01*
X164202000Y-123380000D02*
X146312000Y-123380000D01*
X165472000Y-123380000D02*
X166852000Y-123380000D01*
X166852000Y-123380000D02*
X166852000Y-124760000D01*
%TO.C,R5*%
X156047000Y-121080436D02*
X156047000Y-121534564D01*
X154577000Y-121080436D02*
X154577000Y-121534564D01*
%TO.C,R1*%
X164737000Y-121080436D02*
X164737000Y-121534564D01*
X166207000Y-121080436D02*
X166207000Y-121534564D01*
%TO.C,R4*%
X157117000Y-121080436D02*
X157117000Y-121534564D01*
X158587000Y-121080436D02*
X158587000Y-121534564D01*
%TO.C,R2*%
X162197000Y-121080436D02*
X162197000Y-121534564D01*
X163667000Y-121080436D02*
X163667000Y-121534564D01*
%TO.C,R3*%
X159657000Y-121080436D02*
X159657000Y-121534564D01*
X161127000Y-121080436D02*
X161127000Y-121534564D01*
%TO.C,R8*%
X146957000Y-121080436D02*
X146957000Y-121534564D01*
X148427000Y-121080436D02*
X148427000Y-121534564D01*
%TO.C,R7*%
X149497000Y-121080436D02*
X149497000Y-121534564D01*
X150967000Y-121080436D02*
X150967000Y-121534564D01*
%TO.C,R6*%
X152037000Y-121080436D02*
X152037000Y-121534564D01*
X153507000Y-121080436D02*
X153507000Y-121534564D01*
%TO.C,D8*%
X147629500Y-80000000D02*
X150314500Y-80000000D01*
X150314500Y-78080000D02*
X147629500Y-78080000D01*
X150314500Y-80000000D02*
X150314500Y-78080000D01*
%TO.C,D7*%
X152709500Y-80000000D02*
X155394500Y-80000000D01*
X155394500Y-78080000D02*
X152709500Y-78080000D01*
X155394500Y-80000000D02*
X155394500Y-78080000D01*
%TO.C,D15*%
X152709500Y-85080000D02*
X155394500Y-85080000D01*
X155394500Y-83160000D02*
X152709500Y-83160000D01*
X155394500Y-85080000D02*
X155394500Y-83160000D01*
%TO.C,D30*%
X152709500Y-95240000D02*
X155394500Y-95240000D01*
X155394500Y-93320000D02*
X152709500Y-93320000D01*
X155394500Y-95240000D02*
X155394500Y-93320000D01*
%TO.C,D57*%
X152709500Y-100320000D02*
X155394500Y-100320000D01*
X155394500Y-98400000D02*
X152709500Y-98400000D01*
X155394500Y-100320000D02*
X155394500Y-98400000D01*
%TO.C,D58*%
X152709500Y-105400000D02*
X155394500Y-105400000D01*
X155394500Y-103480000D02*
X152709500Y-103480000D01*
X155394500Y-105400000D02*
X155394500Y-103480000D01*
%TO.C,D59*%
X152709500Y-110480000D02*
X155394500Y-110480000D01*
X155394500Y-108560000D02*
X152709500Y-108560000D01*
X155394500Y-110480000D02*
X155394500Y-108560000D01*
%TO.C,D60*%
X152709500Y-115560000D02*
X155394500Y-115560000D01*
X155394500Y-113640000D02*
X152709500Y-113640000D01*
X155394500Y-115560000D02*
X155394500Y-113640000D01*
%TO.C,D29*%
X152709500Y-90160000D02*
X155394500Y-90160000D01*
X155394500Y-88240000D02*
X152709500Y-88240000D01*
X155394500Y-90160000D02*
X155394500Y-88240000D01*
%TO.C,D16*%
X147629500Y-85080000D02*
X150314500Y-85080000D01*
X150314500Y-83160000D02*
X147629500Y-83160000D01*
X150314500Y-85080000D02*
X150314500Y-83160000D01*
%TO.C,D2*%
X180794500Y-80000000D02*
X180794500Y-78080000D01*
X180794500Y-78080000D02*
X178109500Y-78080000D01*
X178109500Y-80000000D02*
X180794500Y-80000000D01*
%TO.C,D10*%
X180794500Y-85080000D02*
X180794500Y-83160000D01*
X180794500Y-83160000D02*
X178109500Y-83160000D01*
X178109500Y-85080000D02*
X180794500Y-85080000D01*
%TO.C,D19*%
X180794500Y-90160000D02*
X180794500Y-88240000D01*
X180794500Y-88240000D02*
X178109500Y-88240000D01*
X178109500Y-90160000D02*
X180794500Y-90160000D01*
%TO.C,D20*%
X180794500Y-95240000D02*
X180794500Y-93320000D01*
X180794500Y-93320000D02*
X178109500Y-93320000D01*
X178109500Y-95240000D02*
X180794500Y-95240000D01*
%TO.C,D40*%
X180794500Y-115560000D02*
X180794500Y-113640000D01*
X180794500Y-113640000D02*
X178109500Y-113640000D01*
X178109500Y-115560000D02*
X180794500Y-115560000D01*
%TO.C,D37*%
X180794500Y-100320000D02*
X180794500Y-98400000D01*
X180794500Y-98400000D02*
X178109500Y-98400000D01*
X178109500Y-100320000D02*
X180794500Y-100320000D01*
%TO.C,D38*%
X180794500Y-105400000D02*
X180794500Y-103480000D01*
X180794500Y-103480000D02*
X178109500Y-103480000D01*
X178109500Y-105400000D02*
X180794500Y-105400000D01*
%TO.C,D39*%
X180794500Y-110480000D02*
X180794500Y-108560000D01*
X180794500Y-108560000D02*
X178109500Y-108560000D01*
X178109500Y-110480000D02*
X180794500Y-110480000D01*
%TO.C,D36*%
X186010994Y-115567608D02*
X186010994Y-113647608D01*
X186010994Y-113647608D02*
X183325994Y-113647608D01*
X183325994Y-115567608D02*
X186010994Y-115567608D01*
%TO.C,D18*%
X186010994Y-95247608D02*
X186010994Y-93327608D01*
X186010994Y-93327608D02*
X183325994Y-93327608D01*
X183325994Y-95247608D02*
X186010994Y-95247608D01*
%TO.C,D35*%
X186010994Y-110487608D02*
X186010994Y-108567608D01*
X186010994Y-108567608D02*
X183325994Y-108567608D01*
X183325994Y-110487608D02*
X186010994Y-110487608D01*
%TO.C,D33*%
X183325994Y-100327608D02*
X186010994Y-100327608D01*
X186010994Y-98407608D02*
X183325994Y-98407608D01*
X186010994Y-100327608D02*
X186010994Y-98407608D01*
%TO.C,D9*%
X186010994Y-85087608D02*
X186010994Y-83167608D01*
X186010994Y-83167608D02*
X183325994Y-83167608D01*
X183325994Y-85087608D02*
X186010994Y-85087608D01*
%TO.C,D17*%
X186010994Y-90167608D02*
X186010994Y-88247608D01*
X186010994Y-88247608D02*
X183325994Y-88247608D01*
X183325994Y-90167608D02*
X186010994Y-90167608D01*
%TO.C,D34*%
X186010994Y-105407608D02*
X186010994Y-103487608D01*
X186010994Y-103487608D02*
X183325994Y-103487608D01*
X183325994Y-105407608D02*
X186010994Y-105407608D01*
%TO.C,D1*%
X186010994Y-80007608D02*
X186010994Y-78087608D01*
X186010994Y-78087608D02*
X183325994Y-78087608D01*
X183325994Y-80007608D02*
X186010994Y-80007608D01*
%TO.C,D53*%
X157789500Y-100320000D02*
X160474500Y-100320000D01*
X160474500Y-98400000D02*
X157789500Y-98400000D01*
X160474500Y-100320000D02*
X160474500Y-98400000D01*
%TO.C,D64*%
X150314500Y-115560000D02*
X150314500Y-113640000D01*
X150314500Y-113640000D02*
X147629500Y-113640000D01*
X147629500Y-115560000D02*
X150314500Y-115560000D01*
%TO.C,D63*%
X150314500Y-110480000D02*
X150314500Y-108560000D01*
X150314500Y-108560000D02*
X147629500Y-108560000D01*
X147629500Y-110480000D02*
X150314500Y-110480000D01*
%TO.C,D62*%
X150314500Y-105400000D02*
X150314500Y-103480000D01*
X150314500Y-103480000D02*
X147629500Y-103480000D01*
X147629500Y-105400000D02*
X150314500Y-105400000D01*
%TO.C,D61*%
X150314500Y-100320000D02*
X150314500Y-98400000D01*
X150314500Y-98400000D02*
X147629500Y-98400000D01*
X147629500Y-100320000D02*
X150314500Y-100320000D01*
%TO.C,D56*%
X160474500Y-115560000D02*
X160474500Y-113640000D01*
X160474500Y-113640000D02*
X157789500Y-113640000D01*
X157789500Y-115560000D02*
X160474500Y-115560000D01*
%TO.C,D55*%
X160474500Y-110480000D02*
X160474500Y-108560000D01*
X160474500Y-108560000D02*
X157789500Y-108560000D01*
X157789500Y-110480000D02*
X160474500Y-110480000D01*
%TO.C,D54*%
X160474500Y-105400000D02*
X160474500Y-103480000D01*
X160474500Y-103480000D02*
X157789500Y-103480000D01*
X157789500Y-105400000D02*
X160474500Y-105400000D01*
%TO.C,D52*%
X165554500Y-115560000D02*
X165554500Y-113640000D01*
X165554500Y-113640000D02*
X162869500Y-113640000D01*
X162869500Y-115560000D02*
X165554500Y-115560000D01*
%TO.C,D51*%
X165554500Y-110480000D02*
X165554500Y-108560000D01*
X165554500Y-108560000D02*
X162869500Y-108560000D01*
X162869500Y-110480000D02*
X165554500Y-110480000D01*
%TO.C,D50*%
X165554500Y-105400000D02*
X165554500Y-103480000D01*
X165554500Y-103480000D02*
X162869500Y-103480000D01*
X162869500Y-105400000D02*
X165554500Y-105400000D01*
%TO.C,D49*%
X165554500Y-100320000D02*
X165554500Y-98400000D01*
X165554500Y-98400000D02*
X162869500Y-98400000D01*
X162869500Y-100320000D02*
X165554500Y-100320000D01*
%TO.C,D48*%
X170634500Y-115560000D02*
X170634500Y-113640000D01*
X170634500Y-113640000D02*
X167949500Y-113640000D01*
X167949500Y-115560000D02*
X170634500Y-115560000D01*
%TO.C,D47*%
X170634500Y-110480000D02*
X170634500Y-108560000D01*
X170634500Y-108560000D02*
X167949500Y-108560000D01*
X167949500Y-110480000D02*
X170634500Y-110480000D01*
%TO.C,D46*%
X170634500Y-105400000D02*
X170634500Y-103480000D01*
X170634500Y-103480000D02*
X167949500Y-103480000D01*
X167949500Y-105400000D02*
X170634500Y-105400000D01*
%TO.C,D45*%
X170634500Y-100320000D02*
X170634500Y-98400000D01*
X170634500Y-98400000D02*
X167949500Y-98400000D01*
X167949500Y-100320000D02*
X170634500Y-100320000D01*
%TO.C,D44*%
X175714500Y-115560000D02*
X175714500Y-113640000D01*
X175714500Y-113640000D02*
X173029500Y-113640000D01*
X173029500Y-115560000D02*
X175714500Y-115560000D01*
%TO.C,D43*%
X175714500Y-110480000D02*
X175714500Y-108560000D01*
X175714500Y-108560000D02*
X173029500Y-108560000D01*
X173029500Y-110480000D02*
X175714500Y-110480000D01*
%TO.C,D42*%
X175714500Y-105400000D02*
X175714500Y-103480000D01*
X175714500Y-103480000D02*
X173029500Y-103480000D01*
X173029500Y-105400000D02*
X175714500Y-105400000D01*
%TO.C,D41*%
X175714500Y-100320000D02*
X175714500Y-98400000D01*
X175714500Y-98400000D02*
X173029500Y-98400000D01*
X173029500Y-100320000D02*
X175714500Y-100320000D01*
%TO.C,D32*%
X150314500Y-95240000D02*
X150314500Y-93320000D01*
X150314500Y-93320000D02*
X147629500Y-93320000D01*
X147629500Y-95240000D02*
X150314500Y-95240000D01*
%TO.C,D31*%
X150314500Y-90160000D02*
X150314500Y-88240000D01*
X150314500Y-88240000D02*
X147629500Y-88240000D01*
X147629500Y-90160000D02*
X150314500Y-90160000D01*
%TO.C,D28*%
X160474500Y-95240000D02*
X160474500Y-93320000D01*
X160474500Y-93320000D02*
X157789500Y-93320000D01*
X157789500Y-95240000D02*
X160474500Y-95240000D01*
%TO.C,D27*%
X160474500Y-90160000D02*
X160474500Y-88240000D01*
X160474500Y-88240000D02*
X157789500Y-88240000D01*
X157789500Y-90160000D02*
X160474500Y-90160000D01*
%TO.C,D26*%
X165554500Y-95240000D02*
X165554500Y-93320000D01*
X165554500Y-93320000D02*
X162869500Y-93320000D01*
X162869500Y-95240000D02*
X165554500Y-95240000D01*
%TO.C,D25*%
X165554500Y-90160000D02*
X165554500Y-88240000D01*
X165554500Y-88240000D02*
X162869500Y-88240000D01*
X162869500Y-90160000D02*
X165554500Y-90160000D01*
%TO.C,D24*%
X170634500Y-95240000D02*
X170634500Y-93320000D01*
X170634500Y-93320000D02*
X167949500Y-93320000D01*
X167949500Y-95240000D02*
X170634500Y-95240000D01*
%TO.C,D23*%
X170634500Y-90160000D02*
X170634500Y-88240000D01*
X170634500Y-88240000D02*
X167949500Y-88240000D01*
X167949500Y-90160000D02*
X170634500Y-90160000D01*
%TO.C,D22*%
X175714500Y-95240000D02*
X175714500Y-93320000D01*
X175714500Y-93320000D02*
X173029500Y-93320000D01*
X173029500Y-95240000D02*
X175714500Y-95240000D01*
%TO.C,D21*%
X175714500Y-90160000D02*
X175714500Y-88240000D01*
X175714500Y-88240000D02*
X173029500Y-88240000D01*
X173029500Y-90160000D02*
X175714500Y-90160000D01*
%TO.C,D14*%
X160474500Y-85080000D02*
X160474500Y-83160000D01*
X160474500Y-83160000D02*
X157789500Y-83160000D01*
X157789500Y-85080000D02*
X160474500Y-85080000D01*
%TO.C,D13*%
X165554500Y-85080000D02*
X165554500Y-83160000D01*
X165554500Y-83160000D02*
X162869500Y-83160000D01*
X162869500Y-85080000D02*
X165554500Y-85080000D01*
%TO.C,D12*%
X170634500Y-85080000D02*
X170634500Y-83160000D01*
X170634500Y-83160000D02*
X167949500Y-83160000D01*
X167949500Y-85080000D02*
X170634500Y-85080000D01*
%TO.C,D11*%
X175714500Y-85080000D02*
X175714500Y-83160000D01*
X175714500Y-83160000D02*
X173029500Y-83160000D01*
X173029500Y-85080000D02*
X175714500Y-85080000D01*
%TO.C,D6*%
X160474500Y-80000000D02*
X160474500Y-78080000D01*
X160474500Y-78080000D02*
X157789500Y-78080000D01*
X157789500Y-80000000D02*
X160474500Y-80000000D01*
%TO.C,D5*%
X165554500Y-80000000D02*
X165554500Y-78080000D01*
X165554500Y-78080000D02*
X162869500Y-78080000D01*
X162869500Y-80000000D02*
X165554500Y-80000000D01*
%TO.C,D4*%
X170634500Y-80000000D02*
X170634500Y-78080000D01*
X170634500Y-78080000D02*
X167949500Y-78080000D01*
X167949500Y-80000000D02*
X170634500Y-80000000D01*
%TO.C,D3*%
X175714500Y-80000000D02*
X175714500Y-78080000D01*
X175714500Y-78080000D02*
X173029500Y-78080000D01*
X173029500Y-80000000D02*
X175714500Y-80000000D01*
%TD*%
M02*
