%TF.GenerationSoftware,KiCad,Pcbnew,9.0.3*%
%TF.CreationDate,2025-08-28T20:36:14+02:00*%
%TF.ProjectId,ledki8x8,6c65646b-6938-4783-982e-6b696361645f,rev?*%
%TF.SameCoordinates,Original*%
%TF.FileFunction,Copper,L2,Bot*%
%TF.FilePolarity,Positive*%
%FSLAX46Y46*%
G04 Gerber Fmt 4.6, Leading zero omitted, Abs format (unit mm)*
G04 Created by KiCad (PCBNEW 9.0.3) date 2025-08-28 20:36:14*
%MOMM*%
%LPD*%
G01*
G04 APERTURE LIST*
%TA.AperFunction,ComponentPad*%
%ADD10C,1.700000*%
%TD*%
%TA.AperFunction,ComponentPad*%
%ADD11R,1.700000X1.700000*%
%TD*%
%TA.AperFunction,ViaPad*%
%ADD12C,0.600000*%
%TD*%
%TA.AperFunction,Conductor*%
%ADD13C,0.250000*%
%TD*%
G04 APERTURE END LIST*
D10*
%TO.P,J2,8,Pin_8*%
%TO.N,Net-(D36-K)*%
X169028000Y-124760000D03*
%TO.P,J2,7,Pin_7*%
%TO.N,Net-(D35-K)*%
X171568000Y-124760000D03*
%TO.P,J2,6,Pin_6*%
%TO.N,Net-(D34-K)*%
X174108000Y-124760000D03*
%TO.P,J2,5,Pin_5*%
%TO.N,Net-(D33-K)*%
X176648000Y-124760000D03*
%TO.P,J2,4,Pin_4*%
%TO.N,Net-(D18-K)*%
X179188000Y-124760000D03*
%TO.P,J2,3,Pin_3*%
%TO.N,Net-(D17-K)*%
X181728000Y-124760000D03*
%TO.P,J2,2,Pin_2*%
%TO.N,Net-(D10-K)*%
X184268000Y-124760000D03*
D11*
%TO.P,J2,1,Pin_1*%
%TO.N,Net-(D1-K)*%
X186808000Y-124760000D03*
%TD*%
D10*
%TO.P,J1,8,Pin_8*%
%TO.N,Net-(J1-Pin_8)*%
X147692000Y-124760000D03*
%TO.P,J1,7,Pin_7*%
%TO.N,Net-(J1-Pin_7)*%
X150232000Y-124760000D03*
%TO.P,J1,6,Pin_6*%
%TO.N,Net-(J1-Pin_6)*%
X152772000Y-124760000D03*
%TO.P,J1,5,Pin_5*%
%TO.N,Net-(J1-Pin_5)*%
X155312000Y-124760000D03*
%TO.P,J1,4,Pin_4*%
%TO.N,Net-(J1-Pin_4)*%
X157852000Y-124760000D03*
%TO.P,J1,3,Pin_3*%
%TO.N,Net-(J1-Pin_3)*%
X160392000Y-124760000D03*
%TO.P,J1,2,Pin_2*%
%TO.N,Net-(J1-Pin_2)*%
X162932000Y-124760000D03*
D11*
%TO.P,J1,1,Pin_1*%
%TO.N,Net-(J1-Pin_1)*%
X165472000Y-124760000D03*
%TD*%
D12*
%TO.N,Net-(D10-K)*%
X181649500Y-116124000D03*
%TO.N,Net-(D17-K)*%
X176569500Y-116124000D03*
%TO.N,Net-(D18-K)*%
X171489500Y-116124000D03*
%TO.N,Net-(D33-K)*%
X166409500Y-116124000D03*
%TO.N,Net-(D34-K)*%
X161329500Y-116124000D03*
%TO.N,Net-(D35-K)*%
X156249500Y-116124000D03*
%TO.N,Net-(D36-K)*%
X151169500Y-116124000D03*
X185792000Y-114600000D03*
X180712000Y-114600000D03*
X175632000Y-114600000D03*
X170552000Y-114600000D03*
X165472000Y-114600000D03*
X160392000Y-114600000D03*
X155312000Y-114600000D03*
%TO.N,Net-(D35-K)*%
X185792000Y-109520000D03*
X180712000Y-109520000D03*
X175632000Y-109520000D03*
X170552000Y-109520000D03*
X165472000Y-109520000D03*
X160392000Y-109520000D03*
X155312000Y-109520000D03*
%TO.N,Net-(D34-K)*%
X185792000Y-104440000D03*
X180712000Y-104440000D03*
X175632000Y-104440000D03*
X170552000Y-104440000D03*
X165472000Y-104440000D03*
X160392000Y-104440000D03*
X155312000Y-104440000D03*
%TO.N,Net-(D33-K)*%
X185792000Y-99360000D03*
X180712000Y-99360000D03*
X175632000Y-99360000D03*
X170552000Y-99360000D03*
X165472000Y-99360000D03*
X160392000Y-99360000D03*
X155312000Y-99360000D03*
%TO.N,Net-(D18-K)*%
X185792000Y-94280000D03*
X180712000Y-94280000D03*
X175632000Y-94280000D03*
X170552000Y-94280000D03*
X165472000Y-94280000D03*
X160392000Y-94280000D03*
X155312000Y-94280000D03*
%TO.N,Net-(D17-K)*%
X185792000Y-89200000D03*
X180712000Y-89200000D03*
X175632000Y-89200000D03*
X170552000Y-89200000D03*
X165472000Y-89200000D03*
X160392000Y-89200000D03*
X155312000Y-89200000D03*
%TO.N,Net-(D36-K)*%
X150232000Y-114600000D03*
%TO.N,Net-(D35-K)*%
X150232000Y-109520000D03*
%TO.N,Net-(D34-K)*%
X150232000Y-104440000D03*
%TO.N,Net-(D33-K)*%
X150232000Y-99360000D03*
%TO.N,Net-(D18-K)*%
X150232000Y-94280000D03*
%TO.N,Net-(D17-K)*%
X150232000Y-89200000D03*
%TO.N,Net-(D10-K)*%
X185792000Y-84120000D03*
X180712000Y-84120000D03*
X175632000Y-84120000D03*
X170552000Y-84120000D03*
X165472000Y-84120000D03*
X160392000Y-84120000D03*
X155312000Y-84120000D03*
X150232000Y-84120000D03*
%TO.N,Net-(D1-K)*%
X185792000Y-79040000D03*
X180712000Y-79040000D03*
X175632000Y-79040000D03*
X170552000Y-79040000D03*
X165472000Y-79040000D03*
X160392000Y-79040000D03*
X155312000Y-79040000D03*
X150232000Y-79040000D03*
%TD*%
D13*
%TO.N,Net-(D1-K)*%
X186729500Y-124760000D02*
X186729500Y-79977500D01*
X186729500Y-79977500D02*
X185792000Y-79040000D01*
%TO.N,Net-(D10-K)*%
X181649500Y-122220000D02*
X181649500Y-116124000D01*
X184189500Y-124760000D02*
X181649500Y-122220000D01*
%TO.N,Net-(D17-K)*%
X176569500Y-119680000D02*
X176569500Y-116124000D01*
X181649500Y-124760000D02*
X176569500Y-119680000D01*
%TO.N,Net-(D18-K)*%
X171489500Y-117140000D02*
X171489500Y-116124000D01*
X179109500Y-124760000D02*
X171489500Y-117140000D01*
%TO.N,Net-(D33-K)*%
X168441500Y-118156000D02*
X166409500Y-116124000D01*
X169965500Y-118156000D02*
X168441500Y-118156000D01*
X176569500Y-124760000D02*
X169965500Y-118156000D01*
%TO.N,Net-(D34-K)*%
X168949500Y-119680000D02*
X164885500Y-119680000D01*
X174029500Y-124760000D02*
X168949500Y-119680000D01*
X164885500Y-119680000D02*
X161329500Y-116124000D01*
%TO.N,Net-(D35-K)*%
X159297500Y-121204000D02*
X156249500Y-118156000D01*
X167933500Y-121204000D02*
X159297500Y-121204000D01*
X171489500Y-124760000D02*
X167933500Y-121204000D01*
X156249500Y-118156000D02*
X156249500Y-116124000D01*
%TO.N,Net-(D36-K)*%
X151169500Y-119172000D02*
X151169500Y-116124000D01*
X154725500Y-122728000D02*
X151169500Y-119172000D01*
X166917500Y-122728000D02*
X154725500Y-122728000D01*
X168949500Y-124760000D02*
X166917500Y-122728000D01*
X180712000Y-114600000D02*
X185792000Y-114600000D01*
X175632000Y-114600000D02*
X180712000Y-114600000D01*
X170552000Y-114600000D02*
X175632000Y-114600000D01*
X165472000Y-114600000D02*
X170552000Y-114600000D01*
X160392000Y-114600000D02*
X165472000Y-114600000D01*
X155312000Y-114600000D02*
X160392000Y-114600000D01*
%TO.N,Net-(D35-K)*%
X180712000Y-109520000D02*
X185792000Y-109520000D01*
X170552000Y-109520000D02*
X175632000Y-109520000D01*
X175632000Y-109520000D02*
X180712000Y-109520000D01*
X165472000Y-109520000D02*
X170552000Y-109520000D01*
X160392000Y-109520000D02*
X165472000Y-109520000D01*
X155312000Y-109520000D02*
X160392000Y-109520000D01*
%TO.N,Net-(D34-K)*%
X180712000Y-104440000D02*
X185792000Y-104440000D01*
X175632000Y-104440000D02*
X180712000Y-104440000D01*
X170552000Y-104440000D02*
X175632000Y-104440000D01*
X165472000Y-104440000D02*
X170552000Y-104440000D01*
X160392000Y-104440000D02*
X165472000Y-104440000D01*
X155312000Y-104440000D02*
X160392000Y-104440000D01*
%TO.N,Net-(D33-K)*%
X180712000Y-99360000D02*
X185792000Y-99360000D01*
X175632000Y-99360000D02*
X180712000Y-99360000D01*
X170552000Y-99360000D02*
X175632000Y-99360000D01*
X165472000Y-99360000D02*
X170552000Y-99360000D01*
X155312000Y-99360000D02*
X160392000Y-99360000D01*
X160392000Y-99360000D02*
X165472000Y-99360000D01*
%TO.N,Net-(D18-K)*%
X180712000Y-94280000D02*
X185792000Y-94280000D01*
X175632000Y-94280000D02*
X180712000Y-94280000D01*
X170552000Y-94280000D02*
X175632000Y-94280000D01*
X160392000Y-94280000D02*
X165472000Y-94280000D01*
X165472000Y-94280000D02*
X170552000Y-94280000D01*
X150232000Y-94280000D02*
X155312000Y-94280000D01*
%TO.N,Net-(D17-K)*%
X180712000Y-89200000D02*
X185792000Y-89200000D01*
X175632000Y-89200000D02*
X180712000Y-89200000D01*
X170552000Y-89200000D02*
X175632000Y-89200000D01*
X165472000Y-89200000D02*
X170552000Y-89200000D01*
X160392000Y-89200000D02*
X165472000Y-89200000D01*
X155312000Y-89200000D02*
X160392000Y-89200000D01*
%TO.N,Net-(D36-K)*%
X150232000Y-114600000D02*
X155312000Y-114600000D01*
%TO.N,Net-(D35-K)*%
X150232000Y-109520000D02*
X155312000Y-109520000D01*
%TO.N,Net-(D34-K)*%
X150232000Y-104440000D02*
X155312000Y-104440000D01*
%TO.N,Net-(D33-K)*%
X150232000Y-99360000D02*
X155312000Y-99360000D01*
%TO.N,Net-(D18-K)*%
X155312000Y-94280000D02*
X160392000Y-94280000D01*
%TO.N,Net-(D17-K)*%
X150232000Y-89200000D02*
X155312000Y-89200000D01*
%TO.N,Net-(D10-K)*%
X180712000Y-84120000D02*
X185792000Y-84120000D01*
X175632000Y-84120000D02*
X180712000Y-84120000D01*
X165472000Y-84120000D02*
X170552000Y-84120000D01*
X160392000Y-84120000D02*
X165472000Y-84120000D01*
X170552000Y-84120000D02*
X175632000Y-84120000D01*
X155312000Y-84120000D02*
X160392000Y-84120000D01*
X150232000Y-84120000D02*
X155312000Y-84120000D01*
%TO.N,Net-(D1-K)*%
X180712000Y-79040000D02*
X185792000Y-79040000D01*
X170552000Y-79040000D02*
X175632000Y-79040000D01*
X175632000Y-79040000D02*
X180712000Y-79040000D01*
X165472000Y-79040000D02*
X170552000Y-79040000D01*
X155312000Y-79040000D02*
X160392000Y-79040000D01*
X160392000Y-79040000D02*
X165472000Y-79040000D01*
X150232000Y-79040000D02*
X155312000Y-79040000D01*
%TD*%
M02*
