%TF.GenerationSoftware,KiCad,Pcbnew,9.0.3*%
%TF.CreationDate,2025-08-28T20:36:14+02:00*%
%TF.ProjectId,ledki8x8,6c65646b-6938-4783-982e-6b696361645f,rev?*%
%TF.SameCoordinates,Original*%
%TF.FileFunction,Soldermask,Top*%
%TF.FilePolarity,Negative*%
%FSLAX46Y46*%
G04 Gerber Fmt 4.6, Leading zero omitted, Abs format (unit mm)*
G04 Created by KiCad (PCBNEW 9.0.3) date 2025-08-28 20:36:14*
%MOMM*%
%LPD*%
G01*
G04 APERTURE LIST*
G04 Aperture macros list*
%AMRoundRect*
0 Rectangle with rounded corners*
0 $1 Rounding radius*
0 $2 $3 $4 $5 $6 $7 $8 $9 X,Y pos of 4 corners*
0 Add a 4 corners polygon primitive as box body*
4,1,4,$2,$3,$4,$5,$6,$7,$8,$9,$2,$3,0*
0 Add four circle primitives for the rounded corners*
1,1,$1+$1,$2,$3*
1,1,$1+$1,$4,$5*
1,1,$1+$1,$6,$7*
1,1,$1+$1,$8,$9*
0 Add four rect primitives between the rounded corners*
20,1,$1+$1,$2,$3,$4,$5,0*
20,1,$1+$1,$4,$5,$6,$7,0*
20,1,$1+$1,$6,$7,$8,$9,0*
20,1,$1+$1,$8,$9,$2,$3,0*%
G04 Aperture macros list end*
%ADD10C,1.700000*%
%ADD11R,1.700000X1.700000*%
%ADD12RoundRect,0.250000X-0.450000X0.262500X-0.450000X-0.262500X0.450000X-0.262500X0.450000X0.262500X0*%
%ADD13RoundRect,0.243750X0.243750X0.456250X-0.243750X0.456250X-0.243750X-0.456250X0.243750X-0.456250X0*%
G04 APERTURE END LIST*
D10*
%TO.C,J2*%
X169028000Y-124760000D03*
X171568000Y-124760000D03*
X174108000Y-124760000D03*
X176648000Y-124760000D03*
X179188000Y-124760000D03*
X181728000Y-124760000D03*
X184268000Y-124760000D03*
D11*
X186808000Y-124760000D03*
%TD*%
D10*
%TO.C,J1*%
X147692000Y-124760000D03*
X150232000Y-124760000D03*
X152772000Y-124760000D03*
X155312000Y-124760000D03*
X157852000Y-124760000D03*
X160392000Y-124760000D03*
X162932000Y-124760000D03*
D11*
X165472000Y-124760000D03*
%TD*%
D12*
%TO.C,R5*%
X155312000Y-120395000D03*
X155312000Y-122220000D03*
%TD*%
%TO.C,R1*%
X165472000Y-122220000D03*
X165472000Y-120395000D03*
%TD*%
%TO.C,R4*%
X157852000Y-122220000D03*
X157852000Y-120395000D03*
%TD*%
%TO.C,R2*%
X162932000Y-122220000D03*
X162932000Y-120395000D03*
%TD*%
%TO.C,R3*%
X160392000Y-122220000D03*
X160392000Y-120395000D03*
%TD*%
%TO.C,R8*%
X147692000Y-122220000D03*
X147692000Y-120395000D03*
%TD*%
%TO.C,R7*%
X150232000Y-122220000D03*
X150232000Y-120395000D03*
%TD*%
%TO.C,R6*%
X152772000Y-122220000D03*
X152772000Y-120395000D03*
%TD*%
D13*
%TO.C,D8*%
X147692000Y-79040000D03*
X149567000Y-79040000D03*
%TD*%
%TO.C,D7*%
X152772000Y-79040000D03*
X154647000Y-79040000D03*
%TD*%
%TO.C,D15*%
X152772000Y-84120000D03*
X154647000Y-84120000D03*
%TD*%
%TO.C,D30*%
X152772000Y-94280000D03*
X154647000Y-94280000D03*
%TD*%
%TO.C,D57*%
X152772000Y-99360000D03*
X154647000Y-99360000D03*
%TD*%
%TO.C,D58*%
X152772000Y-104440000D03*
X154647000Y-104440000D03*
%TD*%
%TO.C,D59*%
X152772000Y-109520000D03*
X154647000Y-109520000D03*
%TD*%
%TO.C,D60*%
X152772000Y-114600000D03*
X154647000Y-114600000D03*
%TD*%
%TO.C,D29*%
X152772000Y-89200000D03*
X154647000Y-89200000D03*
%TD*%
%TO.C,D16*%
X147692000Y-84120000D03*
X149567000Y-84120000D03*
%TD*%
%TO.C,D2*%
X180047000Y-79040000D03*
X178172000Y-79040000D03*
%TD*%
%TO.C,D10*%
X180047000Y-84120000D03*
X178172000Y-84120000D03*
%TD*%
%TO.C,D19*%
X180047000Y-89200000D03*
X178172000Y-89200000D03*
%TD*%
%TO.C,D20*%
X180047000Y-94280000D03*
X178172000Y-94280000D03*
%TD*%
%TO.C,D40*%
X180047000Y-114600000D03*
X178172000Y-114600000D03*
%TD*%
%TO.C,D37*%
X180047000Y-99360000D03*
X178172000Y-99360000D03*
%TD*%
%TO.C,D38*%
X180047000Y-104440000D03*
X178172000Y-104440000D03*
%TD*%
%TO.C,D39*%
X180047000Y-109520000D03*
X178172000Y-109520000D03*
%TD*%
%TO.C,D36*%
X185263494Y-114607608D03*
X183388494Y-114607608D03*
%TD*%
%TO.C,D18*%
X185263494Y-94287608D03*
X183388494Y-94287608D03*
%TD*%
%TO.C,D35*%
X185263494Y-109527608D03*
X183388494Y-109527608D03*
%TD*%
%TO.C,D33*%
X183388494Y-99367608D03*
X185263494Y-99367608D03*
%TD*%
%TO.C,D9*%
X185263494Y-84127608D03*
X183388494Y-84127608D03*
%TD*%
%TO.C,D17*%
X185263494Y-89207608D03*
X183388494Y-89207608D03*
%TD*%
%TO.C,D34*%
X185263494Y-104447608D03*
X183388494Y-104447608D03*
%TD*%
%TO.C,D1*%
X185263494Y-79047608D03*
X183388494Y-79047608D03*
%TD*%
%TO.C,D53*%
X157852000Y-99360000D03*
X159727000Y-99360000D03*
%TD*%
%TO.C,D64*%
X149567000Y-114600000D03*
X147692000Y-114600000D03*
%TD*%
%TO.C,D63*%
X149567000Y-109520000D03*
X147692000Y-109520000D03*
%TD*%
%TO.C,D62*%
X149567000Y-104440000D03*
X147692000Y-104440000D03*
%TD*%
%TO.C,D61*%
X149567000Y-99360000D03*
X147692000Y-99360000D03*
%TD*%
%TO.C,D56*%
X159727000Y-114600000D03*
X157852000Y-114600000D03*
%TD*%
%TO.C,D55*%
X159727000Y-109520000D03*
X157852000Y-109520000D03*
%TD*%
%TO.C,D54*%
X159727000Y-104440000D03*
X157852000Y-104440000D03*
%TD*%
%TO.C,D52*%
X164807000Y-114600000D03*
X162932000Y-114600000D03*
%TD*%
%TO.C,D51*%
X164807000Y-109520000D03*
X162932000Y-109520000D03*
%TD*%
%TO.C,D50*%
X164807000Y-104440000D03*
X162932000Y-104440000D03*
%TD*%
%TO.C,D49*%
X164807000Y-99360000D03*
X162932000Y-99360000D03*
%TD*%
%TO.C,D48*%
X169887000Y-114600000D03*
X168012000Y-114600000D03*
%TD*%
%TO.C,D47*%
X169887000Y-109520000D03*
X168012000Y-109520000D03*
%TD*%
%TO.C,D46*%
X169887000Y-104440000D03*
X168012000Y-104440000D03*
%TD*%
%TO.C,D45*%
X169887000Y-99360000D03*
X168012000Y-99360000D03*
%TD*%
%TO.C,D44*%
X174967000Y-114600000D03*
X173092000Y-114600000D03*
%TD*%
%TO.C,D43*%
X174967000Y-109520000D03*
X173092000Y-109520000D03*
%TD*%
%TO.C,D42*%
X174967000Y-104440000D03*
X173092000Y-104440000D03*
%TD*%
%TO.C,D41*%
X174967000Y-99360000D03*
X173092000Y-99360000D03*
%TD*%
%TO.C,D32*%
X149567000Y-94280000D03*
X147692000Y-94280000D03*
%TD*%
%TO.C,D31*%
X149567000Y-89200000D03*
X147692000Y-89200000D03*
%TD*%
%TO.C,D28*%
X159727000Y-94280000D03*
X157852000Y-94280000D03*
%TD*%
%TO.C,D27*%
X159727000Y-89200000D03*
X157852000Y-89200000D03*
%TD*%
%TO.C,D26*%
X164807000Y-94280000D03*
X162932000Y-94280000D03*
%TD*%
%TO.C,D25*%
X164807000Y-89200000D03*
X162932000Y-89200000D03*
%TD*%
%TO.C,D24*%
X169887000Y-94280000D03*
X168012000Y-94280000D03*
%TD*%
%TO.C,D23*%
X169887000Y-89200000D03*
X168012000Y-89200000D03*
%TD*%
%TO.C,D22*%
X174967000Y-94280000D03*
X173092000Y-94280000D03*
%TD*%
%TO.C,D21*%
X174967000Y-89200000D03*
X173092000Y-89200000D03*
%TD*%
%TO.C,D14*%
X159727000Y-84120000D03*
X157852000Y-84120000D03*
%TD*%
%TO.C,D13*%
X164807000Y-84120000D03*
X162932000Y-84120000D03*
%TD*%
%TO.C,D12*%
X169887000Y-84120000D03*
X168012000Y-84120000D03*
%TD*%
%TO.C,D11*%
X174967000Y-84120000D03*
X173092000Y-84120000D03*
%TD*%
%TO.C,D6*%
X159727000Y-79040000D03*
X157852000Y-79040000D03*
%TD*%
%TO.C,D5*%
X164807000Y-79040000D03*
X162932000Y-79040000D03*
%TD*%
%TO.C,D4*%
X169887000Y-79040000D03*
X168012000Y-79040000D03*
%TD*%
%TO.C,D3*%
X174967000Y-79040000D03*
X173092000Y-79040000D03*
%TD*%
M02*
