%TF.GenerationSoftware,KiCad,Pcbnew,9.0.3*%
%TF.CreationDate,2025-10-09T23:36:15+02:00*%
%TF.ProjectId,ledkiv2,6c65646b-6976-4322-9e6b-696361645f70,rev?*%
%TF.SameCoordinates,Original*%
%TF.FileFunction,Copper,L2,Bot*%
%TF.FilePolarity,Positive*%
%FSLAX46Y46*%
G04 Gerber Fmt 4.6, Leading zero omitted, Abs format (unit mm)*
G04 Created by KiCad (PCBNEW 9.0.3) date 2025-10-09 23:36:15*
%MOMM*%
%LPD*%
G01*
G04 APERTURE LIST*
G04 Aperture macros list*
%AMRoundRect*
0 Rectangle with rounded corners*
0 $1 Rounding radius*
0 $2 $3 $4 $5 $6 $7 $8 $9 X,Y pos of 4 corners*
0 Add a 4 corners polygon primitive as box body*
4,1,4,$2,$3,$4,$5,$6,$7,$8,$9,$2,$3,0*
0 Add four circle primitives for the rounded corners*
1,1,$1+$1,$2,$3*
1,1,$1+$1,$4,$5*
1,1,$1+$1,$6,$7*
1,1,$1+$1,$8,$9*
0 Add four rect primitives between the rounded corners*
20,1,$1+$1,$2,$3,$4,$5,0*
20,1,$1+$1,$4,$5,$6,$7,0*
20,1,$1+$1,$6,$7,$8,$9,0*
20,1,$1+$1,$8,$9,$2,$3,0*%
G04 Aperture macros list end*
%TA.AperFunction,Conductor*%
%ADD10C,0.200000*%
%TD*%
%TA.AperFunction,ComponentPad*%
%ADD11R,1.700000X1.700000*%
%TD*%
%TA.AperFunction,ComponentPad*%
%ADD12C,1.700000*%
%TD*%
%TA.AperFunction,SMDPad,CuDef*%
%ADD13RoundRect,0.270000X0.980000X-0.630000X0.980000X0.630000X-0.980000X0.630000X-0.980000X-0.630000X0*%
%TD*%
%TA.AperFunction,SMDPad,CuDef*%
%ADD14RoundRect,0.250000X-0.450000X0.262500X-0.450000X-0.262500X0.450000X-0.262500X0.450000X0.262500X0*%
%TD*%
%TA.AperFunction,SMDPad,CuDef*%
%ADD15RoundRect,0.250000X0.450000X-0.262500X0.450000X0.262500X-0.450000X0.262500X-0.450000X-0.262500X0*%
%TD*%
%TA.AperFunction,ViaPad*%
%ADD16C,0.600000*%
%TD*%
%TA.AperFunction,Conductor*%
%ADD17C,0.250000*%
%TD*%
G04 APERTURE END LIST*
D10*
%TO.N,Net-(J1-D2)*%
X173981000Y-106091000D02*
X173981000Y-105456000D01*
%TD*%
D11*
%TO.P,e1,1,rx-PD6*%
%TO.N,Net-(J1-D6)*%
X180677000Y-115835000D03*
D12*
%TO.P,e1,2,tx-PD5*%
%TO.N,Net-(J1-D5)*%
X180677000Y-113295000D03*
%TD*%
D13*
%TO.P,J1,1,GND*%
%TO.N,unconnected-(J1-GND-Pad1)*%
X173981000Y-87676000D03*
%TO.P,J1,2,VCC*%
%TO.N,unconnected-(J1-VCC-Pad2)*%
X173981000Y-90216000D03*
%TO.P,J1,3,C4*%
%TO.N,Net-(J1-C4)*%
X173981000Y-92716000D03*
%TO.P,J1,4,C5*%
%TO.N,Net-(D33-K)*%
X173981000Y-95256000D03*
%TO.P,J1,5,C6*%
%TO.N,Net-(D18-K)*%
X173981000Y-97836000D03*
%TO.P,J1,6,C7*%
%TO.N,Net-(D17-K)*%
X173981000Y-100376000D03*
%TO.P,J1,7,D1*%
%TO.N,Net-(D1-K)*%
X173981000Y-102876000D03*
%TO.P,J1,8,D2*%
%TO.N,Net-(J1-D2)*%
X173981000Y-105416000D03*
%TO.P,J1,9,D3*%
%TO.N,Net-(J1-D3)*%
X174019082Y-107931343D03*
%TO.P,J1,10,D4*%
%TO.N,Net-(J1-D4)*%
X174019082Y-110471343D03*
%TO.P,J1,11,D5*%
%TO.N,Net-(J1-D5)*%
X174019082Y-113011343D03*
%TO.P,J1,12,D6*%
%TO.N,Net-(J1-D6)*%
X174019082Y-115551343D03*
%TO.P,J1,13,D7*%
%TO.N,Net-(J1-D7)*%
X158779082Y-115551343D03*
%TO.P,J1,14,A1*%
%TO.N,Net-(J1-A1)*%
X158779082Y-113011343D03*
%TO.P,J1,15,A2*%
%TO.N,Net-(D36-K)*%
X158779082Y-110471343D03*
%TO.P,J1,16,D0*%
%TO.N,Net-(D10-K)*%
X158779082Y-107931343D03*
%TO.P,J1,17,C0*%
%TO.N,Net-(J1-C0)*%
X158741000Y-105416000D03*
%TO.P,J1,18,C1*%
%TO.N,Net-(D35-K)*%
X158741000Y-102876000D03*
%TO.P,J1,19,C2*%
%TO.N,Net-(D34-K)*%
X158741000Y-100376000D03*
%TO.P,J1,20,C3*%
%TO.N,Net-(J1-C3)*%
X158741000Y-97836000D03*
%TO.P,J1,21,VCC*%
%TO.N,unconnected-(J1-VCC-Pad21)*%
X158741000Y-95256000D03*
%TO.P,J1,22,GND*%
%TO.N,unconnected-(J1-GND-Pad22)*%
X158741000Y-92716000D03*
%TO.P,J1,23,VIN*%
%TO.N,unconnected-(J1-VIN-Pad23)*%
X158741000Y-90216000D03*
%TO.P,J1,24,GND*%
%TO.N,unconnected-(J1-GND-Pad24)*%
X158741000Y-87676000D03*
%TD*%
D14*
%TO.P,R2,2*%
%TO.N,Net-(J1-A1)*%
X154931000Y-88588500D03*
%TO.P,R2,1*%
%TO.N,Net-(D10-A)*%
X154931000Y-86763500D03*
%TD*%
%TO.P,R3,2*%
%TO.N,Net-(J1-C3)*%
X149851000Y-93311000D03*
%TO.P,R3,1*%
%TO.N,Net-(D11-A)*%
X149851000Y-91486000D03*
%TD*%
%TO.P,R6,1*%
%TO.N,Net-(D14-A)*%
X176521000Y-106448500D03*
%TO.P,R6,2*%
%TO.N,Net-(J1-D3)*%
X176521000Y-108273500D03*
%TD*%
D15*
%TO.P,R4,2*%
%TO.N,Net-(J1-C4)*%
X176521000Y-91843500D03*
%TO.P,R4,1*%
%TO.N,Net-(D12-A)*%
X176521000Y-93668500D03*
%TD*%
%TO.P,R7,1*%
%TO.N,Net-(D15-A)*%
X150486000Y-108908500D03*
%TO.P,R7,2*%
%TO.N,Net-(J1-C0)*%
X150486000Y-107083500D03*
%TD*%
D14*
%TO.P,R5,1*%
%TO.N,Net-(D13-A)*%
X180331000Y-106448500D03*
%TO.P,R5,2*%
%TO.N,Net-(J1-D4)*%
X180331000Y-108273500D03*
%TD*%
%TO.P,R1,1*%
%TO.N,Net-(D1-A)*%
X180331000Y-82953500D03*
%TO.P,R1,2*%
%TO.N,Net-(J1-D2)*%
X180331000Y-84778500D03*
%TD*%
%TO.P,R8,1*%
%TO.N,Net-(D16-A)*%
X154931000Y-113433500D03*
%TO.P,R8,2*%
%TO.N,Net-(J1-D7)*%
X154931000Y-115258500D03*
%TD*%
D16*
%TO.N,Net-(J1-A1)*%
X155566000Y-111171000D03*
X158972004Y-113034925D03*
%TO.N,Net-(D36-K)*%
X183125000Y-87960000D03*
%TO.N,Net-(D10-K)*%
X158972004Y-107954925D03*
%TO.N,Net-(D35-K)*%
X161281000Y-101646000D03*
%TO.N,Net-(D1-K)*%
X174214963Y-102925909D03*
%TO.N,Net-(D34-K)*%
X161907734Y-99091292D03*
%TO.N,Net-(D18-K)*%
X173321962Y-97082500D03*
%TO.N,Net-(D33-K)*%
X174201062Y-95590000D03*
X170806000Y-95931000D03*
%TO.N,Net-(D36-K)*%
X161916000Y-107361000D03*
%TO.N,Net-(D16-A)*%
X152645000Y-115235000D03*
%TO.N,Net-(D15-A)*%
X147565000Y-110155000D03*
%TO.N,Net-(J1-C0)*%
X150486000Y-106726000D03*
X158802941Y-105816389D03*
%TO.N,Net-(D14-A)*%
X177370000Y-105075000D03*
%TO.N,Net-(J1-D4)*%
X174209894Y-110830000D03*
X179696000Y-111806000D03*
%TO.N,Net-(D13-A)*%
X182450000Y-99995000D03*
%TO.N,Net-(D12-A)*%
X176521000Y-94026000D03*
%TO.N,Net-(D11-A)*%
X149851000Y-91486000D03*
%TO.N,Net-(J1-C3)*%
X151756000Y-96566000D03*
X158975000Y-97904979D03*
%TO.N,Net-(D10-A)*%
X154931000Y-86763500D03*
%TO.N,Net-(D1-A)*%
X180331000Y-82596000D03*
%TO.N,Net-(D36-K)*%
X183132608Y-77663506D03*
X183125000Y-82880000D03*
X183125000Y-93040000D03*
X183125000Y-98120000D03*
X183125000Y-103200000D03*
X183125000Y-108280000D03*
X182871000Y-113076000D03*
%TO.N,Net-(D35-K)*%
X178045000Y-113360000D03*
X178045000Y-108280000D03*
X178045000Y-103200000D03*
X176521000Y-101011000D03*
X176521000Y-99106000D03*
X178045000Y-98120000D03*
X178045000Y-93040000D03*
X178045000Y-87960000D03*
X178045000Y-82880000D03*
X177791000Y-78151000D03*
%TO.N,Net-(D17-K)*%
X156979082Y-113270444D03*
X156979082Y-108190444D03*
X156941000Y-103122275D03*
X156941000Y-98064197D03*
X156941000Y-92962275D03*
X156941000Y-87904197D03*
X157725000Y-82880000D03*
X157732608Y-77663506D03*
%TO.N,Net-(D34-K)*%
X172219082Y-113270444D03*
X172219082Y-108190444D03*
X172181000Y-103122275D03*
X172181000Y-98064197D03*
X172181000Y-92962275D03*
X172181000Y-87904197D03*
%TO.N,Net-(D33-K)*%
X167885000Y-113360000D03*
X167885000Y-108280000D03*
X167885000Y-103200000D03*
X167885000Y-98120000D03*
X167885000Y-93040000D03*
X167885000Y-87960000D03*
X167885000Y-82880000D03*
X167631000Y-78151000D03*
%TO.N,Net-(D18-K)*%
X162805000Y-113360000D03*
X162805000Y-108280000D03*
X162805000Y-103200000D03*
X162805000Y-98120000D03*
X162805000Y-93040000D03*
X162805000Y-87960000D03*
X162551000Y-78151000D03*
X162805000Y-82880000D03*
%TO.N,Net-(D17-K)*%
X174042941Y-100736389D03*
%TO.N,Net-(D10-K)*%
X153026000Y-113076000D03*
X153026000Y-107996000D03*
X153026000Y-102916000D03*
X153026000Y-97836000D03*
X153026000Y-92756000D03*
X153026000Y-87676000D03*
X153026000Y-77516000D03*
X153026000Y-82596000D03*
%TO.N,Net-(D34-K)*%
X172711000Y-78151000D03*
X172965000Y-82880000D03*
%TD*%
D17*
%TO.N,Net-(J1-D5)*%
X175043739Y-114036000D02*
X179936000Y-114036000D01*
X179936000Y-114036000D02*
X180677000Y-113295000D01*
X174019082Y-113011343D02*
X175043739Y-114036000D01*
%TO.N,Net-(J1-D6)*%
X180393343Y-115551343D02*
X180677000Y-115835000D01*
X174019082Y-115551343D02*
X180393343Y-115551343D01*
%TO.N,Net-(J1-A1)*%
X154931000Y-110536000D02*
X154931000Y-88588500D01*
X155566000Y-111171000D02*
X154931000Y-110536000D01*
%TO.N,Net-(D16-A)*%
X154931000Y-113076000D02*
X154804000Y-113076000D01*
X154804000Y-113076000D02*
X152645000Y-115235000D01*
X154931000Y-113433500D02*
X154931000Y-113076000D01*
%TO.N,Net-(J1-D7)*%
X158486239Y-115258500D02*
X158779082Y-115551343D01*
X154931000Y-115258500D02*
X158486239Y-115258500D01*
%TO.N,Net-(J1-D5)*%
X174083739Y-113076000D02*
X174019082Y-113011343D01*
X175251000Y-113076000D02*
X174083739Y-113076000D01*
%TO.N,Net-(J1-D6)*%
X174083739Y-115616000D02*
X174019082Y-115551343D01*
X175251000Y-115616000D02*
X174083739Y-115616000D01*
%TO.N,Net-(D10-K)*%
X158930929Y-107996000D02*
X158972004Y-107954925D01*
X158779082Y-107957918D02*
X158741000Y-107996000D01*
X158741000Y-107996000D02*
X158930929Y-107996000D01*
X158779082Y-107931343D02*
X158779082Y-107957918D01*
%TO.N,Net-(D35-K)*%
X160011000Y-102916000D02*
X161281000Y-101646000D01*
X158741000Y-102916000D02*
X160011000Y-102916000D01*
X158741000Y-102876000D02*
X158741000Y-102916000D01*
%TO.N,Net-(D34-K)*%
X161893026Y-99106000D02*
X161907734Y-99091292D01*
X161281000Y-99106000D02*
X161893026Y-99106000D01*
X158741000Y-100376000D02*
X160011000Y-100376000D01*
X160011000Y-100376000D02*
X161281000Y-99106000D01*
%TO.N,Net-(D18-K)*%
X173981000Y-97741538D02*
X173321962Y-97082500D01*
X173981000Y-97836000D02*
X173981000Y-97741538D01*
%TO.N,Net-(D33-K)*%
X167915000Y-93040000D02*
X170806000Y-95931000D01*
X167885000Y-93040000D02*
X167915000Y-93040000D01*
%TO.N,Net-(D36-K)*%
X158805657Y-110471343D02*
X161916000Y-107361000D01*
X158779082Y-110471343D02*
X158805657Y-110471343D01*
%TO.N,Net-(J1-D7)*%
X158079425Y-116251000D02*
X158779082Y-115551343D01*
%TO.N,Net-(D15-A)*%
X148811500Y-108908500D02*
X147565000Y-110155000D01*
X150486000Y-108908500D02*
X148811500Y-108908500D01*
%TO.N,Net-(J1-C0)*%
X150486000Y-107083500D02*
X150486000Y-106726000D01*
%TO.N,Net-(D14-A)*%
X176521000Y-106448500D02*
X176521000Y-105924000D01*
X176521000Y-105924000D02*
X177370000Y-105075000D01*
%TO.N,Net-(J1-D3)*%
X176521000Y-108273500D02*
X174361239Y-108273500D01*
X174361239Y-108273500D02*
X174019082Y-107931343D01*
%TO.N,Net-(J1-D4)*%
X180331000Y-111171000D02*
X179696000Y-111806000D01*
X180331000Y-108273500D02*
X180331000Y-111171000D01*
%TO.N,Net-(D13-A)*%
X180331000Y-102114000D02*
X182450000Y-99995000D01*
X180331000Y-106448500D02*
X180331000Y-102114000D01*
%TO.N,Net-(D12-A)*%
X176521000Y-93668500D02*
X176521000Y-94026000D01*
%TO.N,Net-(J1-C4)*%
X174853500Y-91843500D02*
X173981000Y-92716000D01*
X176521000Y-91843500D02*
X174853500Y-91843500D01*
%TO.N,Net-(J1-C3)*%
X149851000Y-94661000D02*
X151756000Y-96566000D01*
X149851000Y-93311000D02*
X149851000Y-94661000D01*
%TO.N,Net-(D1-A)*%
X180331000Y-82953500D02*
X180331000Y-82596000D01*
%TO.N,Net-(J1-D2)*%
X176521000Y-103551000D02*
X174656000Y-105416000D01*
X176521000Y-102281000D02*
X176521000Y-103551000D01*
X179061000Y-101646000D02*
X177156000Y-101646000D01*
X180331000Y-100376000D02*
X179061000Y-101646000D01*
X180331000Y-84778500D02*
X180331000Y-100376000D01*
X177156000Y-101646000D02*
X176521000Y-102281000D01*
X174656000Y-105416000D02*
X173981000Y-105416000D01*
%TO.N,Net-(D36-K)*%
X183125000Y-77671114D02*
X183132608Y-77663506D01*
X183125000Y-82880000D02*
X183125000Y-77671114D01*
X183125000Y-87960000D02*
X183125000Y-82880000D01*
X183125000Y-93040000D02*
X183125000Y-87960000D01*
X183125000Y-98120000D02*
X183125000Y-93040000D01*
X183125000Y-103200000D02*
X183125000Y-98120000D01*
X183125000Y-108280000D02*
X183125000Y-103200000D01*
X182871000Y-113076000D02*
X183125000Y-112822000D01*
X183125000Y-112822000D02*
X183125000Y-108280000D01*
%TO.N,Net-(D35-K)*%
X178045000Y-108280000D02*
X178045000Y-113360000D01*
X178045000Y-103200000D02*
X178045000Y-108280000D01*
X176521000Y-99106000D02*
X176521000Y-101011000D01*
X178045000Y-93040000D02*
X178045000Y-98120000D01*
X178045000Y-87960000D02*
X178045000Y-93040000D01*
X178045000Y-82880000D02*
X178045000Y-87960000D01*
X177791000Y-82626000D02*
X178045000Y-82880000D01*
X177791000Y-78151000D02*
X177791000Y-82626000D01*
%TO.N,Net-(D17-K)*%
X156979082Y-108190444D02*
X156979082Y-113270444D01*
X156941000Y-108152362D02*
X156979082Y-108190444D01*
X156941000Y-103122275D02*
X156941000Y-108152362D01*
X156941000Y-98064197D02*
X156941000Y-103122275D01*
X156941000Y-92962275D02*
X156941000Y-98064197D01*
X156941000Y-87904197D02*
X156941000Y-92962275D01*
X156941000Y-83664000D02*
X156941000Y-87904197D01*
X157725000Y-82880000D02*
X156941000Y-83664000D01*
X157732608Y-82872392D02*
X157725000Y-82880000D01*
X157732608Y-77663506D02*
X157732608Y-82872392D01*
%TO.N,Net-(D34-K)*%
X172219082Y-108190444D02*
X172219082Y-113270444D01*
X172219082Y-103160357D02*
X172219082Y-108190444D01*
X172181000Y-103122275D02*
X172219082Y-103160357D01*
X171575000Y-102516275D02*
X172181000Y-103122275D01*
X171575000Y-98670197D02*
X171575000Y-102516275D01*
X172181000Y-98064197D02*
X171575000Y-98670197D01*
X172181000Y-92962275D02*
X172181000Y-98064197D01*
X172181000Y-87904197D02*
X172181000Y-92962275D01*
X172181000Y-83664000D02*
X172181000Y-87904197D01*
X172965000Y-82880000D02*
X172181000Y-83664000D01*
%TO.N,Net-(D33-K)*%
X167885000Y-108280000D02*
X167885000Y-113360000D01*
X167885000Y-103200000D02*
X167885000Y-108280000D01*
X167885000Y-98120000D02*
X167885000Y-103200000D01*
X167885000Y-93040000D02*
X167885000Y-98120000D01*
X167885000Y-87960000D02*
X167885000Y-93040000D01*
X167885000Y-82880000D02*
X167885000Y-87960000D01*
X167631000Y-78151000D02*
X167631000Y-82626000D01*
X167631000Y-82626000D02*
X167885000Y-82880000D01*
%TO.N,Net-(D18-K)*%
X162805000Y-108280000D02*
X162805000Y-113360000D01*
X162805000Y-103200000D02*
X162805000Y-108280000D01*
X162805000Y-98120000D02*
X162805000Y-103200000D01*
X162805000Y-93040000D02*
X162805000Y-98120000D01*
X162805000Y-87960000D02*
X162805000Y-93040000D01*
X162805000Y-82880000D02*
X162805000Y-87960000D01*
X162805000Y-78405000D02*
X162805000Y-82880000D01*
X162551000Y-78151000D02*
X162805000Y-78405000D01*
%TO.N,Net-(D10-K)*%
X153026000Y-107996000D02*
X153026000Y-113076000D01*
X153026000Y-102916000D02*
X153026000Y-107996000D01*
X153026000Y-97836000D02*
X153026000Y-102916000D01*
X153026000Y-92756000D02*
X153026000Y-97836000D01*
X153026000Y-87676000D02*
X153026000Y-92756000D01*
X153026000Y-87041000D02*
X153026000Y-87676000D01*
X153026000Y-81326000D02*
X153026000Y-87041000D01*
X153026000Y-81326000D02*
X153026000Y-82596000D01*
X153026000Y-77516000D02*
X153026000Y-81326000D01*
%TO.N,Net-(D34-K)*%
X172711000Y-82626000D02*
X172965000Y-82880000D01*
X172711000Y-78151000D02*
X172711000Y-82626000D01*
%TD*%
M02*
