%TF.GenerationSoftware,KiCad,Pcbnew,9.0.3*%
%TF.CreationDate,2025-10-09T23:36:15+02:00*%
%TF.ProjectId,ledkiv2,6c65646b-6976-4322-9e6b-696361645f70,rev?*%
%TF.SameCoordinates,Original*%
%TF.FileFunction,Soldermask,Bot*%
%TF.FilePolarity,Negative*%
%FSLAX46Y46*%
G04 Gerber Fmt 4.6, Leading zero omitted, Abs format (unit mm)*
G04 Created by KiCad (PCBNEW 9.0.3) date 2025-10-09 23:36:15*
%MOMM*%
%LPD*%
G01*
G04 APERTURE LIST*
G04 Aperture macros list*
%AMRoundRect*
0 Rectangle with rounded corners*
0 $1 Rounding radius*
0 $2 $3 $4 $5 $6 $7 $8 $9 X,Y pos of 4 corners*
0 Add a 4 corners polygon primitive as box body*
4,1,4,$2,$3,$4,$5,$6,$7,$8,$9,$2,$3,0*
0 Add four circle primitives for the rounded corners*
1,1,$1+$1,$2,$3*
1,1,$1+$1,$4,$5*
1,1,$1+$1,$6,$7*
1,1,$1+$1,$8,$9*
0 Add four rect primitives between the rounded corners*
20,1,$1+$1,$2,$3,$4,$5,0*
20,1,$1+$1,$4,$5,$6,$7,0*
20,1,$1+$1,$6,$7,$8,$9,0*
20,1,$1+$1,$8,$9,$2,$3,0*%
G04 Aperture macros list end*
%ADD10C,1.300000*%
%ADD11R,1.700000X1.700000*%
%ADD12C,1.700000*%
%ADD13RoundRect,0.270000X0.980000X-0.630000X0.980000X0.630000X-0.980000X0.630000X-0.980000X-0.630000X0*%
%ADD14RoundRect,0.250000X-0.450000X0.262500X-0.450000X-0.262500X0.450000X-0.262500X0.450000X0.262500X0*%
%ADD15RoundRect,0.250000X0.450000X-0.262500X0.450000X0.262500X-0.450000X0.262500X-0.450000X-0.262500X0*%
G04 APERTURE END LIST*
D10*
%TO.C,*%
X150232000Y-81326000D03*
%TD*%
%TO.C,*%
X181474000Y-81326000D03*
%TD*%
%TO.C,*%
X181474000Y-111552000D03*
%TD*%
%TO.C,*%
X150232000Y-111552000D03*
%TD*%
D11*
%TO.C,e1*%
X180677000Y-115835000D03*
D12*
X180677000Y-113295000D03*
%TD*%
D13*
%TO.C,J1*%
X173981000Y-87676000D03*
X173981000Y-90216000D03*
X173981000Y-92716000D03*
X173981000Y-95256000D03*
X173981000Y-97836000D03*
X173981000Y-100376000D03*
X173981000Y-102876000D03*
X173981000Y-105416000D03*
X174019082Y-107931343D03*
X174019082Y-110471343D03*
X174019082Y-113011343D03*
X174019082Y-115551343D03*
X158779082Y-115551343D03*
X158779082Y-113011343D03*
X158779082Y-110471343D03*
X158779082Y-107931343D03*
X158741000Y-105416000D03*
X158741000Y-102876000D03*
X158741000Y-100376000D03*
X158741000Y-97836000D03*
X158741000Y-95256000D03*
X158741000Y-92716000D03*
X158741000Y-90216000D03*
X158741000Y-87676000D03*
%TD*%
D14*
%TO.C,R2*%
X154931000Y-88588500D03*
X154931000Y-86763500D03*
%TD*%
%TO.C,R3*%
X149851000Y-93311000D03*
X149851000Y-91486000D03*
%TD*%
%TO.C,R6*%
X176521000Y-106448500D03*
X176521000Y-108273500D03*
%TD*%
D15*
%TO.C,R4*%
X176521000Y-91843500D03*
X176521000Y-93668500D03*
%TD*%
%TO.C,R7*%
X150486000Y-108908500D03*
X150486000Y-107083500D03*
%TD*%
D14*
%TO.C,R5*%
X180331000Y-106448500D03*
X180331000Y-108273500D03*
%TD*%
%TO.C,R1*%
X180331000Y-82953500D03*
X180331000Y-84778500D03*
%TD*%
%TO.C,R8*%
X154931000Y-113433500D03*
X154931000Y-115258500D03*
%TD*%
M02*
