M48
; DRILL file {KiCad 9.0.3} date 2025-10-09T23:37:02+0200
; FORMAT={-:-/ absolute / metric / decimal}
; #@! TF.CreationDate,2025-10-09T23:37:02+02:00
; #@! TF.GenerationSoftware,Kicad,Pcbnew,9.0.3
; #@! TF.FileFunction,Plated,1,2,PTH
FMAT,2
METRIC
; #@! TA.AperFunction,Plated,PTH,ViaDrill
T1C0.300
; #@! TA.AperFunction,Plated,PTH,ComponentDrill
T2C1.000
%
G90
G05
T1
X147.565Y-110.155
X149.851Y-91.486
X150.486Y-106.726
X151.756Y-96.566
X152.645Y-115.235
X153.026Y-77.516
X153.026Y-82.596
X153.026Y-87.676
X153.026Y-92.756
X153.026Y-97.836
X153.026Y-102.916
X153.026Y-107.996
X153.026Y-113.076
X154.931Y-86.763
X155.566Y-111.171
X156.941Y-87.904
X156.941Y-92.962
X156.941Y-98.064
X156.941Y-103.122
X156.979Y-108.19
X156.979Y-113.27
X157.725Y-82.88
X157.733Y-77.664
X158.803Y-105.816
X158.972Y-107.955
X158.972Y-113.035
X158.975Y-97.905
X161.281Y-101.646
X161.908Y-99.091
X161.916Y-107.361
X162.551Y-78.151
X162.805Y-82.88
X162.805Y-87.96
X162.805Y-93.04
X162.805Y-98.12
X162.805Y-103.2
X162.805Y-108.28
X162.805Y-113.36
X167.631Y-78.151
X167.885Y-82.88
X167.885Y-87.96
X167.885Y-93.04
X167.885Y-98.12
X167.885Y-103.2
X167.885Y-108.28
X167.885Y-113.36
X170.806Y-95.931
X172.181Y-87.904
X172.181Y-92.962
X172.181Y-98.064
X172.181Y-103.122
X172.219Y-108.19
X172.219Y-113.27
X172.711Y-78.151
X172.965Y-82.88
X173.322Y-97.082
X174.043Y-100.736
X174.201Y-95.59
X174.21Y-110.83
X174.215Y-102.926
X176.521Y-94.026
X176.521Y-99.106
X176.521Y-101.011
X177.37Y-105.075
X177.791Y-78.151
X178.045Y-82.88
X178.045Y-87.96
X178.045Y-93.04
X178.045Y-98.12
X178.045Y-103.2
X178.045Y-108.28
X178.045Y-113.36
X179.696Y-111.806
X180.331Y-82.596
X182.45Y-99.995
X182.871Y-113.076
X183.125Y-82.88
X183.125Y-87.96
X183.125Y-93.04
X183.125Y-98.12
X183.125Y-103.2
X183.125Y-108.28
X183.133Y-77.664
T2
X180.677Y-113.295
X180.677Y-115.835
M30
