%TF.GenerationSoftware,KiCad,Pcbnew,9.0.3*%
%TF.CreationDate,2025-10-09T23:36:15+02:00*%
%TF.ProjectId,ledkiv2,6c65646b-6976-4322-9e6b-696361645f70,rev?*%
%TF.SameCoordinates,Original*%
%TF.FileFunction,Legend,Bot*%
%TF.FilePolarity,Positive*%
%FSLAX46Y46*%
G04 Gerber Fmt 4.6, Leading zero omitted, Abs format (unit mm)*
G04 Created by KiCad (PCBNEW 9.0.3) date 2025-10-09 23:36:15*
%MOMM*%
%LPD*%
G01*
G04 APERTURE LIST*
%ADD10C,0.150000*%
%ADD11C,0.120000*%
%ADD12C,0.100000*%
G04 APERTURE END LIST*
D10*
X178314200Y-114279285D02*
X178361819Y-114184047D01*
X178361819Y-114184047D02*
X178361819Y-113993571D01*
X178361819Y-113993571D02*
X178314200Y-113898333D01*
X178314200Y-113898333D02*
X178218961Y-113850714D01*
X178218961Y-113850714D02*
X177838009Y-113850714D01*
X177838009Y-113850714D02*
X177742771Y-113898333D01*
X177742771Y-113898333D02*
X177695152Y-113993571D01*
X177695152Y-113993571D02*
X177695152Y-114184047D01*
X177695152Y-114184047D02*
X177742771Y-114279285D01*
X177742771Y-114279285D02*
X177838009Y-114326904D01*
X177838009Y-114326904D02*
X177933247Y-114326904D01*
X177933247Y-114326904D02*
X178028485Y-113850714D01*
X178361819Y-115279285D02*
X178361819Y-114707857D01*
X178361819Y-114993571D02*
X177361819Y-114993571D01*
X177361819Y-114993571D02*
X177504676Y-114898333D01*
X177504676Y-114898333D02*
X177599914Y-114803095D01*
X177599914Y-114803095D02*
X177647533Y-114707857D01*
D11*
%TO.C,e1*%
X181947000Y-117165000D02*
X182007000Y-117165000D01*
D12*
%TO.C,J1*%
X174019082Y-86341343D02*
X174019082Y-116821343D01*
X174019082Y-86341343D02*
X158779082Y-86341343D01*
X174019082Y-116821343D02*
X158779082Y-116821343D01*
X158779082Y-86341343D02*
X158779082Y-116821343D01*
D11*
%TO.C,R2*%
X154196000Y-87448936D02*
X154196000Y-87903064D01*
X155666000Y-87448936D02*
X155666000Y-87903064D01*
%TO.C,R3*%
X149116000Y-92171436D02*
X149116000Y-92625564D01*
X150586000Y-92171436D02*
X150586000Y-92625564D01*
%TO.C,R6*%
X177256000Y-107133936D02*
X177256000Y-107588064D01*
X175786000Y-107133936D02*
X175786000Y-107588064D01*
%TO.C,R4*%
X177256000Y-92983064D02*
X177256000Y-92528936D01*
X175786000Y-92983064D02*
X175786000Y-92528936D01*
%TO.C,R7*%
X149751000Y-108223064D02*
X149751000Y-107768936D01*
X151221000Y-108223064D02*
X151221000Y-107768936D01*
%TO.C,R5*%
X181066000Y-107133936D02*
X181066000Y-107588064D01*
X179596000Y-107133936D02*
X179596000Y-107588064D01*
%TO.C,R1*%
X181066000Y-83638936D02*
X181066000Y-84093064D01*
X179596000Y-83638936D02*
X179596000Y-84093064D01*
%TO.C,R8*%
X155666000Y-114118936D02*
X155666000Y-114573064D01*
X154196000Y-114118936D02*
X154196000Y-114573064D01*
%TD*%
M02*
