%TF.GenerationSoftware,KiCad,Pcbnew,9.0.3*%
%TF.CreationDate,2025-10-09T23:36:15+02:00*%
%TF.ProjectId,ledkiv2,6c65646b-6976-4322-9e6b-696361645f70,rev?*%
%TF.SameCoordinates,Original*%
%TF.FileFunction,Legend,Top*%
%TF.FilePolarity,Positive*%
%FSLAX46Y46*%
G04 Gerber Fmt 4.6, Leading zero omitted, Abs format (unit mm)*
G04 Created by KiCad (PCBNEW 9.0.3) date 2025-10-09 23:36:15*
%MOMM*%
%LPD*%
G01*
G04 APERTURE LIST*
%ADD10C,0.120000*%
G04 APERTURE END LIST*
D10*
%TO.C,D59*%
X179005000Y-110217500D02*
X179005000Y-107532500D01*
X177085000Y-107532500D02*
X177085000Y-110217500D01*
X179005000Y-107532500D02*
X177085000Y-107532500D01*
%TO.C,D63*%
X179005000Y-115297500D02*
X179005000Y-112612500D01*
X177085000Y-112612500D02*
X177085000Y-115297500D01*
X179005000Y-112612500D02*
X177085000Y-112612500D01*
%TO.C,D7*%
X148525000Y-110217500D02*
X148525000Y-107532500D01*
X146605000Y-107532500D02*
X146605000Y-110217500D01*
X148525000Y-107532500D02*
X146605000Y-107532500D01*
%TO.C,D4*%
X148525000Y-94977500D02*
X148525000Y-92292500D01*
X146605000Y-92292500D02*
X146605000Y-94977500D01*
X148525000Y-92292500D02*
X146605000Y-92292500D01*
%TO.C,D40*%
X184085000Y-84817500D02*
X184085000Y-82132500D01*
X182165000Y-82132500D02*
X182165000Y-84817500D01*
X184085000Y-82132500D02*
X182165000Y-82132500D01*
%TO.C,D36*%
X184092608Y-79601006D02*
X184092608Y-76916006D01*
X182172608Y-76916006D02*
X182172608Y-79601006D01*
X184092608Y-76916006D02*
X182172608Y-76916006D01*
%TO.C,D61*%
X168845000Y-115297500D02*
X168845000Y-112612500D01*
X166925000Y-112612500D02*
X166925000Y-115297500D01*
X168845000Y-112612500D02*
X166925000Y-112612500D01*
%TO.C,D43*%
X179005000Y-89897500D02*
X179005000Y-87212500D01*
X177085000Y-87212500D02*
X177085000Y-89897500D01*
X179005000Y-87212500D02*
X177085000Y-87212500D01*
%TO.C,D23*%
X158685000Y-94977500D02*
X158685000Y-92292500D01*
X156765000Y-92292500D02*
X156765000Y-94977500D01*
X158685000Y-92292500D02*
X156765000Y-92292500D01*
%TO.C,D46*%
X173925000Y-94977500D02*
X173925000Y-92292500D01*
X172005000Y-92292500D02*
X172005000Y-94977500D01*
X173925000Y-92292500D02*
X172005000Y-92292500D01*
%TO.C,D26*%
X163765000Y-100057500D02*
X163765000Y-97372500D01*
X161845000Y-97372500D02*
X161845000Y-100057500D01*
X163765000Y-97372500D02*
X161845000Y-97372500D01*
%TO.C,D10*%
X153605000Y-84817500D02*
X153605000Y-82132500D01*
X151685000Y-82132500D02*
X151685000Y-84817500D01*
X153605000Y-82132500D02*
X151685000Y-82132500D01*
%TO.C,D58*%
X173925000Y-110217500D02*
X173925000Y-107532500D01*
X172005000Y-107532500D02*
X172005000Y-110217500D01*
X173925000Y-107532500D02*
X172005000Y-107532500D01*
%TO.C,D57*%
X168845000Y-110217500D02*
X168845000Y-107532500D01*
X166925000Y-107532500D02*
X166925000Y-110217500D01*
X168845000Y-107532500D02*
X166925000Y-107532500D01*
%TO.C,D21*%
X158685000Y-89897500D02*
X158685000Y-87212500D01*
X156765000Y-87212500D02*
X156765000Y-89897500D01*
X158685000Y-87212500D02*
X156765000Y-87212500D01*
%TO.C,D16*%
X153605000Y-115297500D02*
X153605000Y-112612500D01*
X151685000Y-112612500D02*
X151685000Y-115297500D01*
X153605000Y-112612500D02*
X151685000Y-112612500D01*
%TO.C,D35*%
X179012608Y-79601006D02*
X179012608Y-76916006D01*
X177092608Y-76916006D02*
X177092608Y-79601006D01*
X179012608Y-76916006D02*
X177092608Y-76916006D01*
%TO.C,D48*%
X184085000Y-94977500D02*
X184085000Y-92292500D01*
X182165000Y-92292500D02*
X182165000Y-94977500D01*
X184085000Y-92292500D02*
X182165000Y-92292500D01*
%TO.C,D56*%
X184085000Y-105137500D02*
X184085000Y-102452500D01*
X182165000Y-102452500D02*
X182165000Y-105137500D01*
X184085000Y-102452500D02*
X182165000Y-102452500D01*
%TO.C,D32*%
X163765000Y-115297500D02*
X163765000Y-112612500D01*
X161845000Y-112612500D02*
X161845000Y-115297500D01*
X163765000Y-112612500D02*
X161845000Y-112612500D01*
%TO.C,D18*%
X163772608Y-79601006D02*
X163772608Y-76916006D01*
X161852608Y-76916006D02*
X161852608Y-79601006D01*
X163772608Y-76916006D02*
X161852608Y-76916006D01*
%TO.C,D8*%
X148525000Y-115297500D02*
X148525000Y-112612500D01*
X146605000Y-112612500D02*
X146605000Y-115297500D01*
X148525000Y-112612500D02*
X146605000Y-112612500D01*
%TO.C,D22*%
X163765000Y-89897500D02*
X163765000Y-87212500D01*
X161845000Y-87212500D02*
X161845000Y-89897500D01*
X163765000Y-87212500D02*
X161845000Y-87212500D01*
%TO.C,D53*%
X168845000Y-105137500D02*
X168845000Y-102452500D01*
X166925000Y-102452500D02*
X166925000Y-105137500D01*
X168845000Y-102452500D02*
X166925000Y-102452500D01*
%TO.C,D3*%
X148525000Y-89897500D02*
X148525000Y-87212500D01*
X146605000Y-87212500D02*
X146605000Y-89897500D01*
X148525000Y-87212500D02*
X146605000Y-87212500D01*
%TO.C,D11*%
X153605000Y-89897500D02*
X153605000Y-87212500D01*
X151685000Y-87212500D02*
X151685000Y-89897500D01*
X153605000Y-87212500D02*
X151685000Y-87212500D01*
%TO.C,D1*%
X148532608Y-79601006D02*
X148532608Y-76916006D01*
X146612608Y-76916006D02*
X146612608Y-79601006D01*
X148532608Y-76916006D02*
X146612608Y-76916006D01*
%TO.C,D25*%
X158685000Y-100057500D02*
X158685000Y-97372500D01*
X156765000Y-97372500D02*
X156765000Y-100057500D01*
X158685000Y-97372500D02*
X156765000Y-97372500D01*
%TO.C,D42*%
X173925000Y-89897500D02*
X173925000Y-87212500D01*
X172005000Y-87212500D02*
X172005000Y-89897500D01*
X173925000Y-87212500D02*
X172005000Y-87212500D01*
%TO.C,D44*%
X184085000Y-89897500D02*
X184085000Y-87212500D01*
X182165000Y-87212500D02*
X182165000Y-89897500D01*
X184085000Y-87212500D02*
X182165000Y-87212500D01*
%TO.C,D29*%
X158685000Y-110217500D02*
X158685000Y-107532500D01*
X156765000Y-107532500D02*
X156765000Y-110217500D01*
X158685000Y-107532500D02*
X156765000Y-107532500D01*
%TO.C,D15*%
X153605000Y-110217500D02*
X153605000Y-107532500D01*
X151685000Y-107532500D02*
X151685000Y-110217500D01*
X153605000Y-107532500D02*
X151685000Y-107532500D01*
%TO.C,D9*%
X153612608Y-79601006D02*
X153612608Y-76916006D01*
X151692608Y-76916006D02*
X151692608Y-79601006D01*
X153612608Y-76916006D02*
X151692608Y-76916006D01*
%TO.C,D6*%
X148525000Y-105137500D02*
X148525000Y-102452500D01*
X146605000Y-102452500D02*
X146605000Y-105137500D01*
X148525000Y-102452500D02*
X146605000Y-102452500D01*
%TO.C,D60*%
X184085000Y-110217500D02*
X184085000Y-107532500D01*
X182165000Y-107532500D02*
X182165000Y-110217500D01*
X184085000Y-107532500D02*
X182165000Y-107532500D01*
%TO.C,D5*%
X148525000Y-100057500D02*
X148525000Y-97372500D01*
X146605000Y-97372500D02*
X146605000Y-100057500D01*
X148525000Y-97372500D02*
X146605000Y-97372500D01*
%TO.C,D64*%
X184085000Y-115297500D02*
X184085000Y-112612500D01*
X182165000Y-112612500D02*
X182165000Y-115297500D01*
X184085000Y-112612500D02*
X182165000Y-112612500D01*
%TO.C,D12*%
X153605000Y-94977500D02*
X153605000Y-92292500D01*
X151685000Y-92292500D02*
X151685000Y-94977500D01*
X153605000Y-92292500D02*
X151685000Y-92292500D01*
%TO.C,D2*%
X148525000Y-84817500D02*
X148525000Y-82132500D01*
X146605000Y-82132500D02*
X146605000Y-84817500D01*
X148525000Y-82132500D02*
X146605000Y-82132500D01*
%TO.C,D51*%
X179005000Y-100057500D02*
X179005000Y-97372500D01*
X177085000Y-97372500D02*
X177085000Y-100057500D01*
X179005000Y-97372500D02*
X177085000Y-97372500D01*
%TO.C,D24*%
X163765000Y-94977500D02*
X163765000Y-92292500D01*
X161845000Y-92292500D02*
X161845000Y-94977500D01*
X163765000Y-92292500D02*
X161845000Y-92292500D01*
%TO.C,D45*%
X168845000Y-94977500D02*
X168845000Y-92292500D01*
X166925000Y-92292500D02*
X166925000Y-94977500D01*
X168845000Y-92292500D02*
X166925000Y-92292500D01*
%TO.C,D28*%
X163765000Y-105137500D02*
X163765000Y-102452500D01*
X161845000Y-102452500D02*
X161845000Y-105137500D01*
X163765000Y-102452500D02*
X161845000Y-102452500D01*
%TO.C,D50*%
X173925000Y-100057500D02*
X173925000Y-97372500D01*
X172005000Y-97372500D02*
X172005000Y-100057500D01*
X173925000Y-97372500D02*
X172005000Y-97372500D01*
%TO.C,D20*%
X163765000Y-84817500D02*
X163765000Y-82132500D01*
X161845000Y-82132500D02*
X161845000Y-84817500D01*
X163765000Y-82132500D02*
X161845000Y-82132500D01*
%TO.C,D33*%
X168852608Y-79601006D02*
X168852608Y-76916006D01*
X166932608Y-76916006D02*
X166932608Y-79601006D01*
X168852608Y-76916006D02*
X166932608Y-76916006D01*
%TO.C,D19*%
X158685000Y-84817500D02*
X158685000Y-82132500D01*
X156765000Y-82132500D02*
X156765000Y-84817500D01*
X158685000Y-82132500D02*
X156765000Y-82132500D01*
%TO.C,D34*%
X173932608Y-79601006D02*
X173932608Y-76916006D01*
X172012608Y-76916006D02*
X172012608Y-79601006D01*
X173932608Y-76916006D02*
X172012608Y-76916006D01*
%TO.C,D38*%
X173925000Y-84817500D02*
X173925000Y-82132500D01*
X172005000Y-82132500D02*
X172005000Y-84817500D01*
X173925000Y-82132500D02*
X172005000Y-82132500D01*
%TO.C,D17*%
X158692608Y-79601006D02*
X158692608Y-76916006D01*
X156772608Y-76916006D02*
X156772608Y-79601006D01*
X158692608Y-76916006D02*
X156772608Y-76916006D01*
%TO.C,D14*%
X153605000Y-105137500D02*
X153605000Y-102452500D01*
X151685000Y-102452500D02*
X151685000Y-105137500D01*
X153605000Y-102452500D02*
X151685000Y-102452500D01*
%TO.C,D30*%
X163765000Y-110217500D02*
X163765000Y-107532500D01*
X161845000Y-107532500D02*
X161845000Y-110217500D01*
X163765000Y-107532500D02*
X161845000Y-107532500D01*
%TO.C,D39*%
X179005000Y-84817500D02*
X179005000Y-82132500D01*
X177085000Y-82132500D02*
X177085000Y-84817500D01*
X179005000Y-82132500D02*
X177085000Y-82132500D01*
%TO.C,D13*%
X153605000Y-100057500D02*
X153605000Y-97372500D01*
X151685000Y-97372500D02*
X151685000Y-100057500D01*
X153605000Y-97372500D02*
X151685000Y-97372500D01*
%TO.C,D52*%
X184085000Y-100057500D02*
X184085000Y-97372500D01*
X182165000Y-97372500D02*
X182165000Y-100057500D01*
X184085000Y-97372500D02*
X182165000Y-97372500D01*
%TO.C,D27*%
X158685000Y-105137500D02*
X158685000Y-102452500D01*
X156765000Y-102452500D02*
X156765000Y-105137500D01*
X158685000Y-102452500D02*
X156765000Y-102452500D01*
%TO.C,D54*%
X173925000Y-105137500D02*
X173925000Y-102452500D01*
X172005000Y-102452500D02*
X172005000Y-105137500D01*
X173925000Y-102452500D02*
X172005000Y-102452500D01*
%TO.C,D41*%
X168845000Y-89897500D02*
X168845000Y-87212500D01*
X166925000Y-87212500D02*
X166925000Y-89897500D01*
X168845000Y-87212500D02*
X166925000Y-87212500D01*
%TO.C,D37*%
X168845000Y-84817500D02*
X168845000Y-82132500D01*
X166925000Y-82132500D02*
X166925000Y-84817500D01*
X168845000Y-82132500D02*
X166925000Y-82132500D01*
%TO.C,D31*%
X158685000Y-115297500D02*
X158685000Y-112612500D01*
X156765000Y-112612500D02*
X156765000Y-115297500D01*
X158685000Y-112612500D02*
X156765000Y-112612500D01*
%TO.C,D47*%
X179005000Y-94977500D02*
X179005000Y-92292500D01*
X177085000Y-92292500D02*
X177085000Y-94977500D01*
X179005000Y-92292500D02*
X177085000Y-92292500D01*
%TO.C,D62*%
X173925000Y-115297500D02*
X173925000Y-112612500D01*
X172005000Y-112612500D02*
X172005000Y-115297500D01*
X173925000Y-112612500D02*
X172005000Y-112612500D01*
%TO.C,D49*%
X168845000Y-100057500D02*
X168845000Y-97372500D01*
X166925000Y-97372500D02*
X166925000Y-100057500D01*
X168845000Y-97372500D02*
X166925000Y-97372500D01*
%TO.C,D55*%
X179005000Y-105137500D02*
X179005000Y-102452500D01*
X177085000Y-102452500D02*
X177085000Y-105137500D01*
X179005000Y-102452500D02*
X177085000Y-102452500D01*
%TD*%
M02*
